<?xml version="1.0" encoding="UTF-8" standalone="no"?>
<!DOCTYPE svg PUBLIC "-//W3C//DTD SVG 1.1//EN"
 "http://www.w3.org/Graphics/SVG/1.1/DTD/svg11.dtd">
<!-- Generated by graphviz version 2.40.1 (20161225.0304)
 -->
<!-- Title: dependencies Pages: 1 -->
<svg width="878pt" height="349pt"
 viewBox="0.00 0.00 878.00 349.00" xmlns="http://www.w3.org/2000/svg" xmlns:xlink="http://www.w3.org/1999/xlink">
<g id="graph0" class="graph" transform="scale(1 1) rotate(0) translate(4 345)">
<title>dependencies</title>
<polygon fill="#ffffff" stroke="transparent" points="-4,4 -4,-345 874,-345 874,4 -4,4"/>
<text text-anchor="start" x="414.0091" y="-42.4" font-family="sans-serif" font-weight="bold" font-size="14.00" fill="#000000">Legend</text>
<polygon fill="#ffffb3" stroke="transparent" points="201,-10 201,-30 221,-30 221,-10 201,-10"/>
<text text-anchor="start" x="224.629" y="-15.4" font-family="sans-serif" font-size="14.00" fill="#000000"> &#160;Declarations</text>
<polygon fill="#8dd3c7" stroke="transparent" points="314,-10 314,-30 334,-30 334,-10 314,-10"/>
<text text-anchor="start" x="337.7251" y="-15.4" font-family="sans-serif" font-size="14.00" fill="#000000"> &#160;Module</text>
<polygon fill="#80b1d3" stroke="transparent" points="400,-10 400,-30 420,-30 420,-10 400,-10"/>
<text text-anchor="start" x="423.7812" y="-15.4" font-family="sans-serif" font-size="14.00" fill="#000000"> &#160;Bootstrap</text>
<polygon fill="#fdb462" stroke="transparent" points="497,-10 497,-30 517,-30 517,-10 497,-10"/>
<text text-anchor="start" x="520.6732" y="-15.4" font-family="sans-serif" font-size="14.00" fill="#000000"> &#160;Providers</text>
<polygon fill="#fb8072" stroke="transparent" points="593,-10 593,-30 613,-30 613,-10 593,-10"/>
<text text-anchor="start" x="616.7258" y="-15.4" font-family="sans-serif" font-size="14.00" fill="#000000"> &#160;Exports</text>
<g id="clust1" class="cluster">
<title>cluster_AppModule</title>
<polygon fill="none" stroke="#000000" stroke-dasharray="1,5" points="8,-70 8,-333 862,-333 862,-70 8,-70"/>
</g>
<g id="clust2" class="cluster">
<title>cluster_AppModule_declarations</title>
<polygon fill="none" stroke="#000000" points="450,-143 450,-195 842,-195 842,-143 450,-143"/>
</g>
<g id="clust3" class="cluster">
<title>cluster_AppModule_AppComponent_providers</title>
<polygon fill="none" stroke="#000000" points="702,-78 702,-130 854,-130 854,-78 702,-78"/>
</g>
<g id="clust8" class="cluster">
<title>cluster_AppModule_bootstrap</title>
<polygon fill="none" stroke="#000000" points="494,-273 494,-325 618,-325 618,-273 494,-273"/>
</g>
<g id="clust9" class="cluster">
<title>cluster_AppModule_providers</title>
<polygon fill="none" stroke="#000000" points="16,-143 16,-195 442,-195 442,-143 16,-143"/>
</g>
<!-- AppComponent -->
<g id="node1" class="node">
<title>AppComponent</title>
<polygon fill="#ffffb3" stroke="#000000" points="833.9399,-187 728.0601,-187 728.0601,-151 833.9399,-151 833.9399,-187"/>
<text text-anchor="middle" x="781" y="-164.8" font-family="Times,serif" font-size="14.00" fill="#000000">AppComponent</text>
</g>
<!-- AppModule -->
<g id="node4" class="node">
<title>AppModule</title>
<polygon fill="#8dd3c7" stroke="#000000" points="597.6571,-252 594.6571,-256 573.6571,-256 570.6571,-252 514.3429,-252 514.3429,-216 597.6571,-216 597.6571,-252"/>
<text text-anchor="middle" x="556" y="-229.8" font-family="Times,serif" font-size="14.00" fill="#000000">AppModule</text>
</g>
<!-- AppComponent&#45;&gt;AppModule -->
<g id="edge1" class="edge">
<title>AppComponent&#45;&gt;AppModule</title>
<path fill="none" stroke="#000000" d="M781,-187.2843C781,-208.3211 781,-240 781,-240 781,-240 607.7935,-240 607.7935,-240"/>
<polygon fill="#000000" stroke="#000000" points="607.7935,-236.5001 597.7935,-240 607.7934,-243.5001 607.7935,-236.5001"/>
</g>
<!-- UnauthenticatedComponent -->
<g id="node2" class="node">
<title>UnauthenticatedComponent</title>
<polygon fill="#ffffb3" stroke="#000000" points="710.5744,-187 537.4256,-187 537.4256,-151 710.5744,-151 710.5744,-187"/>
<text text-anchor="middle" x="624" y="-164.8" font-family="Times,serif" font-size="14.00" fill="#000000">UnauthenticatedComponent</text>
</g>
<!-- UnauthenticatedComponent&#45;&gt;AppModule -->
<g id="edge3" class="edge">
<title>UnauthenticatedComponent&#45;&gt;AppModule</title>
<path fill="none" stroke="#000000" d="M567.6455,-187.1061C567.6455,-187.1061 567.6455,-205.991 567.6455,-205.991"/>
<polygon fill="#000000" stroke="#000000" points="564.1456,-205.9909 567.6455,-215.991 571.1456,-205.991 564.1456,-205.9909"/>
</g>
<!-- Parallax -->
<g id="node3" class="node">
<title>Parallax</title>
<polygon fill="#ffffb3" stroke="#000000" points="519.8683,-187 458.1317,-187 458.1317,-151 519.8683,-151 519.8683,-187"/>
<text text-anchor="middle" x="489" y="-164.8" font-family="Times,serif" font-size="14.00" fill="#000000">Parallax</text>
</g>
<!-- Parallax&#45;&gt;AppModule -->
<g id="edge4" class="edge">
<title>Parallax&#45;&gt;AppModule</title>
<path fill="none" stroke="#000000" d="M507.8512,-187.2921C507.8512,-209.2057 507.8512,-243 507.8512,-243 507.8512,-243 508.4806,-243 508.4806,-243"/>
<polygon fill="#000000" stroke="#000000" points="504.1458,-246.5002 514.1458,-243 504.1457,-239.5002 504.1458,-246.5002"/>
</g>
<!-- AppComponent  -->
<g id="node6" class="node">
<title>AppComponent </title>
<polygon fill="#80b1d3" stroke="#000000" points="610.439,-317 501.561,-317 501.561,-281 610.439,-281 610.439,-317"/>
<text text-anchor="middle" x="556" y="-294.8" font-family="Times,serif" font-size="14.00" fill="#000000">AppComponent </text>
</g>
<!-- AppModule&#45;&gt;AppComponent  -->
<g id="edge5" class="edge">
<title>AppModule&#45;&gt;AppComponent </title>
<path fill="none" stroke="#000000" stroke-dasharray="1,5" d="M556,-252.1061C556,-252.1061 556,-270.991 556,-270.991"/>
<polygon fill="#000000" stroke="#000000" points="552.5001,-270.9909 556,-280.991 559.5001,-270.991 552.5001,-270.9909"/>
</g>
<!-- GoogleService -->
<g id="node5" class="node">
<title>GoogleService</title>
<ellipse fill="#fdb462" stroke="#000000" cx="778" cy="-104" rx="68.3382" ry="18"/>
<text text-anchor="middle" x="778" y="-99.8" font-family="Times,serif" font-size="14.00" fill="#000000">GoogleService</text>
</g>
<!-- GoogleService&#45;&gt;AppComponent -->
<g id="edge2" class="edge">
<title>GoogleService&#45;&gt;AppComponent</title>
<path fill="none" stroke="#000000" d="M781,-122.1061C781,-122.1061 781,-140.991 781,-140.991"/>
<polygon fill="#000000" stroke="#000000" points="777.5001,-140.9909 781,-150.991 784.5001,-140.991 777.5001,-140.9909"/>
</g>
<!-- GoogleService&#45;&gt;AppModule -->
<g id="edge6" class="edge">
<title>GoogleService&#45;&gt;AppModule</title>
<path fill="none" stroke="#000000" d="M719.4089,-113.3202C719.4089,-142.1578 719.4089,-228 719.4089,-228 719.4089,-228 607.6578,-228 607.6578,-228"/>
<polygon fill="#000000" stroke="#000000" points="607.6578,-224.5001 597.6578,-228 607.6577,-231.5001 607.6578,-224.5001"/>
</g>
<!-- AuthGuardService -->
<g id="node7" class="node">
<title>AuthGuardService</title>
<ellipse fill="#fdb462" stroke="#000000" cx="351" cy="-169" rx="83.3674" ry="18"/>
<text text-anchor="middle" x="351" y="-164.8" font-family="Times,serif" font-size="14.00" fill="#000000">AuthGuardService</text>
</g>
<!-- AuthGuardService&#45;&gt;AppModule -->
<g id="edge7" class="edge">
<title>AuthGuardService&#45;&gt;AppModule</title>
<path fill="none" stroke="#000000" d="M351,-187.027C351,-203.3976 351,-225 351,-225 351,-225 504.0205,-225 504.0205,-225"/>
<polygon fill="#000000" stroke="#000000" points="504.0205,-228.5001 514.0205,-225 504.0205,-221.5001 504.0205,-228.5001"/>
</g>
<!-- PreventAuthGuardService -->
<g id="node8" class="node">
<title>PreventAuthGuardService</title>
<ellipse fill="#fdb462" stroke="#000000" cx="137" cy="-169" rx="112.8616" ry="18"/>
<text text-anchor="middle" x="137" y="-164.8" font-family="Times,serif" font-size="14.00" fill="#000000">PreventAuthGuardService</text>
</g>
<!-- PreventAuthGuardService&#45;&gt;AppModule -->
<g id="edge8" class="edge">
<title>PreventAuthGuardService&#45;&gt;AppModule</title>
<path fill="none" stroke="#000000" d="M137,-187.1061C137,-206.3391 137,-234 137,-234 137,-234 504.2928,-234 504.2928,-234"/>
<polygon fill="#000000" stroke="#000000" points="504.2929,-237.5001 514.2928,-234 504.2928,-230.5001 504.2929,-237.5001"/>
</g>
</g>
</svg>
