<?xml version="1.0" encoding="UTF-8" standalone="no"?>
<!DOCTYPE svg PUBLIC "-//W3C//DTD SVG 1.1//EN"
 "http://www.w3.org/Graphics/SVG/1.1/DTD/svg11.dtd">
<!-- Generated by graphviz version 2.40.1 (20161225.0304)
 -->
<!-- Title: dependencies Pages: 1 -->
<svg width="1077pt" height="349pt"
 viewBox="0.00 0.00 1077.00 349.00" xmlns="http://www.w3.org/2000/svg" xmlns:xlink="http://www.w3.org/1999/xlink">
<g id="graph0" class="graph" transform="scale(1 1) rotate(0) translate(4 345)">
<title>dependencies</title>
<polygon fill="#ffffff" stroke="transparent" points="-4,4 -4,-345 1073,-345 1073,4 -4,4"/>
<text text-anchor="start" x="513.5091" y="-42.4" font-family="sans-serif" font-weight="bold" font-size="14.00" fill="#000000">Legend</text>
<polygon fill="#ffffb3" stroke="transparent" points="300.5,-10 300.5,-30 320.5,-30 320.5,-10 300.5,-10"/>
<text text-anchor="start" x="324.129" y="-15.4" font-family="sans-serif" font-size="14.00" fill="#000000"> &#160;Declarations</text>
<polygon fill="#8dd3c7" stroke="transparent" points="413.5,-10 413.5,-30 433.5,-30 433.5,-10 413.5,-10"/>
<text text-anchor="start" x="437.2251" y="-15.4" font-family="sans-serif" font-size="14.00" fill="#000000"> &#160;Module</text>
<polygon fill="#80b1d3" stroke="transparent" points="499.5,-10 499.5,-30 519.5,-30 519.5,-10 499.5,-10"/>
<text text-anchor="start" x="523.2812" y="-15.4" font-family="sans-serif" font-size="14.00" fill="#000000"> &#160;Bootstrap</text>
<polygon fill="#fdb462" stroke="transparent" points="596.5,-10 596.5,-30 616.5,-30 616.5,-10 596.5,-10"/>
<text text-anchor="start" x="620.1732" y="-15.4" font-family="sans-serif" font-size="14.00" fill="#000000"> &#160;Providers</text>
<polygon fill="#fb8072" stroke="transparent" points="692.5,-10 692.5,-30 712.5,-30 712.5,-10 692.5,-10"/>
<text text-anchor="start" x="716.2258" y="-15.4" font-family="sans-serif" font-size="14.00" fill="#000000"> &#160;Exports</text>
<g id="clust1" class="cluster">
<title>cluster_AppModule</title>
<polygon fill="none" stroke="#000000" stroke-dasharray="1,5" points="8,-70 8,-333 1061,-333 1061,-70 8,-70"/>
</g>
<g id="clust2" class="cluster">
<title>cluster_AppModule_declarations</title>
<polygon fill="none" stroke="#000000" points="728,-143 728,-195 1041,-195 1041,-143 728,-143"/>
</g>
<g id="clust3" class="cluster">
<title>cluster_AppModule_AppComponent_providers</title>
<polygon fill="none" stroke="#000000" points="901,-78 901,-130 1053,-130 1053,-78 901,-78"/>
</g>
<g id="clust5" class="cluster">
<title>cluster_AppModule_imports</title>
<polygon fill="none" stroke="#000000" points="450,-143 450,-195 720,-195 720,-143 450,-143"/>
</g>
<g id="clust7" class="cluster">
<title>cluster_AppModule_bootstrap</title>
<polygon fill="none" stroke="#000000" points="601,-273 601,-325 725,-325 725,-273 601,-273"/>
</g>
<g id="clust8" class="cluster">
<title>cluster_AppModule_providers</title>
<polygon fill="none" stroke="#000000" points="16,-143 16,-195 442,-195 442,-143 16,-143"/>
</g>
<!-- AppComponent -->
<g id="node1" class="node">
<title>AppComponent</title>
<polygon fill="#ffffb3" stroke="#000000" points="1032.9399,-187 927.0601,-187 927.0601,-151 1032.9399,-151 1032.9399,-187"/>
<text text-anchor="middle" x="980" y="-164.8" font-family="Times,serif" font-size="14.00" fill="#000000">AppComponent</text>
</g>
<!-- AppModule -->
<g id="node3" class="node">
<title>AppModule</title>
<polygon fill="#8dd3c7" stroke="#000000" points="704.6571,-252 701.6571,-256 680.6571,-256 677.6571,-252 621.3429,-252 621.3429,-216 704.6571,-216 704.6571,-252"/>
<text text-anchor="middle" x="663" y="-229.8" font-family="Times,serif" font-size="14.00" fill="#000000">AppModule</text>
</g>
<!-- AppComponent&#45;&gt;AppModule -->
<g id="edge1" class="edge">
<title>AppComponent&#45;&gt;AppModule</title>
<path fill="none" stroke="#000000" d="M980,-187.2921C980,-209.2057 980,-243 980,-243 980,-243 714.7682,-243 714.7682,-243"/>
<polygon fill="#000000" stroke="#000000" points="714.7682,-239.5001 704.7682,-243 714.7682,-246.5001 714.7682,-239.5001"/>
</g>
<!-- UnauthenticatedComponent -->
<g id="node2" class="node">
<title>UnauthenticatedComponent</title>
<polygon fill="#ffffb3" stroke="#000000" points="909.5744,-187 736.4256,-187 736.4256,-151 909.5744,-151 909.5744,-187"/>
<text text-anchor="middle" x="823" y="-164.8" font-family="Times,serif" font-size="14.00" fill="#000000">UnauthenticatedComponent</text>
</g>
<!-- UnauthenticatedComponent&#45;&gt;AppModule -->
<g id="edge3" class="edge">
<title>UnauthenticatedComponent&#45;&gt;AppModule</title>
<path fill="none" stroke="#000000" d="M823,-187.027C823,-203.3976 823,-225 823,-225 823,-225 715.0381,-225 715.0381,-225"/>
<polygon fill="#000000" stroke="#000000" points="715.0382,-221.5001 705.0381,-225 715.0381,-228.5001 715.0382,-221.5001"/>
</g>
<!-- AppComponent  -->
<g id="node7" class="node">
<title>AppComponent </title>
<polygon fill="#80b1d3" stroke="#000000" points="717.439,-317 608.561,-317 608.561,-281 717.439,-281 717.439,-317"/>
<text text-anchor="middle" x="663" y="-294.8" font-family="Times,serif" font-size="14.00" fill="#000000">AppComponent </text>
</g>
<!-- AppModule&#45;&gt;AppComponent  -->
<g id="edge6" class="edge">
<title>AppModule&#45;&gt;AppComponent </title>
<path fill="none" stroke="#000000" stroke-dasharray="1,5" d="M663,-252.1061C663,-252.1061 663,-270.991 663,-270.991"/>
<polygon fill="#000000" stroke="#000000" points="659.5001,-270.9909 663,-280.991 666.5001,-270.991 659.5001,-270.9909"/>
</g>
<!-- GoogleService -->
<g id="node4" class="node">
<title>GoogleService</title>
<ellipse fill="#fdb462" stroke="#000000" cx="977" cy="-104" rx="68.3382" ry="18"/>
<text text-anchor="middle" x="977" y="-99.8" font-family="Times,serif" font-size="14.00" fill="#000000">GoogleService</text>
</g>
<!-- GoogleService&#45;&gt;AppComponent -->
<g id="edge2" class="edge">
<title>GoogleService&#45;&gt;AppComponent</title>
<path fill="none" stroke="#000000" d="M980,-122.1061C980,-122.1061 980,-140.991 980,-140.991"/>
<polygon fill="#000000" stroke="#000000" points="976.5001,-140.9909 980,-150.991 983.5001,-140.991 976.5001,-140.9909"/>
</g>
<!-- GoogleService&#45;&gt;AppModule -->
<g id="edge7" class="edge">
<title>GoogleService&#45;&gt;AppModule</title>
<path fill="none" stroke="#000000" d="M918.4089,-113.3493C918.4089,-143.1571 918.4089,-234 918.4089,-234 918.4089,-234 714.8896,-234 714.8896,-234"/>
<polygon fill="#000000" stroke="#000000" points="714.8896,-230.5001 704.8896,-234 714.8895,-237.5001 714.8896,-230.5001"/>
</g>
<!-- ConfigModule -->
<g id="node5" class="node">
<title>ConfigModule</title>
<polygon fill="#8dd3c7" stroke="#000000" points="712.4386,-187 709.4386,-191 688.4386,-191 685.4386,-187 613.5614,-187 613.5614,-151 712.4386,-151 712.4386,-187"/>
<text text-anchor="middle" x="663" y="-164.8" font-family="Times,serif" font-size="14.00" fill="#000000">ConfigModule</text>
</g>
<!-- ConfigModule&#45;&gt;AppModule -->
<g id="edge4" class="edge">
<title>ConfigModule&#45;&gt;AppModule</title>
<path fill="none" stroke="#000000" d="M663,-187.1061C663,-187.1061 663,-205.991 663,-205.991"/>
<polygon fill="#000000" stroke="#000000" points="659.5001,-205.9909 663,-215.991 666.5001,-205.991 659.5001,-205.9909"/>
</g>
<!-- AuthenticatedModule -->
<g id="node6" class="node">
<title>AuthenticatedModule</title>
<polygon fill="#8dd3c7" stroke="#000000" points="596.0772,-187 593.0772,-191 572.0772,-191 569.0772,-187 457.9228,-187 457.9228,-151 596.0772,-151 596.0772,-187"/>
<text text-anchor="middle" x="527" y="-164.8" font-family="Times,serif" font-size="14.00" fill="#000000">AuthenticatedModule</text>
</g>
<!-- AuthenticatedModule&#45;&gt;AppModule -->
<g id="edge5" class="edge">
<title>AuthenticatedModule&#45;&gt;AppModule</title>
<path fill="none" stroke="#000000" d="M527,-187.027C527,-203.3976 527,-225 527,-225 527,-225 611.0858,-225 611.0858,-225"/>
<polygon fill="#000000" stroke="#000000" points="611.0858,-228.5001 621.0858,-225 611.0858,-221.5001 611.0858,-228.5001"/>
</g>
<!-- AuthGuardService -->
<g id="node8" class="node">
<title>AuthGuardService</title>
<ellipse fill="#fdb462" stroke="#000000" cx="351" cy="-169" rx="83.3674" ry="18"/>
<text text-anchor="middle" x="351" y="-164.8" font-family="Times,serif" font-size="14.00" fill="#000000">AuthGuardService</text>
</g>
<!-- AuthGuardService&#45;&gt;AppModule -->
<g id="edge8" class="edge">
<title>AuthGuardService&#45;&gt;AppModule</title>
<path fill="none" stroke="#000000" d="M351,-187.1061C351,-206.3391 351,-234 351,-234 351,-234 611.246,-234 611.246,-234"/>
<polygon fill="#000000" stroke="#000000" points="611.2461,-237.5001 621.246,-234 611.246,-230.5001 611.2461,-237.5001"/>
</g>
<!-- PreventAuthGuardService -->
<g id="node9" class="node">
<title>PreventAuthGuardService</title>
<ellipse fill="#fdb462" stroke="#000000" cx="137" cy="-169" rx="112.8616" ry="18"/>
<text text-anchor="middle" x="137" y="-164.8" font-family="Times,serif" font-size="14.00" fill="#000000">PreventAuthGuardService</text>
</g>
<!-- PreventAuthGuardService&#45;&gt;AppModule -->
<g id="edge9" class="edge">
<title>PreventAuthGuardService&#45;&gt;AppModule</title>
<path fill="none" stroke="#000000" d="M137,-187.2921C137,-209.2057 137,-243 137,-243 137,-243 611.286,-243 611.286,-243"/>
<polygon fill="#000000" stroke="#000000" points="611.286,-246.5001 621.286,-243 611.286,-239.5001 611.286,-246.5001"/>
</g>
</g>
</svg>
