<?xml version="1.0" encoding="UTF-8" standalone="no"?>
<!DOCTYPE svg PUBLIC "-//W3C//DTD SVG 1.1//EN"
 "http://www.w3.org/Graphics/SVG/1.1/DTD/svg11.dtd">
<!-- Generated by graphviz version 2.40.1 (20161225.0304)
 -->
<!-- Title: dependencies Pages: 1 -->
<svg width="1246pt" height="349pt"
 viewBox="0.00 0.00 1246.00 349.00" xmlns="http://www.w3.org/2000/svg" xmlns:xlink="http://www.w3.org/1999/xlink">
<g id="graph0" class="graph" transform="scale(1 1) rotate(0) translate(4 345)">
<title>dependencies</title>
<polygon fill="#ffffff" stroke="transparent" points="-4,4 -4,-345 1242,-345 1242,4 -4,4"/>
<text text-anchor="start" x="598.0091" y="-42.4" font-family="sans-serif" font-weight="bold" font-size="14.00" fill="#000000">Legend</text>
<polygon fill="#ffffb3" stroke="transparent" points="385,-10 385,-30 405,-30 405,-10 385,-10"/>
<text text-anchor="start" x="408.629" y="-15.4" font-family="sans-serif" font-size="14.00" fill="#000000"> &#160;Declarations</text>
<polygon fill="#8dd3c7" stroke="transparent" points="498,-10 498,-30 518,-30 518,-10 498,-10"/>
<text text-anchor="start" x="521.7251" y="-15.4" font-family="sans-serif" font-size="14.00" fill="#000000"> &#160;Module</text>
<polygon fill="#80b1d3" stroke="transparent" points="584,-10 584,-30 604,-30 604,-10 584,-10"/>
<text text-anchor="start" x="607.7812" y="-15.4" font-family="sans-serif" font-size="14.00" fill="#000000"> &#160;Bootstrap</text>
<polygon fill="#fdb462" stroke="transparent" points="681,-10 681,-30 701,-30 701,-10 681,-10"/>
<text text-anchor="start" x="704.6732" y="-15.4" font-family="sans-serif" font-size="14.00" fill="#000000"> &#160;Providers</text>
<polygon fill="#fb8072" stroke="transparent" points="777,-10 777,-30 797,-30 797,-10 777,-10"/>
<text text-anchor="start" x="800.7258" y="-15.4" font-family="sans-serif" font-size="14.00" fill="#000000"> &#160;Exports</text>
<g id="clust1" class="cluster">
<title>cluster_AppModule</title>
<polygon fill="none" stroke="#000000" stroke-dasharray="1,5" points="8,-70 8,-333 1230,-333 1230,-70 8,-70"/>
</g>
<g id="clust2" class="cluster">
<title>cluster_AppModule_declarations</title>
<polygon fill="none" stroke="#000000" points="897,-143 897,-195 1210,-195 1210,-143 897,-143"/>
</g>
<g id="clust3" class="cluster">
<title>cluster_AppModule_AppComponent_providers</title>
<polygon fill="none" stroke="#000000" points="1070,-78 1070,-130 1222,-130 1222,-78 1070,-78"/>
</g>
<g id="clust5" class="cluster">
<title>cluster_AppModule_imports</title>
<polygon fill="none" stroke="#000000" points="619,-143 619,-195 889,-195 889,-143 619,-143"/>
</g>
<g id="clust7" class="cluster">
<title>cluster_AppModule_bootstrap</title>
<polygon fill="none" stroke="#000000" points="682,-273 682,-325 806,-325 806,-273 682,-273"/>
</g>
<g id="clust8" class="cluster">
<title>cluster_AppModule_providers</title>
<polygon fill="none" stroke="#000000" points="16,-143 16,-195 611,-195 611,-143 16,-143"/>
</g>
<!-- AppComponent -->
<g id="node1" class="node">
<title>AppComponent</title>
<polygon fill="#ffffb3" stroke="#000000" points="1201.9399,-187 1096.0601,-187 1096.0601,-151 1201.9399,-151 1201.9399,-187"/>
<text text-anchor="middle" x="1149" y="-164.8" font-family="Times,serif" font-size="14.00" fill="#000000">AppComponent</text>
</g>
<!-- AppModule -->
<g id="node3" class="node">
<title>AppModule</title>
<polygon fill="#8dd3c7" stroke="#000000" points="785.6571,-252 782.6571,-256 761.6571,-256 758.6571,-252 702.3429,-252 702.3429,-216 785.6571,-216 785.6571,-252"/>
<text text-anchor="middle" x="744" y="-229.8" font-family="Times,serif" font-size="14.00" fill="#000000">AppModule</text>
</g>
<!-- AppComponent&#45;&gt;AppModule -->
<g id="edge1" class="edge">
<title>AppComponent&#45;&gt;AppModule</title>
<path fill="none" stroke="#000000" d="M1149,-187.2921C1149,-209.2057 1149,-243 1149,-243 1149,-243 795.8167,-243 795.8167,-243"/>
<polygon fill="#000000" stroke="#000000" points="795.8167,-239.5001 785.8167,-243 795.8167,-246.5001 795.8167,-239.5001"/>
</g>
<!-- UnauthenticatedComponent -->
<g id="node2" class="node">
<title>UnauthenticatedComponent</title>
<polygon fill="#ffffb3" stroke="#000000" points="1078.5744,-187 905.4256,-187 905.4256,-151 1078.5744,-151 1078.5744,-187"/>
<text text-anchor="middle" x="992" y="-164.8" font-family="Times,serif" font-size="14.00" fill="#000000">UnauthenticatedComponent</text>
</g>
<!-- UnauthenticatedComponent&#45;&gt;AppModule -->
<g id="edge3" class="edge">
<title>UnauthenticatedComponent&#45;&gt;AppModule</title>
<path fill="none" stroke="#000000" d="M992,-187.027C992,-203.3976 992,-225 992,-225 992,-225 795.7894,-225 795.7894,-225"/>
<polygon fill="#000000" stroke="#000000" points="795.7894,-221.5001 785.7894,-225 795.7893,-228.5001 795.7894,-221.5001"/>
</g>
<!-- AppComponent  -->
<g id="node7" class="node">
<title>AppComponent </title>
<polygon fill="#80b1d3" stroke="#000000" points="798.439,-317 689.561,-317 689.561,-281 798.439,-281 798.439,-317"/>
<text text-anchor="middle" x="744" y="-294.8" font-family="Times,serif" font-size="14.00" fill="#000000">AppComponent </text>
</g>
<!-- AppModule&#45;&gt;AppComponent  -->
<g id="edge6" class="edge">
<title>AppModule&#45;&gt;AppComponent </title>
<path fill="none" stroke="#000000" stroke-dasharray="1,5" d="M744,-252.1061C744,-252.1061 744,-270.991 744,-270.991"/>
<polygon fill="#000000" stroke="#000000" points="740.5001,-270.9909 744,-280.991 747.5001,-270.991 740.5001,-270.9909"/>
</g>
<!-- GoogleService -->
<g id="node4" class="node">
<title>GoogleService</title>
<ellipse fill="#fdb462" stroke="#000000" cx="1146" cy="-104" rx="68.3382" ry="18"/>
<text text-anchor="middle" x="1146" y="-99.8" font-family="Times,serif" font-size="14.00" fill="#000000">GoogleService</text>
</g>
<!-- GoogleService&#45;&gt;AppComponent -->
<g id="edge2" class="edge">
<title>GoogleService&#45;&gt;AppComponent</title>
<path fill="none" stroke="#000000" d="M1149,-122.1061C1149,-122.1061 1149,-140.991 1149,-140.991"/>
<polygon fill="#000000" stroke="#000000" points="1145.5001,-140.9909 1149,-150.991 1152.5001,-140.991 1145.5001,-140.9909"/>
</g>
<!-- GoogleService&#45;&gt;AppModule -->
<g id="edge9" class="edge">
<title>GoogleService&#45;&gt;AppModule</title>
<path fill="none" stroke="#000000" d="M1087.4089,-113.3493C1087.4089,-143.1571 1087.4089,-234 1087.4089,-234 1087.4089,-234 795.7653,-234 795.7653,-234"/>
<polygon fill="#000000" stroke="#000000" points="795.7654,-230.5001 785.7653,-234 795.7653,-237.5001 795.7654,-230.5001"/>
</g>
<!-- AuthenticatedModule -->
<g id="node5" class="node">
<title>AuthenticatedModule</title>
<polygon fill="#8dd3c7" stroke="#000000" points="881.0772,-187 878.0772,-191 857.0772,-191 854.0772,-187 742.9228,-187 742.9228,-151 881.0772,-151 881.0772,-187"/>
<text text-anchor="middle" x="812" y="-164.8" font-family="Times,serif" font-size="14.00" fill="#000000">AuthenticatedModule</text>
</g>
<!-- AuthenticatedModule&#45;&gt;AppModule -->
<g id="edge4" class="edge">
<title>AuthenticatedModule&#45;&gt;AppModule</title>
<path fill="none" stroke="#000000" d="M764.3948,-187.1061C764.3948,-187.1061 764.3948,-205.991 764.3948,-205.991"/>
<polygon fill="#000000" stroke="#000000" points="760.8949,-205.9909 764.3948,-215.991 767.8949,-205.991 760.8949,-205.9909"/>
</g>
<!-- ConfigModule -->
<g id="node6" class="node">
<title>ConfigModule</title>
<polygon fill="#8dd3c7" stroke="#000000" points="725.4386,-187 722.4386,-191 701.4386,-191 698.4386,-187 626.5614,-187 626.5614,-151 725.4386,-151 725.4386,-187"/>
<text text-anchor="middle" x="676" y="-164.8" font-family="Times,serif" font-size="14.00" fill="#000000">ConfigModule</text>
</g>
<!-- ConfigModule&#45;&gt;AppModule -->
<g id="edge5" class="edge">
<title>ConfigModule&#45;&gt;AppModule</title>
<path fill="none" stroke="#000000" d="M713.6953,-187.1061C713.6953,-187.1061 713.6953,-205.991 713.6953,-205.991"/>
<polygon fill="#000000" stroke="#000000" points="710.1954,-205.9909 713.6953,-215.991 717.1954,-205.991 710.1954,-205.9909"/>
</g>
<!-- AuthGuardService -->
<g id="node8" class="node">
<title>AuthGuardService</title>
<ellipse fill="#fdb462" stroke="#000000" cx="520" cy="-169" rx="83.3674" ry="18"/>
<text text-anchor="middle" x="520" y="-164.8" font-family="Times,serif" font-size="14.00" fill="#000000">AuthGuardService</text>
</g>
<!-- AuthGuardService&#45;&gt;AppModule -->
<g id="edge7" class="edge">
<title>AuthGuardService&#45;&gt;AppModule</title>
<path fill="none" stroke="#000000" d="M520,-187.027C520,-203.3976 520,-225 520,-225 520,-225 692.1301,-225 692.1301,-225"/>
<polygon fill="#000000" stroke="#000000" points="692.1301,-228.5001 702.1301,-225 692.13,-221.5001 692.1301,-228.5001"/>
</g>
<!-- DatabaseService -->
<g id="node9" class="node">
<title>DatabaseService</title>
<ellipse fill="#fdb462" stroke="#000000" cx="343" cy="-169" rx="75.2559" ry="18"/>
<text text-anchor="middle" x="343" y="-164.8" font-family="Times,serif" font-size="14.00" fill="#000000">DatabaseService</text>
</g>
<!-- DatabaseService&#45;&gt;AppModule -->
<g id="edge8" class="edge">
<title>DatabaseService&#45;&gt;AppModule</title>
<path fill="none" stroke="#000000" d="M343,-187.1061C343,-206.3391 343,-234 343,-234 343,-234 692.2208,-234 692.2208,-234"/>
<polygon fill="#000000" stroke="#000000" points="692.2208,-237.5001 702.2208,-234 692.2207,-230.5001 692.2208,-237.5001"/>
</g>
<!-- PreventAuthGuardService -->
<g id="node10" class="node">
<title>PreventAuthGuardService</title>
<ellipse fill="#fdb462" stroke="#000000" cx="137" cy="-169" rx="112.8616" ry="18"/>
<text text-anchor="middle" x="137" y="-164.8" font-family="Times,serif" font-size="14.00" fill="#000000">PreventAuthGuardService</text>
</g>
<!-- PreventAuthGuardService&#45;&gt;AppModule -->
<g id="edge10" class="edge">
<title>PreventAuthGuardService&#45;&gt;AppModule</title>
<path fill="none" stroke="#000000" d="M137,-187.2921C137,-209.2057 137,-243 137,-243 137,-243 692.2784,-243 692.2784,-243"/>
<polygon fill="#000000" stroke="#000000" points="692.2785,-246.5001 702.2784,-243 692.2784,-239.5001 692.2785,-246.5001"/>
</g>
</g>
</svg>
