<?xml version="1.0" encoding="UTF-8" standalone="no"?>
<!DOCTYPE svg PUBLIC "-//W3C//DTD SVG 1.1//EN"
 "http://www.w3.org/Graphics/SVG/1.1/DTD/svg11.dtd">
<!-- Generated by graphviz version 2.40.1 (20161225.0304)
 -->
<!-- Title: dependencies Pages: 1 -->
<svg width="1389pt" height="284pt"
 viewBox="0.00 0.00 1389.00 284.00" xmlns="http://www.w3.org/2000/svg" xmlns:xlink="http://www.w3.org/1999/xlink">
<g id="graph0" class="graph" transform="scale(1 1) rotate(0) translate(4 280)">
<title>dependencies</title>
<polygon fill="#ffffff" stroke="transparent" points="-4,4 -4,-280 1385,-280 1385,4 -4,4"/>
<text text-anchor="start" x="669.5091" y="-42.4" font-family="sans-serif" font-weight="bold" font-size="14.00" fill="#000000">Legend</text>
<polygon fill="#ffffb3" stroke="transparent" points="456.5,-10 456.5,-30 476.5,-30 476.5,-10 456.5,-10"/>
<text text-anchor="start" x="480.129" y="-15.4" font-family="sans-serif" font-size="14.00" fill="#000000"> &#160;Declarations</text>
<polygon fill="#8dd3c7" stroke="transparent" points="569.5,-10 569.5,-30 589.5,-30 589.5,-10 569.5,-10"/>
<text text-anchor="start" x="593.2251" y="-15.4" font-family="sans-serif" font-size="14.00" fill="#000000"> &#160;Module</text>
<polygon fill="#80b1d3" stroke="transparent" points="655.5,-10 655.5,-30 675.5,-30 675.5,-10 655.5,-10"/>
<text text-anchor="start" x="679.2812" y="-15.4" font-family="sans-serif" font-size="14.00" fill="#000000"> &#160;Bootstrap</text>
<polygon fill="#fdb462" stroke="transparent" points="752.5,-10 752.5,-30 772.5,-30 772.5,-10 752.5,-10"/>
<text text-anchor="start" x="776.1732" y="-15.4" font-family="sans-serif" font-size="14.00" fill="#000000"> &#160;Providers</text>
<polygon fill="#fb8072" stroke="transparent" points="848.5,-10 848.5,-30 868.5,-30 868.5,-10 848.5,-10"/>
<text text-anchor="start" x="872.2258" y="-15.4" font-family="sans-serif" font-size="14.00" fill="#000000"> &#160;Exports</text>
<g id="clust1" class="cluster">
<title>cluster_AppModule</title>
<polygon fill="none" stroke="#000000" stroke-dasharray="1,5" points="8,-70 8,-268 1373,-268 1373,-70 8,-70"/>
</g>
<g id="clust2" class="cluster">
<title>cluster_AppModule_declarations</title>
<polygon fill="none" stroke="#000000" points="1052,-78 1052,-130 1365,-130 1365,-78 1052,-78"/>
</g>
<g id="clust5" class="cluster">
<title>cluster_AppModule_imports</title>
<polygon fill="none" stroke="#000000" points="774,-78 774,-130 1044,-130 1044,-78 774,-78"/>
</g>
<g id="clust7" class="cluster">
<title>cluster_AppModule_bootstrap</title>
<polygon fill="none" stroke="#000000" points="691,-208 691,-260 815,-260 815,-208 691,-208"/>
</g>
<g id="clust8" class="cluster">
<title>cluster_AppModule_providers</title>
<polygon fill="none" stroke="#000000" points="16,-78 16,-130 766,-130 766,-78 16,-78"/>
</g>
<!-- AppComponent -->
<g id="node1" class="node">
<title>AppComponent</title>
<polygon fill="#ffffb3" stroke="#000000" points="1356.9399,-122 1251.0601,-122 1251.0601,-86 1356.9399,-86 1356.9399,-122"/>
<text text-anchor="middle" x="1304" y="-99.8" font-family="Times,serif" font-size="14.00" fill="#000000">AppComponent</text>
</g>
<!-- AppModule -->
<g id="node3" class="node">
<title>AppModule</title>
<polygon fill="#8dd3c7" stroke="#000000" points="794.6571,-187 791.6571,-191 770.6571,-191 767.6571,-187 711.3429,-187 711.3429,-151 794.6571,-151 794.6571,-187"/>
<text text-anchor="middle" x="753" y="-164.8" font-family="Times,serif" font-size="14.00" fill="#000000">AppModule</text>
</g>
<!-- AppComponent&#45;&gt;AppModule -->
<g id="edge1" class="edge">
<title>AppComponent&#45;&gt;AppModule</title>
<path fill="none" stroke="#000000" d="M1304,-122.2921C1304,-144.2057 1304,-178 1304,-178 1304,-178 804.8668,-178 804.8668,-178"/>
<polygon fill="#000000" stroke="#000000" points="804.8668,-174.5001 794.8668,-178 804.8668,-181.5001 804.8668,-174.5001"/>
</g>
<!-- UnauthenticatedComponent -->
<g id="node2" class="node">
<title>UnauthenticatedComponent</title>
<polygon fill="#ffffb3" stroke="#000000" points="1233.5744,-122 1060.4256,-122 1060.4256,-86 1233.5744,-86 1233.5744,-122"/>
<text text-anchor="middle" x="1147" y="-99.8" font-family="Times,serif" font-size="14.00" fill="#000000">UnauthenticatedComponent</text>
</g>
<!-- UnauthenticatedComponent&#45;&gt;AppModule -->
<g id="edge2" class="edge">
<title>UnauthenticatedComponent&#45;&gt;AppModule</title>
<path fill="none" stroke="#000000" d="M1147,-122.1061C1147,-141.3391 1147,-169 1147,-169 1147,-169 804.7919,-169 804.7919,-169"/>
<polygon fill="#000000" stroke="#000000" points="804.7919,-165.5001 794.7919,-169 804.7919,-172.5001 804.7919,-165.5001"/>
</g>
<!-- AppComponent  -->
<g id="node6" class="node">
<title>AppComponent </title>
<polygon fill="#80b1d3" stroke="#000000" points="807.439,-252 698.561,-252 698.561,-216 807.439,-216 807.439,-252"/>
<text text-anchor="middle" x="753" y="-229.8" font-family="Times,serif" font-size="14.00" fill="#000000">AppComponent </text>
</g>
<!-- AppModule&#45;&gt;AppComponent  -->
<g id="edge5" class="edge">
<title>AppModule&#45;&gt;AppComponent </title>
<path fill="none" stroke="#000000" stroke-dasharray="1,5" d="M753,-187.1061C753,-187.1061 753,-205.991 753,-205.991"/>
<polygon fill="#000000" stroke="#000000" points="749.5001,-205.9909 753,-215.991 756.5001,-205.991 749.5001,-205.9909"/>
</g>
<!-- AuthenticatedModule -->
<g id="node4" class="node">
<title>AuthenticatedModule</title>
<polygon fill="#8dd3c7" stroke="#000000" points="1036.0772,-122 1033.0772,-126 1012.0772,-126 1009.0772,-122 897.9228,-122 897.9228,-86 1036.0772,-86 1036.0772,-122"/>
<text text-anchor="middle" x="967" y="-99.8" font-family="Times,serif" font-size="14.00" fill="#000000">AuthenticatedModule</text>
</g>
<!-- AuthenticatedModule&#45;&gt;AppModule -->
<g id="edge3" class="edge">
<title>AuthenticatedModule&#45;&gt;AppModule</title>
<path fill="none" stroke="#000000" d="M967,-122.027C967,-138.3976 967,-160 967,-160 967,-160 804.7694,-160 804.7694,-160"/>
<polygon fill="#000000" stroke="#000000" points="804.7694,-156.5001 794.7694,-160 804.7693,-163.5001 804.7694,-156.5001"/>
</g>
<!-- ConfigModule -->
<g id="node5" class="node">
<title>ConfigModule</title>
<polygon fill="#8dd3c7" stroke="#000000" points="880.4386,-122 877.4386,-126 856.4386,-126 853.4386,-122 781.5614,-122 781.5614,-86 880.4386,-86 880.4386,-122"/>
<text text-anchor="middle" x="831" y="-99.8" font-family="Times,serif" font-size="14.00" fill="#000000">ConfigModule</text>
</g>
<!-- ConfigModule&#45;&gt;AppModule -->
<g id="edge4" class="edge">
<title>ConfigModule&#45;&gt;AppModule</title>
<path fill="none" stroke="#000000" d="M788.3047,-122.1061C788.3047,-122.1061 788.3047,-140.991 788.3047,-140.991"/>
<polygon fill="#000000" stroke="#000000" points="784.8048,-140.9909 788.3047,-150.991 791.8048,-140.991 784.8048,-140.9909"/>
</g>
<!-- AuthGuardService -->
<g id="node7" class="node">
<title>AuthGuardService</title>
<ellipse fill="#fdb462" stroke="#000000" cx="675" cy="-104" rx="83.3674" ry="18"/>
<text text-anchor="middle" x="675" y="-99.8" font-family="Times,serif" font-size="14.00" fill="#000000">AuthGuardService</text>
</g>
<!-- AuthGuardService&#45;&gt;AppModule -->
<g id="edge6" class="edge">
<title>AuthGuardService&#45;&gt;AppModule</title>
<path fill="none" stroke="#000000" d="M734.8027,-116.8419C734.8027,-116.8419 734.8027,-140.5231 734.8027,-140.5231"/>
<polygon fill="#000000" stroke="#000000" points="731.3028,-140.523 734.8027,-150.5231 738.3028,-140.5231 731.3028,-140.523"/>
</g>
<!-- DatabaseService -->
<g id="node8" class="node">
<title>DatabaseService</title>
<ellipse fill="#fdb462" stroke="#000000" cx="498" cy="-104" rx="75.2559" ry="18"/>
<text text-anchor="middle" x="498" y="-99.8" font-family="Times,serif" font-size="14.00" fill="#000000">DatabaseService</text>
</g>
<!-- DatabaseService&#45;&gt;AppModule -->
<g id="edge7" class="edge">
<title>DatabaseService&#45;&gt;AppModule</title>
<path fill="none" stroke="#000000" d="M498,-122.027C498,-138.3976 498,-160 498,-160 498,-160 701.1775,-160 701.1775,-160"/>
<polygon fill="#000000" stroke="#000000" points="701.1775,-163.5001 711.1775,-160 701.1774,-156.5001 701.1775,-163.5001"/>
</g>
<!-- GoogleService -->
<g id="node9" class="node">
<title>GoogleService</title>
<ellipse fill="#fdb462" stroke="#000000" cx="336" cy="-104" rx="68.3382" ry="18"/>
<text text-anchor="middle" x="336" y="-99.8" font-family="Times,serif" font-size="14.00" fill="#000000">GoogleService</text>
</g>
<!-- GoogleService&#45;&gt;AppModule -->
<g id="edge8" class="edge">
<title>GoogleService&#45;&gt;AppModule</title>
<path fill="none" stroke="#000000" d="M336,-122.1061C336,-141.3391 336,-169 336,-169 336,-169 701.1072,-169 701.1072,-169"/>
<polygon fill="#000000" stroke="#000000" points="701.1072,-172.5001 711.1072,-169 701.1071,-165.5001 701.1072,-172.5001"/>
</g>
<!-- PreventAuthGuardService -->
<g id="node10" class="node">
<title>PreventAuthGuardService</title>
<ellipse fill="#fdb462" stroke="#000000" cx="137" cy="-104" rx="112.8616" ry="18"/>
<text text-anchor="middle" x="137" y="-99.8" font-family="Times,serif" font-size="14.00" fill="#000000">PreventAuthGuardService</text>
</g>
<!-- PreventAuthGuardService&#45;&gt;AppModule -->
<g id="edge9" class="edge">
<title>PreventAuthGuardService&#45;&gt;AppModule</title>
<path fill="none" stroke="#000000" d="M137,-122.2921C137,-144.2057 137,-178 137,-178 137,-178 701.1441,-178 701.1441,-178"/>
<polygon fill="#000000" stroke="#000000" points="701.1441,-181.5001 711.1441,-178 701.1441,-174.5001 701.1441,-181.5001"/>
</g>
</g>
</svg>
