<?xml version="1.0" encoding="UTF-8" standalone="no"?>
<!DOCTYPE svg PUBLIC "-//W3C//DTD SVG 1.1//EN"
 "http://www.w3.org/Graphics/SVG/1.1/DTD/svg11.dtd">
<!-- Generated by graphviz version 2.40.1 (20161225.0304)
 -->
<!-- Title: dependencies Pages: 1 -->
<svg width="983pt" height="211pt"
 viewBox="0.00 0.00 983.00 211.00" xmlns="http://www.w3.org/2000/svg" xmlns:xlink="http://www.w3.org/1999/xlink">
<g id="graph0" class="graph" transform="scale(1 1) rotate(0) translate(4 207)">
<title>dependencies</title>
<polygon fill="#ffffff" stroke="transparent" points="-4,4 -4,-207 979,-207 979,4 -4,4"/>
<text text-anchor="start" x="466.5091" y="-42.4" font-family="sans-serif" font-weight="bold" font-size="14.00" fill="#000000">Legend</text>
<polygon fill="#ffffb3" stroke="transparent" points="253.5,-10 253.5,-30 273.5,-30 273.5,-10 253.5,-10"/>
<text text-anchor="start" x="277.129" y="-15.4" font-family="sans-serif" font-size="14.00" fill="#000000"> &#160;Declarations</text>
<polygon fill="#8dd3c7" stroke="transparent" points="366.5,-10 366.5,-30 386.5,-30 386.5,-10 366.5,-10"/>
<text text-anchor="start" x="390.2251" y="-15.4" font-family="sans-serif" font-size="14.00" fill="#000000"> &#160;Module</text>
<polygon fill="#80b1d3" stroke="transparent" points="452.5,-10 452.5,-30 472.5,-30 472.5,-10 452.5,-10"/>
<text text-anchor="start" x="476.2812" y="-15.4" font-family="sans-serif" font-size="14.00" fill="#000000"> &#160;Bootstrap</text>
<polygon fill="#fdb462" stroke="transparent" points="549.5,-10 549.5,-30 569.5,-30 569.5,-10 549.5,-10"/>
<text text-anchor="start" x="573.1732" y="-15.4" font-family="sans-serif" font-size="14.00" fill="#000000"> &#160;Providers</text>
<polygon fill="#fb8072" stroke="transparent" points="645.5,-10 645.5,-30 665.5,-30 665.5,-10 645.5,-10"/>
<text text-anchor="start" x="669.2258" y="-15.4" font-family="sans-serif" font-size="14.00" fill="#000000"> &#160;Exports</text>
<g id="clust1" class="cluster">
<title>cluster_AuthenticatedModule</title>
<polygon fill="none" stroke="#000000" stroke-dasharray="1,5" points="8,-70 8,-195 967,-195 967,-70 8,-70"/>
</g>
<g id="clust2" class="cluster">
<title>cluster_AuthenticatedModule_declarations</title>
<polygon fill="none" stroke="#000000" points="16,-78 16,-130 959,-130 959,-78 16,-78"/>
</g>
<!-- HomeComponent -->
<g id="node1" class="node">
<title>HomeComponent</title>
<polygon fill="#ffffb3" stroke="#000000" points="950.5451,-122 835.4549,-122 835.4549,-86 950.5451,-86 950.5451,-122"/>
<text text-anchor="middle" x="893" y="-99.8" font-family="Times,serif" font-size="14.00" fill="#000000">HomeComponent</text>
</g>
<!-- AuthenticatedModule -->
<g id="node7" class="node">
<title>AuthenticatedModule</title>
<polygon fill="#8dd3c7" stroke="#000000" points="609.0772,-187 606.0772,-191 585.0772,-191 582.0772,-187 470.9228,-187 470.9228,-151 609.0772,-151 609.0772,-187"/>
<text text-anchor="middle" x="540" y="-164.8" font-family="Times,serif" font-size="14.00" fill="#000000">AuthenticatedModule</text>
</g>
<!-- HomeComponent&#45;&gt;AuthenticatedModule -->
<g id="edge1" class="edge">
<title>HomeComponent&#45;&gt;AuthenticatedModule</title>
<path fill="none" stroke="#000000" d="M893,-122.2843C893,-143.3211 893,-175 893,-175 893,-175 619.3203,-175 619.3203,-175"/>
<polygon fill="#000000" stroke="#000000" points="619.3203,-171.5001 609.3203,-175 619.3202,-178.5001 619.3203,-171.5001"/>
</g>
<!-- ConfigComponent -->
<g id="node2" class="node">
<title>ConfigComponent</title>
<polygon fill="#ffffb3" stroke="#000000" points="817.2204,-122 696.7796,-122 696.7796,-86 817.2204,-86 817.2204,-122"/>
<text text-anchor="middle" x="757" y="-99.8" font-family="Times,serif" font-size="14.00" fill="#000000">ConfigComponent</text>
</g>
<!-- ConfigComponent&#45;&gt;AuthenticatedModule -->
<g id="edge2" class="edge">
<title>ConfigComponent&#45;&gt;AuthenticatedModule</title>
<path fill="none" stroke="#000000" d="M757,-122.0225C757,-139.3734 757,-163 757,-163 757,-163 619.2568,-163 619.2568,-163"/>
<polygon fill="#000000" stroke="#000000" points="619.2568,-159.5001 609.2568,-163 619.2567,-166.5001 619.2568,-159.5001"/>
</g>
<!-- SettingsComponent -->
<g id="node3" class="node">
<title>SettingsComponent</title>
<polygon fill="#ffffb3" stroke="#000000" points="679.4468,-122 552.5532,-122 552.5532,-86 679.4468,-86 679.4468,-122"/>
<text text-anchor="middle" x="616" y="-99.8" font-family="Times,serif" font-size="14.00" fill="#000000">SettingsComponent</text>
</g>
<!-- SettingsComponent&#45;&gt;AuthenticatedModule -->
<g id="edge3" class="edge">
<title>SettingsComponent&#45;&gt;AuthenticatedModule</title>
<path fill="none" stroke="#000000" d="M580.9078,-122.1061C580.9078,-122.1061 580.9078,-140.991 580.9078,-140.991"/>
<polygon fill="#000000" stroke="#000000" points="577.4079,-140.9909 580.9078,-150.991 584.4079,-140.991 577.4079,-140.9909"/>
</g>
<!-- ConfigListComponent -->
<g id="node4" class="node">
<title>ConfigListComponent</title>
<polygon fill="#ffffb3" stroke="#000000" points="534.9986,-122 393.0014,-122 393.0014,-86 534.9986,-86 534.9986,-122"/>
<text text-anchor="middle" x="464" y="-99.8" font-family="Times,serif" font-size="14.00" fill="#000000">ConfigListComponent</text>
</g>
<!-- ConfigListComponent&#45;&gt;AuthenticatedModule -->
<g id="edge4" class="edge">
<title>ConfigListComponent&#45;&gt;AuthenticatedModule</title>
<path fill="none" stroke="#000000" d="M502.9804,-122.1061C502.9804,-122.1061 502.9804,-140.991 502.9804,-140.991"/>
<polygon fill="#000000" stroke="#000000" points="499.4804,-140.9909 502.9804,-150.991 506.4804,-140.991 499.4804,-140.9909"/>
</g>
<!-- ConfigModalComponent -->
<g id="node5" class="node">
<title>ConfigModalComponent</title>
<polygon fill="#ffffb3" stroke="#000000" points="375.2702,-122 218.7298,-122 218.7298,-86 375.2702,-86 375.2702,-122"/>
<text text-anchor="middle" x="297" y="-99.8" font-family="Times,serif" font-size="14.00" fill="#000000">ConfigModalComponent</text>
</g>
<!-- ConfigModalComponent&#45;&gt;AuthenticatedModule -->
<g id="edge5" class="edge">
<title>ConfigModalComponent&#45;&gt;AuthenticatedModule</title>
<path fill="none" stroke="#000000" d="M297,-122.0225C297,-139.3734 297,-163 297,-163 297,-163 460.6912,-163 460.6912,-163"/>
<polygon fill="#000000" stroke="#000000" points="460.6912,-166.5001 470.6912,-163 460.6911,-159.5001 460.6912,-166.5001"/>
</g>
<!-- NewRuleStepperComponent -->
<g id="node6" class="node">
<title>NewRuleStepperComponent</title>
<polygon fill="#ffffb3" stroke="#000000" points="200.465,-122 23.535,-122 23.535,-86 200.465,-86 200.465,-122"/>
<text text-anchor="middle" x="112" y="-99.8" font-family="Times,serif" font-size="14.00" fill="#000000">NewRuleStepperComponent</text>
</g>
<!-- NewRuleStepperComponent&#45;&gt;AuthenticatedModule -->
<g id="edge6" class="edge">
<title>NewRuleStepperComponent&#45;&gt;AuthenticatedModule</title>
<path fill="none" stroke="#000000" d="M112,-122.2843C112,-143.3211 112,-175 112,-175 112,-175 460.7587,-175 460.7587,-175"/>
<polygon fill="#000000" stroke="#000000" points="460.7588,-178.5001 470.7587,-175 460.7587,-171.5001 460.7588,-178.5001"/>
</g>
</g>
</svg>
