<?xml version="1.0" encoding="UTF-8" standalone="no"?>
<!DOCTYPE svg PUBLIC "-//W3C//DTD SVG 1.1//EN"
 "http://www.w3.org/Graphics/SVG/1.1/DTD/svg11.dtd">
<!-- Generated by graphviz version 2.40.1 (20161225.0304)
 -->
<!-- Title: dependencies Pages: 1 -->
<svg width="1162pt" height="211pt"
 viewBox="0.00 0.00 1162.00 211.00" xmlns="http://www.w3.org/2000/svg" xmlns:xlink="http://www.w3.org/1999/xlink">
<g id="graph0" class="graph" transform="scale(1 1) rotate(0) translate(4 207)">
<title>dependencies</title>
<polygon fill="#ffffff" stroke="transparent" points="-4,4 -4,-207 1158,-207 1158,4 -4,4"/>
<text text-anchor="start" x="556.0091" y="-42.4" font-family="sans-serif" font-weight="bold" font-size="14.00" fill="#000000">Legend</text>
<polygon fill="#ffffb3" stroke="transparent" points="343,-10 343,-30 363,-30 363,-10 343,-10"/>
<text text-anchor="start" x="366.629" y="-15.4" font-family="sans-serif" font-size="14.00" fill="#000000"> &#160;Declarations</text>
<polygon fill="#8dd3c7" stroke="transparent" points="456,-10 456,-30 476,-30 476,-10 456,-10"/>
<text text-anchor="start" x="479.7251" y="-15.4" font-family="sans-serif" font-size="14.00" fill="#000000"> &#160;Module</text>
<polygon fill="#80b1d3" stroke="transparent" points="542,-10 542,-30 562,-30 562,-10 542,-10"/>
<text text-anchor="start" x="565.7812" y="-15.4" font-family="sans-serif" font-size="14.00" fill="#000000"> &#160;Bootstrap</text>
<polygon fill="#fdb462" stroke="transparent" points="639,-10 639,-30 659,-30 659,-10 639,-10"/>
<text text-anchor="start" x="662.6732" y="-15.4" font-family="sans-serif" font-size="14.00" fill="#000000"> &#160;Providers</text>
<polygon fill="#fb8072" stroke="transparent" points="735,-10 735,-30 755,-30 755,-10 735,-10"/>
<text text-anchor="start" x="758.7258" y="-15.4" font-family="sans-serif" font-size="14.00" fill="#000000"> &#160;Exports</text>
<g id="clust1" class="cluster">
<title>cluster_AuthenticatedModule</title>
<polygon fill="none" stroke="#000000" stroke-dasharray="1,5" points="8,-70 8,-195 1146,-195 1146,-70 8,-70"/>
</g>
<g id="clust2" class="cluster">
<title>cluster_AuthenticatedModule_declarations</title>
<polygon fill="none" stroke="#000000" points="16,-78 16,-130 1138,-130 1138,-78 16,-78"/>
</g>
<!-- HomeComponent -->
<g id="node1" class="node">
<title>HomeComponent</title>
<polygon fill="#ffffb3" stroke="#000000" points="1129.5451,-122 1014.4549,-122 1014.4549,-86 1129.5451,-86 1129.5451,-122"/>
<text text-anchor="middle" x="1072" y="-99.8" font-family="Times,serif" font-size="14.00" fill="#000000">HomeComponent</text>
</g>
<!-- AuthenticatedModule -->
<g id="node8" class="node">
<title>AuthenticatedModule</title>
<polygon fill="#8dd3c7" stroke="#000000" points="712.0772,-187 709.0772,-191 688.0772,-191 685.0772,-187 573.9228,-187 573.9228,-151 712.0772,-151 712.0772,-187"/>
<text text-anchor="middle" x="643" y="-164.8" font-family="Times,serif" font-size="14.00" fill="#000000">AuthenticatedModule</text>
</g>
<!-- HomeComponent&#45;&gt;AuthenticatedModule -->
<g id="edge1" class="edge">
<title>HomeComponent&#45;&gt;AuthenticatedModule</title>
<path fill="none" stroke="#000000" d="M1072,-122.2921C1072,-144.2057 1072,-178 1072,-178 1072,-178 722.4031,-178 722.4031,-178"/>
<polygon fill="#000000" stroke="#000000" points="722.4031,-174.5001 712.4031,-178 722.403,-181.5001 722.4031,-174.5001"/>
</g>
<!-- ConfigComponent -->
<g id="node2" class="node">
<title>ConfigComponent</title>
<polygon fill="#ffffb3" stroke="#000000" points="996.2204,-122 875.7796,-122 875.7796,-86 996.2204,-86 996.2204,-122"/>
<text text-anchor="middle" x="936" y="-99.8" font-family="Times,serif" font-size="14.00" fill="#000000">ConfigComponent</text>
</g>
<!-- ConfigComponent&#45;&gt;AuthenticatedModule -->
<g id="edge2" class="edge">
<title>ConfigComponent&#45;&gt;AuthenticatedModule</title>
<path fill="none" stroke="#000000" d="M936,-122.1061C936,-141.3391 936,-169 936,-169 936,-169 722.0659,-169 722.0659,-169"/>
<polygon fill="#000000" stroke="#000000" points="722.0659,-165.5001 712.0659,-169 722.0659,-172.5001 722.0659,-165.5001"/>
</g>
<!-- SettingsComponent -->
<g id="node3" class="node">
<title>SettingsComponent</title>
<polygon fill="#ffffb3" stroke="#000000" points="858.4468,-122 731.5532,-122 731.5532,-86 858.4468,-86 858.4468,-122"/>
<text text-anchor="middle" x="795" y="-99.8" font-family="Times,serif" font-size="14.00" fill="#000000">SettingsComponent</text>
</g>
<!-- SettingsComponent&#45;&gt;AuthenticatedModule -->
<g id="edge3" class="edge">
<title>SettingsComponent&#45;&gt;AuthenticatedModule</title>
<path fill="none" stroke="#000000" d="M795,-122.027C795,-138.3976 795,-160 795,-160 795,-160 722.328,-160 722.328,-160"/>
<polygon fill="#000000" stroke="#000000" points="722.328,-156.5001 712.328,-160 722.3279,-163.5001 722.328,-156.5001"/>
</g>
<!-- ConfigListComponent -->
<g id="node4" class="node">
<title>ConfigListComponent</title>
<polygon fill="#ffffb3" stroke="#000000" points="713.9986,-122 572.0014,-122 572.0014,-86 713.9986,-86 713.9986,-122"/>
<text text-anchor="middle" x="643" y="-99.8" font-family="Times,serif" font-size="14.00" fill="#000000">ConfigListComponent</text>
</g>
<!-- ConfigListComponent&#45;&gt;AuthenticatedModule -->
<g id="edge4" class="edge">
<title>ConfigListComponent&#45;&gt;AuthenticatedModule</title>
<path fill="none" stroke="#000000" d="M643,-122.1061C643,-122.1061 643,-140.991 643,-140.991"/>
<polygon fill="#000000" stroke="#000000" points="639.5001,-140.9909 643,-150.991 646.5001,-140.991 639.5001,-140.9909"/>
</g>
<!-- ConfigModalComponent -->
<g id="node5" class="node">
<title>ConfigModalComponent</title>
<polygon fill="#ffffb3" stroke="#000000" points="554.2702,-122 397.7298,-122 397.7298,-86 554.2702,-86 554.2702,-122"/>
<text text-anchor="middle" x="476" y="-99.8" font-family="Times,serif" font-size="14.00" fill="#000000">ConfigModalComponent</text>
</g>
<!-- ConfigModalComponent&#45;&gt;AuthenticatedModule -->
<g id="edge5" class="edge">
<title>ConfigModalComponent&#45;&gt;AuthenticatedModule</title>
<path fill="none" stroke="#000000" d="M476,-122.027C476,-138.3976 476,-160 476,-160 476,-160 563.6278,-160 563.6278,-160"/>
<polygon fill="#000000" stroke="#000000" points="563.6278,-163.5001 573.6278,-160 563.6277,-156.5001 563.6278,-163.5001"/>
</g>
<!-- NewRulePageComponent -->
<g id="node6" class="node">
<title>NewRulePageComponent</title>
<polygon fill="#ffffb3" stroke="#000000" points="379.9143,-122 218.0857,-122 218.0857,-86 379.9143,-86 379.9143,-122"/>
<text text-anchor="middle" x="299" y="-99.8" font-family="Times,serif" font-size="14.00" fill="#000000">NewRulePageComponent</text>
</g>
<!-- NewRulePageComponent&#45;&gt;AuthenticatedModule -->
<g id="edge6" class="edge">
<title>NewRulePageComponent&#45;&gt;AuthenticatedModule</title>
<path fill="none" stroke="#000000" d="M299,-122.1061C299,-141.3391 299,-169 299,-169 299,-169 563.8003,-169 563.8003,-169"/>
<polygon fill="#000000" stroke="#000000" points="563.8003,-172.5001 573.8003,-169 563.8002,-165.5001 563.8003,-172.5001"/>
</g>
<!-- NewRuleStepperComponent -->
<g id="node7" class="node">
<title>NewRuleStepperComponent</title>
<polygon fill="#ffffb3" stroke="#000000" points="200.465,-122 23.535,-122 23.535,-86 200.465,-86 200.465,-122"/>
<text text-anchor="middle" x="112" y="-99.8" font-family="Times,serif" font-size="14.00" fill="#000000">NewRuleStepperComponent</text>
</g>
<!-- NewRuleStepperComponent&#45;&gt;AuthenticatedModule -->
<g id="edge7" class="edge">
<title>NewRuleStepperComponent&#45;&gt;AuthenticatedModule</title>
<path fill="none" stroke="#000000" d="M112,-122.2921C112,-144.2057 112,-178 112,-178 112,-178 563.8534,-178 563.8534,-178"/>
<polygon fill="#000000" stroke="#000000" points="563.8535,-181.5001 573.8534,-178 563.8534,-174.5001 563.8535,-181.5001"/>
</g>
</g>
</svg>
