<?xml version="1.0" encoding="UTF-8" standalone="no"?>
<!DOCTYPE svg PUBLIC "-//W3C//DTD SVG 1.1//EN"
 "http://www.w3.org/Graphics/SVG/1.1/DTD/svg11.dtd">
<!-- Generated by graphviz version 2.40.1 (20161225.0304)
 -->
<!-- Title: dependencies Pages: 1 -->
<svg width="896pt" height="284pt"
 viewBox="0.00 0.00 896.00 284.00" xmlns="http://www.w3.org/2000/svg" xmlns:xlink="http://www.w3.org/1999/xlink">
<g id="graph0" class="graph" transform="scale(1 1) rotate(0) translate(4 280)">
<title>dependencies</title>
<polygon fill="#ffffff" stroke="transparent" points="-4,4 -4,-280 892,-280 892,4 -4,4"/>
<text text-anchor="start" x="423.0091" y="-42.4" font-family="sans-serif" font-weight="bold" font-size="14.00" fill="#000000">Legend</text>
<polygon fill="#ffffb3" stroke="transparent" points="210,-10 210,-30 230,-30 230,-10 210,-10"/>
<text text-anchor="start" x="233.629" y="-15.4" font-family="sans-serif" font-size="14.00" fill="#000000"> &#160;Declarations</text>
<polygon fill="#8dd3c7" stroke="transparent" points="323,-10 323,-30 343,-30 343,-10 323,-10"/>
<text text-anchor="start" x="346.7251" y="-15.4" font-family="sans-serif" font-size="14.00" fill="#000000"> &#160;Module</text>
<polygon fill="#80b1d3" stroke="transparent" points="409,-10 409,-30 429,-30 429,-10 409,-10"/>
<text text-anchor="start" x="432.7812" y="-15.4" font-family="sans-serif" font-size="14.00" fill="#000000"> &#160;Bootstrap</text>
<polygon fill="#fdb462" stroke="transparent" points="506,-10 506,-30 526,-30 526,-10 506,-10"/>
<text text-anchor="start" x="529.6732" y="-15.4" font-family="sans-serif" font-size="14.00" fill="#000000"> &#160;Providers</text>
<polygon fill="#fb8072" stroke="transparent" points="602,-10 602,-30 622,-30 622,-10 602,-10"/>
<text text-anchor="start" x="625.7258" y="-15.4" font-family="sans-serif" font-size="14.00" fill="#000000"> &#160;Exports</text>
<g id="clust1" class="cluster">
<title>cluster_AuthenticatedModule</title>
<polygon fill="none" stroke="#000000" stroke-dasharray="1,5" points="8,-70 8,-268 880,-268 880,-70 8,-70"/>
</g>
<g id="clust2" class="cluster">
<title>cluster_AuthenticatedModule_declarations</title>
<polygon fill="none" stroke="#000000" points="458,-78 458,-130 872,-130 872,-78 458,-78"/>
</g>
<g id="clust6" class="cluster">
<title>cluster_AuthenticatedModule_imports</title>
<polygon fill="none" stroke="#000000" points="336,-78 336,-130 450,-130 450,-78 336,-78"/>
</g>
<g id="clust7" class="cluster">
<title>cluster_AuthenticatedModule_exports</title>
<polygon fill="none" stroke="#000000" points="391,-208 391,-260 531,-260 531,-208 391,-208"/>
</g>
<g id="clust9" class="cluster">
<title>cluster_AuthenticatedModule_providers</title>
<polygon fill="none" stroke="#000000" points="16,-78 16,-130 328,-130 328,-78 16,-78"/>
</g>
<!-- HomeComponent -->
<g id="node1" class="node">
<title>HomeComponent</title>
<polygon fill="#ffffb3" stroke="#000000" points="863.5451,-122 748.4549,-122 748.4549,-86 863.5451,-86 863.5451,-122"/>
<text text-anchor="middle" x="806" y="-99.8" font-family="Times,serif" font-size="14.00" fill="#000000">HomeComponent</text>
</g>
<!-- AuthenticatedModule -->
<g id="node4" class="node">
<title>AuthenticatedModule</title>
<polygon fill="#8dd3c7" stroke="#000000" points="530.0772,-187 527.0772,-191 506.0772,-191 503.0772,-187 391.9228,-187 391.9228,-151 530.0772,-151 530.0772,-187"/>
<text text-anchor="middle" x="461" y="-164.8" font-family="Times,serif" font-size="14.00" fill="#000000">AuthenticatedModule</text>
</g>
<!-- HomeComponent&#45;&gt;AuthenticatedModule -->
<g id="edge1" class="edge">
<title>HomeComponent&#45;&gt;AuthenticatedModule</title>
<path fill="none" stroke="#000000" d="M806,-122.2843C806,-143.3211 806,-175 806,-175 806,-175 540.4009,-175 540.4009,-175"/>
<polygon fill="#000000" stroke="#000000" points="540.4009,-171.5001 530.4009,-175 540.4009,-178.5001 540.4009,-171.5001"/>
</g>
<!-- ConfigComponent -->
<g id="node2" class="node">
<title>ConfigComponent</title>
<polygon fill="#ffffb3" stroke="#000000" points="730.2204,-122 609.7796,-122 609.7796,-86 730.2204,-86 730.2204,-122"/>
<text text-anchor="middle" x="670" y="-99.8" font-family="Times,serif" font-size="14.00" fill="#000000">ConfigComponent</text>
</g>
<!-- ConfigComponent&#45;&gt;AuthenticatedModule -->
<g id="edge2" class="edge">
<title>ConfigComponent&#45;&gt;AuthenticatedModule</title>
<path fill="none" stroke="#000000" d="M670,-122.0225C670,-139.3734 670,-163 670,-163 670,-163 540.3037,-163 540.3037,-163"/>
<polygon fill="#000000" stroke="#000000" points="540.3037,-159.5001 530.3037,-163 540.3036,-166.5001 540.3037,-159.5001"/>
</g>
<!-- SettingsComponent -->
<g id="node3" class="node">
<title>SettingsComponent</title>
<polygon fill="#ffffb3" stroke="#000000" points="592.4468,-122 465.5532,-122 465.5532,-86 592.4468,-86 592.4468,-122"/>
<text text-anchor="middle" x="529" y="-99.8" font-family="Times,serif" font-size="14.00" fill="#000000">SettingsComponent</text>
</g>
<!-- SettingsComponent&#45;&gt;AuthenticatedModule -->
<g id="edge3" class="edge">
<title>SettingsComponent&#45;&gt;AuthenticatedModule</title>
<path fill="none" stroke="#000000" d="M497.9078,-122.1061C497.9078,-122.1061 497.9078,-140.991 497.9078,-140.991"/>
<polygon fill="#000000" stroke="#000000" points="494.4079,-140.9909 497.9078,-150.991 501.4079,-140.991 494.4079,-140.9909"/>
</g>
<!-- ConfigComponent  -->
<g id="node6" class="node">
<title>ConfigComponent </title>
<polygon fill="#fb8072" stroke="#000000" points="522.7205,-252 399.2795,-252 399.2795,-216 522.7205,-216 522.7205,-252"/>
<text text-anchor="middle" x="461" y="-229.8" font-family="Times,serif" font-size="14.00" fill="#000000">ConfigComponent </text>
</g>
<!-- AuthenticatedModule&#45;&gt;ConfigComponent  -->
<g id="edge5" class="edge">
<title>AuthenticatedModule&#45;&gt;ConfigComponent </title>
<path fill="none" stroke="#000000" stroke-dasharray="5,2" d="M461,-187.1061C461,-187.1061 461,-205.991 461,-205.991"/>
<polygon fill="#000000" stroke="#000000" points="457.5001,-205.9909 461,-215.991 464.5001,-205.991 457.5001,-205.9909"/>
</g>
<!-- ConfigModule -->
<g id="node5" class="node">
<title>ConfigModule</title>
<polygon fill="#8dd3c7" stroke="#000000" points="442.4386,-122 439.4386,-126 418.4386,-126 415.4386,-122 343.5614,-122 343.5614,-86 442.4386,-86 442.4386,-122"/>
<text text-anchor="middle" x="393" y="-99.8" font-family="Times,serif" font-size="14.00" fill="#000000">ConfigModule</text>
</g>
<!-- ConfigModule&#45;&gt;AuthenticatedModule -->
<g id="edge4" class="edge">
<title>ConfigModule&#45;&gt;AuthenticatedModule</title>
<path fill="none" stroke="#000000" d="M417.0901,-122.1061C417.0901,-122.1061 417.0901,-140.991 417.0901,-140.991"/>
<polygon fill="#000000" stroke="#000000" points="413.5902,-140.9909 417.0901,-150.991 420.5902,-140.991 413.5902,-140.9909"/>
</g>
<!-- DatabaseService -->
<g id="node7" class="node">
<title>DatabaseService</title>
<ellipse fill="#fdb462" stroke="#000000" cx="245" cy="-104" rx="75.2559" ry="18"/>
<text text-anchor="middle" x="245" y="-99.8" font-family="Times,serif" font-size="14.00" fill="#000000">DatabaseService</text>
</g>
<!-- DatabaseService&#45;&gt;AuthenticatedModule -->
<g id="edge6" class="edge">
<title>DatabaseService&#45;&gt;AuthenticatedModule</title>
<path fill="none" stroke="#000000" d="M245,-122.0225C245,-139.3734 245,-163 245,-163 245,-163 381.765,-163 381.765,-163"/>
<polygon fill="#000000" stroke="#000000" points="381.765,-166.5001 391.765,-163 381.7649,-159.5001 381.765,-166.5001"/>
</g>
<!-- SorterService -->
<g id="node8" class="node">
<title>SorterService</title>
<ellipse fill="#fdb462" stroke="#000000" cx="88" cy="-104" rx="63.6774" ry="18"/>
<text text-anchor="middle" x="88" y="-99.8" font-family="Times,serif" font-size="14.00" fill="#000000">SorterService</text>
</g>
<!-- SorterService&#45;&gt;AuthenticatedModule -->
<g id="edge7" class="edge">
<title>SorterService&#45;&gt;AuthenticatedModule</title>
<path fill="none" stroke="#000000" d="M88,-122.2843C88,-143.3211 88,-175 88,-175 88,-175 381.7157,-175 381.7157,-175"/>
<polygon fill="#000000" stroke="#000000" points="381.7158,-178.5001 391.7157,-175 381.7157,-171.5001 381.7158,-178.5001"/>
</g>
</g>
</svg>
