<?xml version="1.0" encoding="UTF-8" standalone="no"?>
<!DOCTYPE svg PUBLIC "-//W3C//DTD SVG 1.1//EN"
 "http://www.w3.org/Graphics/SVG/1.1/DTD/svg11.dtd">
<!-- Generated by graphviz version 2.40.1 (20161225.0304)
 -->
<!-- Title: dependencies Pages: 1 -->
<svg width="614pt" height="211pt"
 viewBox="0.00 0.00 614.00 211.00" xmlns="http://www.w3.org/2000/svg" xmlns:xlink="http://www.w3.org/1999/xlink">
<g id="graph0" class="graph" transform="scale(1 1) rotate(0) translate(4 207)">
<title>dependencies</title>
<polygon fill="#ffffff" stroke="transparent" points="-4,4 -4,-207 610,-207 610,4 -4,4"/>
<text text-anchor="start" x="282.0091" y="-42.4" font-family="sans-serif" font-weight="bold" font-size="14.00" fill="#000000">Legend</text>
<polygon fill="#ffffb3" stroke="transparent" points="69,-10 69,-30 89,-30 89,-10 69,-10"/>
<text text-anchor="start" x="92.629" y="-15.4" font-family="sans-serif" font-size="14.00" fill="#000000"> &#160;Declarations</text>
<polygon fill="#8dd3c7" stroke="transparent" points="182,-10 182,-30 202,-30 202,-10 182,-10"/>
<text text-anchor="start" x="205.7251" y="-15.4" font-family="sans-serif" font-size="14.00" fill="#000000"> &#160;Module</text>
<polygon fill="#80b1d3" stroke="transparent" points="268,-10 268,-30 288,-30 288,-10 268,-10"/>
<text text-anchor="start" x="291.7812" y="-15.4" font-family="sans-serif" font-size="14.00" fill="#000000"> &#160;Bootstrap</text>
<polygon fill="#fdb462" stroke="transparent" points="365,-10 365,-30 385,-30 385,-10 365,-10"/>
<text text-anchor="start" x="388.6732" y="-15.4" font-family="sans-serif" font-size="14.00" fill="#000000"> &#160;Providers</text>
<polygon fill="#fb8072" stroke="transparent" points="461,-10 461,-30 481,-30 481,-10 461,-10"/>
<text text-anchor="start" x="484.7258" y="-15.4" font-family="sans-serif" font-size="14.00" fill="#000000"> &#160;Exports</text>
<g id="clust1" class="cluster">
<title>cluster_AuthenticatedModule</title>
<polygon fill="none" stroke="#000000" stroke-dasharray="1,5" points="8,-70 8,-195 598,-195 598,-70 8,-70"/>
</g>
<g id="clust2" class="cluster">
<title>cluster_AuthenticatedModule_declarations</title>
<polygon fill="none" stroke="#000000" points="16,-78 16,-130 590,-130 590,-78 16,-78"/>
</g>
<!-- HomeComponent -->
<g id="node1" class="node">
<title>HomeComponent</title>
<polygon fill="#ffffb3" stroke="#000000" points="581.5451,-122 466.4549,-122 466.4549,-86 581.5451,-86 581.5451,-122"/>
<text text-anchor="middle" x="524" y="-99.8" font-family="Times,serif" font-size="14.00" fill="#000000">HomeComponent</text>
</g>
<!-- AuthenticatedModule -->
<g id="node5" class="node">
<title>AuthenticatedModule</title>
<polygon fill="#8dd3c7" stroke="#000000" points="386.0772,-187 383.0772,-191 362.0772,-191 359.0772,-187 247.9228,-187 247.9228,-151 386.0772,-151 386.0772,-187"/>
<text text-anchor="middle" x="317" y="-164.8" font-family="Times,serif" font-size="14.00" fill="#000000">AuthenticatedModule</text>
</g>
<!-- HomeComponent&#45;&gt;AuthenticatedModule -->
<g id="edge1" class="edge">
<title>HomeComponent&#45;&gt;AuthenticatedModule</title>
<path fill="none" stroke="#000000" d="M524,-122.1061C524,-141.3391 524,-169 524,-169 524,-169 396.2158,-169 396.2158,-169"/>
<polygon fill="#000000" stroke="#000000" points="396.2158,-165.5001 386.2158,-169 396.2158,-172.5001 396.2158,-165.5001"/>
</g>
<!-- ConfigComponent -->
<g id="node2" class="node">
<title>ConfigComponent</title>
<polygon fill="#ffffb3" stroke="#000000" points="448.2204,-122 327.7796,-122 327.7796,-86 448.2204,-86 448.2204,-122"/>
<text text-anchor="middle" x="388" y="-99.8" font-family="Times,serif" font-size="14.00" fill="#000000">ConfigComponent</text>
</g>
<!-- ConfigComponent&#45;&gt;AuthenticatedModule -->
<g id="edge2" class="edge">
<title>ConfigComponent&#45;&gt;AuthenticatedModule</title>
<path fill="none" stroke="#000000" d="M356.9643,-122.1061C356.9643,-122.1061 356.9643,-140.991 356.9643,-140.991"/>
<polygon fill="#000000" stroke="#000000" points="353.4643,-140.9909 356.9643,-150.991 360.4643,-140.991 353.4643,-140.9909"/>
</g>
<!-- SettingsComponent -->
<g id="node3" class="node">
<title>SettingsComponent</title>
<polygon fill="#ffffb3" stroke="#000000" points="310.4468,-122 183.5532,-122 183.5532,-86 310.4468,-86 310.4468,-122"/>
<text text-anchor="middle" x="247" y="-99.8" font-family="Times,serif" font-size="14.00" fill="#000000">SettingsComponent</text>
</g>
<!-- SettingsComponent&#45;&gt;AuthenticatedModule -->
<g id="edge3" class="edge">
<title>SettingsComponent&#45;&gt;AuthenticatedModule</title>
<path fill="none" stroke="#000000" d="M279.0922,-122.1061C279.0922,-122.1061 279.0922,-140.991 279.0922,-140.991"/>
<polygon fill="#000000" stroke="#000000" points="275.5923,-140.9909 279.0922,-150.991 282.5923,-140.991 275.5923,-140.9909"/>
</g>
<!-- ConfigListComponent -->
<g id="node4" class="node">
<title>ConfigListComponent</title>
<polygon fill="#ffffb3" stroke="#000000" points="165.9986,-122 24.0014,-122 24.0014,-86 165.9986,-86 165.9986,-122"/>
<text text-anchor="middle" x="95" y="-99.8" font-family="Times,serif" font-size="14.00" fill="#000000">ConfigListComponent</text>
</g>
<!-- ConfigListComponent&#45;&gt;AuthenticatedModule -->
<g id="edge4" class="edge">
<title>ConfigListComponent&#45;&gt;AuthenticatedModule</title>
<path fill="none" stroke="#000000" d="M95,-122.1061C95,-141.3391 95,-169 95,-169 95,-169 237.671,-169 237.671,-169"/>
<polygon fill="#000000" stroke="#000000" points="237.671,-172.5001 247.671,-169 237.6709,-165.5001 237.671,-172.5001"/>
</g>
</g>
</svg>
