<?xml version="1.0" encoding="UTF-8" standalone="no"?>
<!DOCTYPE svg PUBLIC "-//W3C//DTD SVG 1.1//EN"
 "http://www.w3.org/Graphics/SVG/1.1/DTD/svg11.dtd">
<!-- Generated by graphviz version 2.40.1 (20161225.0304)
 -->
<!-- Title: dependencies Pages: 1 -->
<svg width="504pt" height="211pt"
 viewBox="0.00 0.00 504.00 211.00" xmlns="http://www.w3.org/2000/svg" xmlns:xlink="http://www.w3.org/1999/xlink">
<g id="graph0" class="graph" transform="scale(1 1) rotate(0) translate(4 207)">
<title>dependencies</title>
<polygon fill="#ffffff" stroke="transparent" points="-4,4 -4,-207 500,-207 500,4 -4,4"/>
<text text-anchor="start" x="227.0091" y="-42.4" font-family="sans-serif" font-weight="bold" font-size="14.00" fill="#000000">Legend</text>
<polygon fill="#ffffb3" stroke="transparent" points="14,-10 14,-30 34,-30 34,-10 14,-10"/>
<text text-anchor="start" x="37.629" y="-15.4" font-family="sans-serif" font-size="14.00" fill="#000000"> &#160;Declarations</text>
<polygon fill="#8dd3c7" stroke="transparent" points="127,-10 127,-30 147,-30 147,-10 127,-10"/>
<text text-anchor="start" x="150.7251" y="-15.4" font-family="sans-serif" font-size="14.00" fill="#000000"> &#160;Module</text>
<polygon fill="#80b1d3" stroke="transparent" points="213,-10 213,-30 233,-30 233,-10 213,-10"/>
<text text-anchor="start" x="236.7812" y="-15.4" font-family="sans-serif" font-size="14.00" fill="#000000"> &#160;Bootstrap</text>
<polygon fill="#fdb462" stroke="transparent" points="310,-10 310,-30 330,-30 330,-10 310,-10"/>
<text text-anchor="start" x="333.6732" y="-15.4" font-family="sans-serif" font-size="14.00" fill="#000000"> &#160;Providers</text>
<polygon fill="#fb8072" stroke="transparent" points="406,-10 406,-30 426,-30 426,-10 406,-10"/>
<text text-anchor="start" x="429.7258" y="-15.4" font-family="sans-serif" font-size="14.00" fill="#000000"> &#160;Exports</text>
<g id="clust1" class="cluster">
<title>cluster_AuthenticatedModule</title>
<polygon fill="none" stroke="#000000" stroke-dasharray="1,5" points="33,-70 33,-195 463,-195 463,-70 33,-70"/>
</g>
<g id="clust2" class="cluster">
<title>cluster_AuthenticatedModule_declarations</title>
<polygon fill="none" stroke="#000000" points="41,-78 41,-130 455,-130 455,-78 41,-78"/>
</g>
<!-- HomeComponent -->
<g id="node1" class="node">
<title>HomeComponent</title>
<polygon fill="#ffffb3" stroke="#000000" points="446.5451,-122 331.4549,-122 331.4549,-86 446.5451,-86 446.5451,-122"/>
<text text-anchor="middle" x="389" y="-99.8" font-family="Times,serif" font-size="14.00" fill="#000000">HomeComponent</text>
</g>
<!-- AuthenticatedModule -->
<g id="node4" class="node">
<title>AuthenticatedModule</title>
<polygon fill="#8dd3c7" stroke="#000000" points="322.0772,-187 319.0772,-191 298.0772,-191 295.0772,-187 183.9228,-187 183.9228,-151 322.0772,-151 322.0772,-187"/>
<text text-anchor="middle" x="253" y="-164.8" font-family="Times,serif" font-size="14.00" fill="#000000">AuthenticatedModule</text>
</g>
<!-- HomeComponent&#45;&gt;AuthenticatedModule -->
<g id="edge1" class="edge">
<title>HomeComponent&#45;&gt;AuthenticatedModule</title>
<path fill="none" stroke="#000000" d="M331.3459,-104C323.2242,-104 317.5744,-104 317.5744,-104 317.5744,-104 317.5744,-140.8939 317.5744,-140.8939"/>
<polygon fill="#000000" stroke="#000000" points="314.0744,-140.8938 317.5744,-150.8939 321.0744,-140.8939 314.0744,-140.8938"/>
</g>
<!-- ConfigComponent -->
<g id="node2" class="node">
<title>ConfigComponent</title>
<polygon fill="#ffffb3" stroke="#000000" points="313.2204,-122 192.7796,-122 192.7796,-86 313.2204,-86 313.2204,-122"/>
<text text-anchor="middle" x="253" y="-99.8" font-family="Times,serif" font-size="14.00" fill="#000000">ConfigComponent</text>
</g>
<!-- ConfigComponent&#45;&gt;AuthenticatedModule -->
<g id="edge2" class="edge">
<title>ConfigComponent&#45;&gt;AuthenticatedModule</title>
<path fill="none" stroke="#000000" d="M253,-122.1061C253,-122.1061 253,-140.991 253,-140.991"/>
<polygon fill="#000000" stroke="#000000" points="249.5001,-140.9909 253,-150.991 256.5001,-140.991 249.5001,-140.9909"/>
</g>
<!-- SettingsComponent -->
<g id="node3" class="node">
<title>SettingsComponent</title>
<polygon fill="#ffffb3" stroke="#000000" points="175.4468,-122 48.5532,-122 48.5532,-86 175.4468,-86 175.4468,-122"/>
<text text-anchor="middle" x="112" y="-99.8" font-family="Times,serif" font-size="14.00" fill="#000000">SettingsComponent</text>
</g>
<!-- SettingsComponent&#45;&gt;AuthenticatedModule -->
<g id="edge3" class="edge">
<title>SettingsComponent&#45;&gt;AuthenticatedModule</title>
<path fill="none" stroke="#000000" d="M175.4611,-104C183.1907,-104 188.4257,-104 188.4257,-104 188.4257,-104 188.4257,-140.8939 188.4257,-140.8939"/>
<polygon fill="#000000" stroke="#000000" points="184.9257,-140.8938 188.4257,-150.8939 191.9257,-140.8939 184.9257,-140.8938"/>
</g>
</g>
</svg>
