<?xml version="1.0" encoding="UTF-8" standalone="no"?>
<!DOCTYPE svg PUBLIC "-//W3C//DTD SVG 1.1//EN"
 "http://www.w3.org/Graphics/SVG/1.1/DTD/svg11.dtd">
<!-- Generated by graphviz version 2.40.1 (20161225.0304)
 -->
<!-- Title: dependencies Pages: 1 -->
<svg width="628pt" height="284pt"
 viewBox="0.00 0.00 628.00 284.00" xmlns="http://www.w3.org/2000/svg" xmlns:xlink="http://www.w3.org/1999/xlink">
<g id="graph0" class="graph" transform="scale(1 1) rotate(0) translate(4 280)">
<title>dependencies</title>
<polygon fill="#ffffff" stroke="transparent" points="-4,4 -4,-280 624,-280 624,4 -4,4"/>
<text text-anchor="start" x="289.0091" y="-42.4" font-family="sans-serif" font-weight="bold" font-size="14.00" fill="#000000">Legend</text>
<polygon fill="#ffffb3" stroke="transparent" points="76,-10 76,-30 96,-30 96,-10 76,-10"/>
<text text-anchor="start" x="99.629" y="-15.4" font-family="sans-serif" font-size="14.00" fill="#000000"> &#160;Declarations</text>
<polygon fill="#8dd3c7" stroke="transparent" points="189,-10 189,-30 209,-30 209,-10 189,-10"/>
<text text-anchor="start" x="212.7251" y="-15.4" font-family="sans-serif" font-size="14.00" fill="#000000"> &#160;Module</text>
<polygon fill="#80b1d3" stroke="transparent" points="275,-10 275,-30 295,-30 295,-10 275,-10"/>
<text text-anchor="start" x="298.7812" y="-15.4" font-family="sans-serif" font-size="14.00" fill="#000000"> &#160;Bootstrap</text>
<polygon fill="#fdb462" stroke="transparent" points="372,-10 372,-30 392,-30 392,-10 372,-10"/>
<text text-anchor="start" x="395.6732" y="-15.4" font-family="sans-serif" font-size="14.00" fill="#000000"> &#160;Providers</text>
<polygon fill="#fb8072" stroke="transparent" points="468,-10 468,-30 488,-30 488,-10 468,-10"/>
<text text-anchor="start" x="491.7258" y="-15.4" font-family="sans-serif" font-size="14.00" fill="#000000"> &#160;Exports</text>
<g id="clust1" class="cluster">
<title>cluster_AuthenticatedModule</title>
<polygon fill="none" stroke="#000000" stroke-dasharray="1,5" points="8,-70 8,-268 612,-268 612,-70 8,-70"/>
</g>
<g id="clust2" class="cluster">
<title>cluster_AuthenticatedModule_declarations</title>
<polygon fill="none" stroke="#000000" points="190,-78 190,-130 604,-130 604,-78 190,-78"/>
</g>
<g id="clust7" class="cluster">
<title>cluster_AuthenticatedModule_exports</title>
<polygon fill="none" stroke="#000000" points="261,-208 261,-260 401,-260 401,-208 261,-208"/>
</g>
<g id="clust9" class="cluster">
<title>cluster_AuthenticatedModule_providers</title>
<polygon fill="none" stroke="#000000" points="16,-78 16,-130 182,-130 182,-78 16,-78"/>
</g>
<!-- HomeComponent -->
<g id="node1" class="node">
<title>HomeComponent</title>
<polygon fill="#ffffb3" stroke="#000000" points="595.5451,-122 480.4549,-122 480.4549,-86 595.5451,-86 595.5451,-122"/>
<text text-anchor="middle" x="538" y="-99.8" font-family="Times,serif" font-size="14.00" fill="#000000">HomeComponent</text>
</g>
<!-- AuthenticatedModule -->
<g id="node4" class="node">
<title>AuthenticatedModule</title>
<polygon fill="#8dd3c7" stroke="#000000" points="400.0772,-187 397.0772,-191 376.0772,-191 373.0772,-187 261.9228,-187 261.9228,-151 400.0772,-151 400.0772,-187"/>
<text text-anchor="middle" x="331" y="-164.8" font-family="Times,serif" font-size="14.00" fill="#000000">AuthenticatedModule</text>
</g>
<!-- HomeComponent&#45;&gt;AuthenticatedModule -->
<g id="edge1" class="edge">
<title>HomeComponent&#45;&gt;AuthenticatedModule</title>
<path fill="none" stroke="#000000" d="M538,-122.1061C538,-141.3391 538,-169 538,-169 538,-169 410.2158,-169 410.2158,-169"/>
<polygon fill="#000000" stroke="#000000" points="410.2158,-165.5001 400.2158,-169 410.2158,-172.5001 410.2158,-165.5001"/>
</g>
<!-- ConfigComponent -->
<g id="node2" class="node">
<title>ConfigComponent</title>
<polygon fill="#ffffb3" stroke="#000000" points="462.2204,-122 341.7796,-122 341.7796,-86 462.2204,-86 462.2204,-122"/>
<text text-anchor="middle" x="402" y="-99.8" font-family="Times,serif" font-size="14.00" fill="#000000">ConfigComponent</text>
</g>
<!-- ConfigComponent&#45;&gt;AuthenticatedModule -->
<g id="edge2" class="edge">
<title>ConfigComponent&#45;&gt;AuthenticatedModule</title>
<path fill="none" stroke="#000000" d="M370.9643,-122.1061C370.9643,-122.1061 370.9643,-140.991 370.9643,-140.991"/>
<polygon fill="#000000" stroke="#000000" points="367.4643,-140.9909 370.9643,-150.991 374.4643,-140.991 367.4643,-140.9909"/>
</g>
<!-- SettingsComponent -->
<g id="node3" class="node">
<title>SettingsComponent</title>
<polygon fill="#ffffb3" stroke="#000000" points="324.4468,-122 197.5532,-122 197.5532,-86 324.4468,-86 324.4468,-122"/>
<text text-anchor="middle" x="261" y="-99.8" font-family="Times,serif" font-size="14.00" fill="#000000">SettingsComponent</text>
</g>
<!-- SettingsComponent&#45;&gt;AuthenticatedModule -->
<g id="edge3" class="edge">
<title>SettingsComponent&#45;&gt;AuthenticatedModule</title>
<path fill="none" stroke="#000000" d="M293.0922,-122.1061C293.0922,-122.1061 293.0922,-140.991 293.0922,-140.991"/>
<polygon fill="#000000" stroke="#000000" points="289.5923,-140.9909 293.0922,-150.991 296.5923,-140.991 289.5923,-140.9909"/>
</g>
<!-- ConfigComponent  -->
<g id="node5" class="node">
<title>ConfigComponent </title>
<polygon fill="#fb8072" stroke="#000000" points="392.7205,-252 269.2795,-252 269.2795,-216 392.7205,-216 392.7205,-252"/>
<text text-anchor="middle" x="331" y="-229.8" font-family="Times,serif" font-size="14.00" fill="#000000">ConfigComponent </text>
</g>
<!-- AuthenticatedModule&#45;&gt;ConfigComponent  -->
<g id="edge4" class="edge">
<title>AuthenticatedModule&#45;&gt;ConfigComponent </title>
<path fill="none" stroke="#000000" stroke-dasharray="5,2" d="M331,-187.1061C331,-187.1061 331,-205.991 331,-205.991"/>
<polygon fill="#000000" stroke="#000000" points="327.5001,-205.9909 331,-215.991 334.5001,-205.991 327.5001,-205.9909"/>
</g>
<!-- DatabaseService -->
<g id="node6" class="node">
<title>DatabaseService</title>
<ellipse fill="#fdb462" stroke="#000000" cx="99" cy="-104" rx="75.2559" ry="18"/>
<text text-anchor="middle" x="99" y="-99.8" font-family="Times,serif" font-size="14.00" fill="#000000">DatabaseService</text>
</g>
<!-- DatabaseService&#45;&gt;AuthenticatedModule -->
<g id="edge5" class="edge">
<title>DatabaseService&#45;&gt;AuthenticatedModule</title>
<path fill="none" stroke="#000000" d="M99,-122.1061C99,-141.3391 99,-169 99,-169 99,-169 251.7066,-169 251.7066,-169"/>
<polygon fill="#000000" stroke="#000000" points="251.7066,-172.5001 261.7066,-169 251.7066,-165.5001 251.7066,-172.5001"/>
</g>
</g>
</svg>
