<?xml version="1.0" encoding="UTF-8" standalone="no"?>
<!DOCTYPE svg PUBLIC "-//W3C//DTD SVG 1.1//EN"
 "http://www.w3.org/Graphics/SVG/1.1/DTD/svg11.dtd">
<!-- Generated by graphviz version 2.40.1 (20161225.0304)
 -->
<!-- Title: dependencies Pages: 1 -->
<svg width="747pt" height="284pt"
 viewBox="0.00 0.00 747.00 284.00" xmlns="http://www.w3.org/2000/svg" xmlns:xlink="http://www.w3.org/1999/xlink">
<g id="graph0" class="graph" transform="scale(1 1) rotate(0) translate(4 280)">
<title>dependencies</title>
<polygon fill="#ffffff" stroke="transparent" points="-4,4 -4,-280 743,-280 743,4 -4,4"/>
<text text-anchor="start" x="348.5091" y="-42.4" font-family="sans-serif" font-weight="bold" font-size="14.00" fill="#000000">Legend</text>
<polygon fill="#ffffb3" stroke="transparent" points="135.5,-10 135.5,-30 155.5,-30 155.5,-10 135.5,-10"/>
<text text-anchor="start" x="159.129" y="-15.4" font-family="sans-serif" font-size="14.00" fill="#000000"> &#160;Declarations</text>
<polygon fill="#8dd3c7" stroke="transparent" points="248.5,-10 248.5,-30 268.5,-30 268.5,-10 248.5,-10"/>
<text text-anchor="start" x="272.2251" y="-15.4" font-family="sans-serif" font-size="14.00" fill="#000000"> &#160;Module</text>
<polygon fill="#80b1d3" stroke="transparent" points="334.5,-10 334.5,-30 354.5,-30 354.5,-10 334.5,-10"/>
<text text-anchor="start" x="358.2812" y="-15.4" font-family="sans-serif" font-size="14.00" fill="#000000"> &#160;Bootstrap</text>
<polygon fill="#fdb462" stroke="transparent" points="431.5,-10 431.5,-30 451.5,-30 451.5,-10 431.5,-10"/>
<text text-anchor="start" x="455.1732" y="-15.4" font-family="sans-serif" font-size="14.00" fill="#000000"> &#160;Providers</text>
<polygon fill="#fb8072" stroke="transparent" points="527.5,-10 527.5,-30 547.5,-30 547.5,-10 527.5,-10"/>
<text text-anchor="start" x="551.2258" y="-15.4" font-family="sans-serif" font-size="14.00" fill="#000000"> &#160;Exports</text>
<g id="clust1" class="cluster">
<title>cluster_ConfigModule</title>
<polygon fill="none" stroke="#000000" stroke-dasharray="1,5" points="8,-70 8,-268 731,-268 731,-70 8,-70"/>
</g>
<g id="clust2" class="cluster">
<title>cluster_ConfigModule_declarations</title>
<polygon fill="none" stroke="#000000" points="16,-78 16,-130 723,-130 723,-78 16,-78"/>
</g>
<g id="clust8" class="cluster">
<title>cluster_ConfigModule_exports</title>
<polygon fill="none" stroke="#000000" points="304,-208 304,-260 466,-260 466,-208 304,-208"/>
</g>
<!-- ConfigListComponent -->
<g id="node1" class="node">
<title>ConfigListComponent</title>
<polygon fill="#ffffb3" stroke="#000000" points="714.9986,-122 573.0014,-122 573.0014,-86 714.9986,-86 714.9986,-122"/>
<text text-anchor="middle" x="644" y="-99.8" font-family="Times,serif" font-size="14.00" fill="#000000">ConfigListComponent</text>
</g>
<!-- ConfigModule -->
<g id="node5" class="node">
<title>ConfigModule</title>
<polygon fill="#8dd3c7" stroke="#000000" points="434.4386,-187 431.4386,-191 410.4386,-191 407.4386,-187 335.5614,-187 335.5614,-151 434.4386,-151 434.4386,-187"/>
<text text-anchor="middle" x="385" y="-164.8" font-family="Times,serif" font-size="14.00" fill="#000000">ConfigModule</text>
</g>
<!-- ConfigListComponent&#45;&gt;ConfigModule -->
<g id="edge1" class="edge">
<title>ConfigListComponent&#45;&gt;ConfigModule</title>
<path fill="none" stroke="#000000" d="M644,-122.1061C644,-141.3391 644,-169 644,-169 644,-169 444.3256,-169 444.3256,-169"/>
<polygon fill="#000000" stroke="#000000" points="444.3256,-165.5001 434.3256,-169 444.3255,-172.5001 444.3256,-165.5001"/>
</g>
<!-- NewRulePageComponent -->
<g id="node2" class="node">
<title>NewRulePageComponent</title>
<polygon fill="#ffffb3" stroke="#000000" points="554.9143,-122 393.0857,-122 393.0857,-86 554.9143,-86 554.9143,-122"/>
<text text-anchor="middle" x="474" y="-99.8" font-family="Times,serif" font-size="14.00" fill="#000000">NewRulePageComponent</text>
</g>
<!-- NewRulePageComponent&#45;&gt;ConfigModule -->
<g id="edge2" class="edge">
<title>NewRulePageComponent&#45;&gt;ConfigModule</title>
<path fill="none" stroke="#000000" d="M413.756,-122.1061C413.756,-122.1061 413.756,-140.991 413.756,-140.991"/>
<polygon fill="#000000" stroke="#000000" points="410.256,-140.9909 413.756,-150.991 417.256,-140.991 410.256,-140.9909"/>
</g>
<!-- ConfigModalComponent -->
<g id="node3" class="node">
<title>ConfigModalComponent</title>
<polygon fill="#ffffb3" stroke="#000000" points="375.2702,-122 218.7298,-122 218.7298,-86 375.2702,-86 375.2702,-122"/>
<text text-anchor="middle" x="297" y="-99.8" font-family="Times,serif" font-size="14.00" fill="#000000">ConfigModalComponent</text>
</g>
<!-- ConfigModalComponent&#45;&gt;ConfigModule -->
<g id="edge3" class="edge">
<title>ConfigModalComponent&#45;&gt;ConfigModule</title>
<path fill="none" stroke="#000000" d="M355.5831,-122.1061C355.5831,-122.1061 355.5831,-140.991 355.5831,-140.991"/>
<polygon fill="#000000" stroke="#000000" points="352.0832,-140.9909 355.5831,-150.991 359.0832,-140.991 352.0832,-140.9909"/>
</g>
<!-- NewRuleStepperComponent -->
<g id="node4" class="node">
<title>NewRuleStepperComponent</title>
<polygon fill="#ffffb3" stroke="#000000" points="200.465,-122 23.535,-122 23.535,-86 200.465,-86 200.465,-122"/>
<text text-anchor="middle" x="112" y="-99.8" font-family="Times,serif" font-size="14.00" fill="#000000">NewRuleStepperComponent</text>
</g>
<!-- NewRuleStepperComponent&#45;&gt;ConfigModule -->
<g id="edge4" class="edge">
<title>NewRuleStepperComponent&#45;&gt;ConfigModule</title>
<path fill="none" stroke="#000000" d="M112,-122.1061C112,-141.3391 112,-169 112,-169 112,-169 325.5618,-169 325.5618,-169"/>
<polygon fill="#000000" stroke="#000000" points="325.5618,-172.5001 335.5618,-169 325.5617,-165.5001 325.5618,-172.5001"/>
</g>
<!-- ConfigListComponent  -->
<g id="node6" class="node">
<title>ConfigListComponent </title>
<polygon fill="#fb8072" stroke="#000000" points="457.9995,-252 312.0005,-252 312.0005,-216 457.9995,-216 457.9995,-252"/>
<text text-anchor="middle" x="385" y="-229.8" font-family="Times,serif" font-size="14.00" fill="#000000">ConfigListComponent </text>
</g>
<!-- ConfigModule&#45;&gt;ConfigListComponent  -->
<g id="edge5" class="edge">
<title>ConfigModule&#45;&gt;ConfigListComponent </title>
<path fill="none" stroke="#000000" stroke-dasharray="5,2" d="M385,-187.1061C385,-187.1061 385,-205.991 385,-205.991"/>
<polygon fill="#000000" stroke="#000000" points="381.5001,-205.9909 385,-215.991 388.5001,-205.991 381.5001,-205.9909"/>
</g>
</g>
</svg>
