<?xml version="1.0" encoding="UTF-8" standalone="no"?>
<!DOCTYPE svg PUBLIC "-//W3C//DTD SVG 1.1//EN"
 "http://www.w3.org/Graphics/SVG/1.1/DTD/svg11.dtd">
<!-- Generated by graphviz version 2.40.1 (20161225.0304)
 -->
<!-- Title: dependencies Pages: 1 -->
<svg width="1985pt" height="284pt"
 viewBox="0.00 0.00 1985.00 284.00" xmlns="http://www.w3.org/2000/svg" xmlns:xlink="http://www.w3.org/1999/xlink">
<g id="graph0" class="graph" transform="scale(1 1) rotate(0) translate(4 280)">
<title>dependencies</title>
<polygon fill="#ffffff" stroke="transparent" points="-4,4 -4,-280 1981,-280 1981,4 -4,4"/>
<text text-anchor="start" x="967.5091" y="-42.4" font-family="sans-serif" font-weight="bold" font-size="14.00" fill="#000000">Legend</text>
<polygon fill="#ffffb3" stroke="transparent" points="754.5,-10 754.5,-30 774.5,-30 774.5,-10 754.5,-10"/>
<text text-anchor="start" x="778.129" y="-15.4" font-family="sans-serif" font-size="14.00" fill="#000000"> &#160;Declarations</text>
<polygon fill="#8dd3c7" stroke="transparent" points="867.5,-10 867.5,-30 887.5,-30 887.5,-10 867.5,-10"/>
<text text-anchor="start" x="891.2251" y="-15.4" font-family="sans-serif" font-size="14.00" fill="#000000"> &#160;Module</text>
<polygon fill="#80b1d3" stroke="transparent" points="953.5,-10 953.5,-30 973.5,-30 973.5,-10 953.5,-10"/>
<text text-anchor="start" x="977.2812" y="-15.4" font-family="sans-serif" font-size="14.00" fill="#000000"> &#160;Bootstrap</text>
<polygon fill="#fdb462" stroke="transparent" points="1050.5,-10 1050.5,-30 1070.5,-30 1070.5,-10 1050.5,-10"/>
<text text-anchor="start" x="1074.1732" y="-15.4" font-family="sans-serif" font-size="14.00" fill="#000000"> &#160;Providers</text>
<polygon fill="#fb8072" stroke="transparent" points="1146.5,-10 1146.5,-30 1166.5,-30 1166.5,-10 1146.5,-10"/>
<text text-anchor="start" x="1170.2258" y="-15.4" font-family="sans-serif" font-size="14.00" fill="#000000"> &#160;Exports</text>
<g id="clust1" class="cluster">
<title>cluster_ConfigModule</title>
<polygon fill="none" stroke="#000000" stroke-dasharray="1,5" points="8,-70 8,-268 1969,-268 1969,-70 8,-70"/>
</g>
<g id="clust2" class="cluster">
<title>cluster_ConfigModule_declarations</title>
<polygon fill="none" stroke="#000000" points="184,-78 184,-130 1961,-130 1961,-78 184,-78"/>
</g>
<g id="clust13" class="cluster">
<title>cluster_ConfigModule_imports</title>
<polygon fill="none" stroke="#000000" points="16,-78 16,-130 176,-130 176,-78 16,-78"/>
</g>
<g id="clust14" class="cluster">
<title>cluster_ConfigModule_exports</title>
<polygon fill="none" stroke="#000000" points="881,-208 881,-260 1043,-260 1043,-208 881,-208"/>
</g>
<!-- ConfigListComponent -->
<g id="node1" class="node">
<title>ConfigListComponent</title>
<polygon fill="#ffffb3" stroke="#000000" points="1952.9986,-122 1811.0014,-122 1811.0014,-86 1952.9986,-86 1952.9986,-122"/>
<text text-anchor="middle" x="1882" y="-99.8" font-family="Times,serif" font-size="14.00" fill="#000000">ConfigListComponent</text>
</g>
<!-- ConfigModule -->
<g id="node11" class="node">
<title>ConfigModule</title>
<polygon fill="#8dd3c7" stroke="#000000" points="1011.4386,-187 1008.4386,-191 987.4386,-191 984.4386,-187 912.5614,-187 912.5614,-151 1011.4386,-151 1011.4386,-187"/>
<text text-anchor="middle" x="962" y="-164.8" font-family="Times,serif" font-size="14.00" fill="#000000">ConfigModule</text>
</g>
<!-- ConfigListComponent&#45;&gt;ConfigModule -->
<g id="edge1" class="edge">
<title>ConfigListComponent&#45;&gt;ConfigModule</title>
<path fill="none" stroke="#000000" d="M1882,-122.2479C1882,-145.0179 1882,-181 1882,-181 1882,-181 1021.4632,-181 1021.4632,-181"/>
<polygon fill="#000000" stroke="#000000" points="1021.4632,-177.5001 1011.4632,-181 1021.4632,-184.5001 1021.4632,-177.5001"/>
</g>
<!-- ConfigModalComponent -->
<g id="node2" class="node">
<title>ConfigModalComponent</title>
<polygon fill="#ffffb3" stroke="#000000" points="1793.2702,-122 1636.7298,-122 1636.7298,-86 1793.2702,-86 1793.2702,-122"/>
<text text-anchor="middle" x="1715" y="-99.8" font-family="Times,serif" font-size="14.00" fill="#000000">ConfigModalComponent</text>
</g>
<!-- ConfigModalComponent&#45;&gt;ConfigModule -->
<g id="edge2" class="edge">
<title>ConfigModalComponent&#45;&gt;ConfigModule</title>
<path fill="none" stroke="#000000" d="M1715,-122.2843C1715,-143.3211 1715,-175 1715,-175 1715,-175 1021.4064,-175 1021.4064,-175"/>
<polygon fill="#000000" stroke="#000000" points="1021.4065,-171.5001 1011.4064,-175 1021.4064,-178.5001 1021.4065,-171.5001"/>
</g>
<!-- EditConfigModalComponent -->
<g id="node3" class="node">
<title>EditConfigModalComponent</title>
<polygon fill="#ffffb3" stroke="#000000" points="1619.1038,-122 1438.8962,-122 1438.8962,-86 1619.1038,-86 1619.1038,-122"/>
<text text-anchor="middle" x="1529" y="-99.8" font-family="Times,serif" font-size="14.00" fill="#000000">EditConfigModalComponent</text>
</g>
<!-- EditConfigModalComponent&#45;&gt;ConfigModule -->
<g id="edge3" class="edge">
<title>EditConfigModalComponent&#45;&gt;ConfigModule</title>
<path fill="none" stroke="#000000" d="M1529,-122.1061C1529,-141.3391 1529,-169 1529,-169 1529,-169 1021.3257,-169 1021.3257,-169"/>
<polygon fill="#000000" stroke="#000000" points="1021.3257,-165.5001 1011.3257,-169 1021.3256,-172.5001 1021.3257,-165.5001"/>
</g>
<!-- EditConfigPageComponent -->
<g id="node4" class="node">
<title>EditConfigPageComponent</title>
<polygon fill="#ffffb3" stroke="#000000" points="1421.266,-122 1250.734,-122 1250.734,-86 1421.266,-86 1421.266,-122"/>
<text text-anchor="middle" x="1336" y="-99.8" font-family="Times,serif" font-size="14.00" fill="#000000">EditConfigPageComponent</text>
</g>
<!-- EditConfigPageComponent&#45;&gt;ConfigModule -->
<g id="edge4" class="edge">
<title>EditConfigPageComponent&#45;&gt;ConfigModule</title>
<path fill="none" stroke="#000000" d="M1336,-122.0225C1336,-139.3734 1336,-163 1336,-163 1336,-163 1021.2786,-163 1021.2786,-163"/>
<polygon fill="#000000" stroke="#000000" points="1021.2786,-159.5001 1011.2786,-163 1021.2785,-166.5001 1021.2786,-159.5001"/>
</g>
<!-- FolderCreationComponent -->
<g id="node5" class="node">
<title>FolderCreationComponent</title>
<polygon fill="#ffffb3" stroke="#000000" points="1233.0884,-122 1066.9116,-122 1066.9116,-86 1233.0884,-86 1233.0884,-122"/>
<text text-anchor="middle" x="1150" y="-99.8" font-family="Times,serif" font-size="14.00" fill="#000000">FolderCreationComponent</text>
</g>
<!-- FolderCreationComponent&#45;&gt;ConfigModule -->
<g id="edge5" class="edge">
<title>FolderCreationComponent&#45;&gt;ConfigModule</title>
<path fill="none" stroke="#000000" d="M1150,-122.2396C1150,-137.5706 1150,-157 1150,-157 1150,-157 1021.3948,-157 1021.3948,-157"/>
<polygon fill="#000000" stroke="#000000" points="1021.3948,-153.5001 1011.3948,-157 1021.3948,-160.5001 1021.3948,-153.5001"/>
</g>
<!-- NewConfigPageComponent -->
<g id="node6" class="node">
<title>NewConfigPageComponent</title>
<polygon fill="#ffffb3" stroke="#000000" points="1048.8599,-122 875.1401,-122 875.1401,-86 1048.8599,-86 1048.8599,-122"/>
<text text-anchor="middle" x="962" y="-99.8" font-family="Times,serif" font-size="14.00" fill="#000000">NewConfigPageComponent</text>
</g>
<!-- NewConfigPageComponent&#45;&gt;ConfigModule -->
<g id="edge6" class="edge">
<title>NewConfigPageComponent&#45;&gt;ConfigModule</title>
<path fill="none" stroke="#000000" d="M962,-122.1061C962,-122.1061 962,-140.991 962,-140.991"/>
<polygon fill="#000000" stroke="#000000" points="958.5001,-140.9909 962,-150.991 965.5001,-140.991 958.5001,-140.9909"/>
</g>
<!-- NewRuleStepperComponent -->
<g id="node7" class="node">
<title>NewRuleStepperComponent</title>
<polygon fill="#ffffb3" stroke="#000000" points="857.465,-122 680.535,-122 680.535,-86 857.465,-86 857.465,-122"/>
<text text-anchor="middle" x="769" y="-99.8" font-family="Times,serif" font-size="14.00" fill="#000000">NewRuleStepperComponent</text>
</g>
<!-- NewRuleStepperComponent&#45;&gt;ConfigModule -->
<g id="edge7" class="edge">
<title>NewRuleStepperComponent&#45;&gt;ConfigModule</title>
<path fill="none" stroke="#000000" d="M769,-122.2396C769,-137.5706 769,-157 769,-157 769,-157 902.5483,-157 902.5483,-157"/>
<polygon fill="#000000" stroke="#000000" points="902.5484,-160.5001 912.5483,-157 902.5483,-153.5001 902.5484,-160.5001"/>
</g>
<!-- PresetConfigComponent -->
<g id="node8" class="node">
<title>PresetConfigComponent</title>
<polygon fill="#ffffb3" stroke="#000000" points="662.4284,-122 507.5716,-122 507.5716,-86 662.4284,-86 662.4284,-122"/>
<text text-anchor="middle" x="585" y="-99.8" font-family="Times,serif" font-size="14.00" fill="#000000">PresetConfigComponent</text>
</g>
<!-- PresetConfigComponent&#45;&gt;ConfigModule -->
<g id="edge8" class="edge">
<title>PresetConfigComponent&#45;&gt;ConfigModule</title>
<path fill="none" stroke="#000000" d="M585,-122.0225C585,-139.3734 585,-163 585,-163 585,-163 902.7138,-163 902.7138,-163"/>
<polygon fill="#000000" stroke="#000000" points="902.7139,-166.5001 912.7138,-163 902.7138,-159.5001 902.7139,-166.5001"/>
</g>
<!-- PresetConfigPageComponent -->
<g id="node9" class="node">
<title>PresetConfigPageComponent</title>
<polygon fill="#ffffb3" stroke="#000000" points="489.64,-122 308.36,-122 308.36,-86 489.64,-86 489.64,-122"/>
<text text-anchor="middle" x="399" y="-99.8" font-family="Times,serif" font-size="14.00" fill="#000000">PresetConfigPageComponent</text>
</g>
<!-- PresetConfigPageComponent&#45;&gt;ConfigModule -->
<g id="edge9" class="edge">
<title>PresetConfigPageComponent&#45;&gt;ConfigModule</title>
<path fill="none" stroke="#000000" d="M399,-122.1061C399,-141.3391 399,-169 399,-169 399,-169 902.5309,-169 902.5309,-169"/>
<polygon fill="#000000" stroke="#000000" points="902.531,-172.5001 912.5309,-169 902.5309,-165.5001 902.531,-172.5001"/>
</g>
<!-- UnNamedPipe -->
<g id="node10" class="node">
<title>UnNamedPipe</title>
<polygon fill="#ffffb3" stroke="#000000" points="290.4217,-122 191.5783,-122 191.5783,-86 290.4217,-86 290.4217,-122"/>
<text text-anchor="middle" x="241" y="-99.8" font-family="Times,serif" font-size="14.00" fill="#000000">UnNamedPipe</text>
</g>
<!-- UnNamedPipe&#45;&gt;ConfigModule -->
<g id="edge10" class="edge">
<title>UnNamedPipe&#45;&gt;ConfigModule</title>
<path fill="none" stroke="#000000" d="M241,-122.2843C241,-143.3211 241,-175 241,-175 241,-175 902.7265,-175 902.7265,-175"/>
<polygon fill="#000000" stroke="#000000" points="902.7266,-178.5001 912.7265,-175 902.7265,-171.5001 902.7266,-178.5001"/>
</g>
<!-- ConfigListComponent  -->
<g id="node13" class="node">
<title>ConfigListComponent </title>
<polygon fill="#fb8072" stroke="#000000" points="1034.9995,-252 889.0005,-252 889.0005,-216 1034.9995,-216 1034.9995,-252"/>
<text text-anchor="middle" x="962" y="-229.8" font-family="Times,serif" font-size="14.00" fill="#000000">ConfigListComponent </text>
</g>
<!-- ConfigModule&#45;&gt;ConfigListComponent  -->
<g id="edge12" class="edge">
<title>ConfigModule&#45;&gt;ConfigListComponent </title>
<path fill="none" stroke="#000000" stroke-dasharray="5,2" d="M962,-187.1061C962,-187.1061 962,-205.991 962,-205.991"/>
<polygon fill="#000000" stroke="#000000" points="958.5001,-205.9909 962,-215.991 965.5001,-205.991 958.5001,-205.9909"/>
</g>
<!-- ConfigRoutingModule -->
<g id="node12" class="node">
<title>ConfigRoutingModule</title>
<polygon fill="#8dd3c7" stroke="#000000" points="167.5561,-122 164.5561,-126 143.5561,-126 140.5561,-122 24.4439,-122 24.4439,-86 167.5561,-86 167.5561,-122"/>
<text text-anchor="middle" x="96" y="-99.8" font-family="Times,serif" font-size="14.00" fill="#000000">ConfigRoutingModule</text>
</g>
<!-- ConfigRoutingModule&#45;&gt;ConfigModule -->
<g id="edge11" class="edge">
<title>ConfigRoutingModule&#45;&gt;ConfigModule</title>
<path fill="none" stroke="#000000" d="M96,-122.2479C96,-145.0179 96,-181 96,-181 96,-181 902.6447,-181 902.6447,-181"/>
<polygon fill="#000000" stroke="#000000" points="902.6447,-184.5001 912.6447,-181 902.6447,-177.5001 902.6447,-184.5001"/>
</g>
</g>
</svg>
