<?xml version="1.0" encoding="UTF-8" standalone="no"?>
<!DOCTYPE svg PUBLIC "-//W3C//DTD SVG 1.1//EN"
 "http://www.w3.org/Graphics/SVG/1.1/DTD/svg11.dtd">
<!-- Generated by graphviz version 2.40.1 (20161225.0304)
 -->
<!-- Title: dependencies Pages: 1 -->
<svg width="958pt" height="284pt"
 viewBox="0.00 0.00 958.00 284.00" xmlns="http://www.w3.org/2000/svg" xmlns:xlink="http://www.w3.org/1999/xlink">
<g id="graph0" class="graph" transform="scale(1 1) rotate(0) translate(4 280)">
<title>dependencies</title>
<polygon fill="#ffffff" stroke="transparent" points="-4,4 -4,-280 954,-280 954,4 -4,4"/>
<text text-anchor="start" x="454.0091" y="-42.4" font-family="sans-serif" font-weight="bold" font-size="14.00" fill="#000000">Legend</text>
<polygon fill="#ffffb3" stroke="transparent" points="241,-10 241,-30 261,-30 261,-10 241,-10"/>
<text text-anchor="start" x="264.629" y="-15.4" font-family="sans-serif" font-size="14.00" fill="#000000"> &#160;Declarations</text>
<polygon fill="#8dd3c7" stroke="transparent" points="354,-10 354,-30 374,-30 374,-10 354,-10"/>
<text text-anchor="start" x="377.7251" y="-15.4" font-family="sans-serif" font-size="14.00" fill="#000000"> &#160;Module</text>
<polygon fill="#80b1d3" stroke="transparent" points="440,-10 440,-30 460,-30 460,-10 440,-10"/>
<text text-anchor="start" x="463.7812" y="-15.4" font-family="sans-serif" font-size="14.00" fill="#000000"> &#160;Bootstrap</text>
<polygon fill="#fdb462" stroke="transparent" points="537,-10 537,-30 557,-30 557,-10 537,-10"/>
<text text-anchor="start" x="560.6732" y="-15.4" font-family="sans-serif" font-size="14.00" fill="#000000"> &#160;Providers</text>
<polygon fill="#fb8072" stroke="transparent" points="633,-10 633,-30 653,-30 653,-10 633,-10"/>
<text text-anchor="start" x="656.7258" y="-15.4" font-family="sans-serif" font-size="14.00" fill="#000000"> &#160;Exports</text>
<g id="clust1" class="cluster">
<title>cluster_ConfigModule</title>
<polygon fill="none" stroke="#000000" stroke-dasharray="1,5" points="8,-70 8,-268 942,-268 942,-70 8,-70"/>
</g>
<g id="clust2" class="cluster">
<title>cluster_ConfigModule_declarations</title>
<polygon fill="none" stroke="#000000" points="16,-78 16,-130 934,-130 934,-78 16,-78"/>
</g>
<g id="clust9" class="cluster">
<title>cluster_ConfigModule_exports</title>
<polygon fill="none" stroke="#000000" points="415,-208 415,-260 577,-260 577,-208 415,-208"/>
</g>
<!-- ConfigListComponent -->
<g id="node1" class="node">
<title>ConfigListComponent</title>
<polygon fill="#ffffb3" stroke="#000000" points="925.9986,-122 784.0014,-122 784.0014,-86 925.9986,-86 925.9986,-122"/>
<text text-anchor="middle" x="855" y="-99.8" font-family="Times,serif" font-size="14.00" fill="#000000">ConfigListComponent</text>
</g>
<!-- ConfigModule -->
<g id="node6" class="node">
<title>ConfigModule</title>
<polygon fill="#8dd3c7" stroke="#000000" points="545.4386,-187 542.4386,-191 521.4386,-191 518.4386,-187 446.5614,-187 446.5614,-151 545.4386,-151 545.4386,-187"/>
<text text-anchor="middle" x="496" y="-164.8" font-family="Times,serif" font-size="14.00" fill="#000000">ConfigModule</text>
</g>
<!-- ConfigListComponent&#45;&gt;ConfigModule -->
<g id="edge1" class="edge">
<title>ConfigListComponent&#45;&gt;ConfigModule</title>
<path fill="none" stroke="#000000" d="M855,-122.2843C855,-143.3211 855,-175 855,-175 855,-175 555.5405,-175 555.5405,-175"/>
<polygon fill="#000000" stroke="#000000" points="555.5405,-171.5001 545.5405,-175 555.5405,-178.5001 555.5405,-171.5001"/>
</g>
<!-- NewConfigPageComponent -->
<g id="node2" class="node">
<title>NewConfigPageComponent</title>
<polygon fill="#ffffb3" stroke="#000000" points="765.8599,-122 592.1401,-122 592.1401,-86 765.8599,-86 765.8599,-122"/>
<text text-anchor="middle" x="679" y="-99.8" font-family="Times,serif" font-size="14.00" fill="#000000">NewConfigPageComponent</text>
</g>
<!-- NewConfigPageComponent&#45;&gt;ConfigModule -->
<g id="edge2" class="edge">
<title>NewConfigPageComponent&#45;&gt;ConfigModule</title>
<path fill="none" stroke="#000000" d="M679,-122.0225C679,-139.3734 679,-163 679,-163 679,-163 555.5224,-163 555.5224,-163"/>
<polygon fill="#000000" stroke="#000000" points="555.5225,-159.5001 545.5224,-163 555.5224,-166.5001 555.5225,-159.5001"/>
</g>
<!-- ConfigModalComponent -->
<g id="node3" class="node">
<title>ConfigModalComponent</title>
<polygon fill="#ffffb3" stroke="#000000" points="574.2702,-122 417.7298,-122 417.7298,-86 574.2702,-86 574.2702,-122"/>
<text text-anchor="middle" x="496" y="-99.8" font-family="Times,serif" font-size="14.00" fill="#000000">ConfigModalComponent</text>
</g>
<!-- ConfigModalComponent&#45;&gt;ConfigModule -->
<g id="edge3" class="edge">
<title>ConfigModalComponent&#45;&gt;ConfigModule</title>
<path fill="none" stroke="#000000" d="M496,-122.1061C496,-122.1061 496,-140.991 496,-140.991"/>
<polygon fill="#000000" stroke="#000000" points="492.5001,-140.9909 496,-150.991 499.5001,-140.991 492.5001,-140.9909"/>
</g>
<!-- NewRuleStepperComponent -->
<g id="node4" class="node">
<title>NewRuleStepperComponent</title>
<polygon fill="#ffffb3" stroke="#000000" points="399.465,-122 222.535,-122 222.535,-86 399.465,-86 399.465,-122"/>
<text text-anchor="middle" x="311" y="-99.8" font-family="Times,serif" font-size="14.00" fill="#000000">NewRuleStepperComponent</text>
</g>
<!-- NewRuleStepperComponent&#45;&gt;ConfigModule -->
<g id="edge4" class="edge">
<title>NewRuleStepperComponent&#45;&gt;ConfigModule</title>
<path fill="none" stroke="#000000" d="M311,-122.0225C311,-139.3734 311,-163 311,-163 311,-163 436.4234,-163 436.4234,-163"/>
<polygon fill="#000000" stroke="#000000" points="436.4234,-166.5001 446.4234,-163 436.4234,-159.5001 436.4234,-166.5001"/>
</g>
<!-- EditConfigModalComponent -->
<g id="node5" class="node">
<title>EditConfigModalComponent</title>
<polygon fill="#ffffb3" stroke="#000000" points="204.1038,-122 23.8962,-122 23.8962,-86 204.1038,-86 204.1038,-122"/>
<text text-anchor="middle" x="114" y="-99.8" font-family="Times,serif" font-size="14.00" fill="#000000">EditConfigModalComponent</text>
</g>
<!-- EditConfigModalComponent&#45;&gt;ConfigModule -->
<g id="edge5" class="edge">
<title>EditConfigModalComponent&#45;&gt;ConfigModule</title>
<path fill="none" stroke="#000000" d="M114,-122.2843C114,-143.3211 114,-175 114,-175 114,-175 436.4518,-175 436.4518,-175"/>
<polygon fill="#000000" stroke="#000000" points="436.4518,-178.5001 446.4518,-175 436.4518,-171.5001 436.4518,-178.5001"/>
</g>
<!-- ConfigListComponent  -->
<g id="node7" class="node">
<title>ConfigListComponent </title>
<polygon fill="#fb8072" stroke="#000000" points="568.9995,-252 423.0005,-252 423.0005,-216 568.9995,-216 568.9995,-252"/>
<text text-anchor="middle" x="496" y="-229.8" font-family="Times,serif" font-size="14.00" fill="#000000">ConfigListComponent </text>
</g>
<!-- ConfigModule&#45;&gt;ConfigListComponent  -->
<g id="edge6" class="edge">
<title>ConfigModule&#45;&gt;ConfigListComponent </title>
<path fill="none" stroke="#000000" stroke-dasharray="5,2" d="M496,-187.1061C496,-187.1061 496,-205.991 496,-205.991"/>
<polygon fill="#000000" stroke="#000000" points="492.5001,-205.9909 496,-215.991 499.5001,-205.991 492.5001,-205.9909"/>
</g>
</g>
</svg>
