<?xml version="1.0" encoding="UTF-8" standalone="no"?>
<!DOCTYPE svg PUBLIC "-//W3C//DTD SVG 1.1//EN"
 "http://www.w3.org/Graphics/SVG/1.1/DTD/svg11.dtd">
<!-- Generated by graphviz version 2.40.1 (20161225.0304)
 -->
<!-- Title: dependencies Pages: 1 -->
<svg width="1263pt" height="284pt"
 viewBox="0.00 0.00 1263.00 284.00" xmlns="http://www.w3.org/2000/svg" xmlns:xlink="http://www.w3.org/1999/xlink">
<g id="graph0" class="graph" transform="scale(1 1) rotate(0) translate(4 280)">
<title>dependencies</title>
<polygon fill="#ffffff" stroke="transparent" points="-4,4 -4,-280 1259,-280 1259,4 -4,4"/>
<text text-anchor="start" x="606.5091" y="-42.4" font-family="sans-serif" font-weight="bold" font-size="14.00" fill="#000000">Legend</text>
<polygon fill="#ffffb3" stroke="transparent" points="393.5,-10 393.5,-30 413.5,-30 413.5,-10 393.5,-10"/>
<text text-anchor="start" x="417.129" y="-15.4" font-family="sans-serif" font-size="14.00" fill="#000000"> &#160;Declarations</text>
<polygon fill="#8dd3c7" stroke="transparent" points="506.5,-10 506.5,-30 526.5,-30 526.5,-10 506.5,-10"/>
<text text-anchor="start" x="530.2251" y="-15.4" font-family="sans-serif" font-size="14.00" fill="#000000"> &#160;Module</text>
<polygon fill="#80b1d3" stroke="transparent" points="592.5,-10 592.5,-30 612.5,-30 612.5,-10 592.5,-10"/>
<text text-anchor="start" x="616.2812" y="-15.4" font-family="sans-serif" font-size="14.00" fill="#000000"> &#160;Bootstrap</text>
<polygon fill="#fdb462" stroke="transparent" points="689.5,-10 689.5,-30 709.5,-30 709.5,-10 689.5,-10"/>
<text text-anchor="start" x="713.1732" y="-15.4" font-family="sans-serif" font-size="14.00" fill="#000000"> &#160;Providers</text>
<polygon fill="#fb8072" stroke="transparent" points="785.5,-10 785.5,-30 805.5,-30 805.5,-10 785.5,-10"/>
<text text-anchor="start" x="809.2258" y="-15.4" font-family="sans-serif" font-size="14.00" fill="#000000"> &#160;Exports</text>
<g id="clust1" class="cluster">
<title>cluster_ConfigModule</title>
<polygon fill="none" stroke="#000000" stroke-dasharray="1,5" points="8,-70 8,-268 1247,-268 1247,-70 8,-70"/>
</g>
<g id="clust2" class="cluster">
<title>cluster_ConfigModule_declarations</title>
<polygon fill="none" stroke="#000000" points="16,-78 16,-130 1239,-130 1239,-78 16,-78"/>
</g>
<g id="clust11" class="cluster">
<title>cluster_ConfigModule_exports</title>
<polygon fill="none" stroke="#000000" points="535,-208 535,-260 697,-260 697,-208 535,-208"/>
</g>
<!-- ConfigListComponent -->
<g id="node1" class="node">
<title>ConfigListComponent</title>
<polygon fill="#ffffb3" stroke="#000000" points="1230.9986,-122 1089.0014,-122 1089.0014,-86 1230.9986,-86 1230.9986,-122"/>
<text text-anchor="middle" x="1160" y="-99.8" font-family="Times,serif" font-size="14.00" fill="#000000">ConfigListComponent</text>
</g>
<!-- ConfigModule -->
<g id="node8" class="node">
<title>ConfigModule</title>
<polygon fill="#8dd3c7" stroke="#000000" points="665.4386,-187 662.4386,-191 641.4386,-191 638.4386,-187 566.5614,-187 566.5614,-151 665.4386,-151 665.4386,-187"/>
<text text-anchor="middle" x="616" y="-164.8" font-family="Times,serif" font-size="14.00" fill="#000000">ConfigModule</text>
</g>
<!-- ConfigListComponent&#45;&gt;ConfigModule -->
<g id="edge1" class="edge">
<title>ConfigListComponent&#45;&gt;ConfigModule</title>
<path fill="none" stroke="#000000" d="M1160,-122.2921C1160,-144.2057 1160,-178 1160,-178 1160,-178 675.2358,-178 675.2358,-178"/>
<polygon fill="#000000" stroke="#000000" points="675.2359,-174.5001 665.2358,-178 675.2358,-181.5001 675.2359,-174.5001"/>
</g>
<!-- NewConfigPageComponent -->
<g id="node2" class="node">
<title>NewConfigPageComponent</title>
<polygon fill="#ffffb3" stroke="#000000" points="1070.8599,-122 897.1401,-122 897.1401,-86 1070.8599,-86 1070.8599,-122"/>
<text text-anchor="middle" x="984" y="-99.8" font-family="Times,serif" font-size="14.00" fill="#000000">NewConfigPageComponent</text>
</g>
<!-- NewConfigPageComponent&#45;&gt;ConfigModule -->
<g id="edge2" class="edge">
<title>NewConfigPageComponent&#45;&gt;ConfigModule</title>
<path fill="none" stroke="#000000" d="M984,-122.1061C984,-141.3391 984,-169 984,-169 984,-169 675.2483,-169 675.2483,-169"/>
<polygon fill="#000000" stroke="#000000" points="675.2483,-165.5001 665.2483,-169 675.2482,-172.5001 675.2483,-165.5001"/>
</g>
<!-- ConfigModalComponent -->
<g id="node3" class="node">
<title>ConfigModalComponent</title>
<polygon fill="#ffffb3" stroke="#000000" points="879.2702,-122 722.7298,-122 722.7298,-86 879.2702,-86 879.2702,-122"/>
<text text-anchor="middle" x="801" y="-99.8" font-family="Times,serif" font-size="14.00" fill="#000000">ConfigModalComponent</text>
</g>
<!-- ConfigModalComponent&#45;&gt;ConfigModule -->
<g id="edge3" class="edge">
<title>ConfigModalComponent&#45;&gt;ConfigModule</title>
<path fill="none" stroke="#000000" d="M801,-122.027C801,-138.3976 801,-160 801,-160 801,-160 675.5766,-160 675.5766,-160"/>
<polygon fill="#000000" stroke="#000000" points="675.5766,-156.5001 665.5766,-160 675.5766,-163.5001 675.5766,-156.5001"/>
</g>
<!-- NewRuleStepperComponent -->
<g id="node4" class="node">
<title>NewRuleStepperComponent</title>
<polygon fill="#ffffb3" stroke="#000000" points="704.465,-122 527.535,-122 527.535,-86 704.465,-86 704.465,-122"/>
<text text-anchor="middle" x="616" y="-99.8" font-family="Times,serif" font-size="14.00" fill="#000000">NewRuleStepperComponent</text>
</g>
<!-- NewRuleStepperComponent&#45;&gt;ConfigModule -->
<g id="edge4" class="edge">
<title>NewRuleStepperComponent&#45;&gt;ConfigModule</title>
<path fill="none" stroke="#000000" d="M616,-122.1061C616,-122.1061 616,-140.991 616,-140.991"/>
<polygon fill="#000000" stroke="#000000" points="612.5001,-140.9909 616,-150.991 619.5001,-140.991 612.5001,-140.9909"/>
</g>
<!-- EditConfigModalComponent -->
<g id="node5" class="node">
<title>EditConfigModalComponent</title>
<polygon fill="#ffffb3" stroke="#000000" points="509.1038,-122 328.8962,-122 328.8962,-86 509.1038,-86 509.1038,-122"/>
<text text-anchor="middle" x="419" y="-99.8" font-family="Times,serif" font-size="14.00" fill="#000000">EditConfigModalComponent</text>
</g>
<!-- EditConfigModalComponent&#45;&gt;ConfigModule -->
<g id="edge5" class="edge">
<title>EditConfigModalComponent&#45;&gt;ConfigModule</title>
<path fill="none" stroke="#000000" d="M419,-122.027C419,-138.3976 419,-160 419,-160 419,-160 556.5429,-160 556.5429,-160"/>
<polygon fill="#000000" stroke="#000000" points="556.5429,-163.5001 566.5429,-160 556.5428,-156.5001 556.5429,-163.5001"/>
</g>
<!-- EditConfigPageComponent -->
<g id="node6" class="node">
<title>EditConfigPageComponent</title>
<polygon fill="#ffffb3" stroke="#000000" points="311.266,-122 140.734,-122 140.734,-86 311.266,-86 311.266,-122"/>
<text text-anchor="middle" x="226" y="-99.8" font-family="Times,serif" font-size="14.00" fill="#000000">EditConfigPageComponent</text>
</g>
<!-- EditConfigPageComponent&#45;&gt;ConfigModule -->
<g id="edge6" class="edge">
<title>EditConfigPageComponent&#45;&gt;ConfigModule</title>
<path fill="none" stroke="#000000" d="M226,-122.1061C226,-141.3391 226,-169 226,-169 226,-169 556.6062,-169 556.6062,-169"/>
<polygon fill="#000000" stroke="#000000" points="556.6063,-172.5001 566.6062,-169 556.6062,-165.5001 556.6063,-172.5001"/>
</g>
<!-- UnNamedPipe -->
<g id="node7" class="node">
<title>UnNamedPipe</title>
<polygon fill="#ffffb3" stroke="#000000" points="122.4217,-122 23.5783,-122 23.5783,-86 122.4217,-86 122.4217,-122"/>
<text text-anchor="middle" x="73" y="-99.8" font-family="Times,serif" font-size="14.00" fill="#000000">UnNamedPipe</text>
</g>
<!-- UnNamedPipe&#45;&gt;ConfigModule -->
<g id="edge7" class="edge">
<title>UnNamedPipe&#45;&gt;ConfigModule</title>
<path fill="none" stroke="#000000" d="M73,-122.2921C73,-144.2057 73,-178 73,-178 73,-178 556.3729,-178 556.3729,-178"/>
<polygon fill="#000000" stroke="#000000" points="556.3729,-181.5001 566.3729,-178 556.3729,-174.5001 556.3729,-181.5001"/>
</g>
<!-- ConfigListComponent  -->
<g id="node9" class="node">
<title>ConfigListComponent </title>
<polygon fill="#fb8072" stroke="#000000" points="688.9995,-252 543.0005,-252 543.0005,-216 688.9995,-216 688.9995,-252"/>
<text text-anchor="middle" x="616" y="-229.8" font-family="Times,serif" font-size="14.00" fill="#000000">ConfigListComponent </text>
</g>
<!-- ConfigModule&#45;&gt;ConfigListComponent  -->
<g id="edge8" class="edge">
<title>ConfigModule&#45;&gt;ConfigListComponent </title>
<path fill="none" stroke="#000000" stroke-dasharray="5,2" d="M616,-187.1061C616,-187.1061 616,-205.991 616,-205.991"/>
<polygon fill="#000000" stroke="#000000" points="612.5001,-205.9909 616,-215.991 619.5001,-205.991 612.5001,-205.9909"/>
</g>
</g>
</svg>
