<?xml version="1.0" encoding="UTF-8" standalone="no"?>
<!DOCTYPE svg PUBLIC "-//W3C//DTD SVG 1.1//EN"
 "http://www.w3.org/Graphics/SVG/1.1/DTD/svg11.dtd">
<!-- Generated by graphviz version 2.40.1 (20161225.0304)
 -->
<!-- Title: dependencies Pages: 1 -->
<svg width="1986pt" height="284pt"
 viewBox="0.00 0.00 1986.00 284.00" xmlns="http://www.w3.org/2000/svg" xmlns:xlink="http://www.w3.org/1999/xlink">
<g id="graph0" class="graph" transform="scale(1 1) rotate(0) translate(4 280)">
<title>dependencies</title>
<polygon fill="#ffffff" stroke="transparent" points="-4,4 -4,-280 1982,-280 1982,4 -4,4"/>
<text text-anchor="start" x="968.0091" y="-42.4" font-family="sans-serif" font-weight="bold" font-size="14.00" fill="#000000">Legend</text>
<polygon fill="#ffffb3" stroke="transparent" points="755,-10 755,-30 775,-30 775,-10 755,-10"/>
<text text-anchor="start" x="778.629" y="-15.4" font-family="sans-serif" font-size="14.00" fill="#000000"> &#160;Declarations</text>
<polygon fill="#8dd3c7" stroke="transparent" points="868,-10 868,-30 888,-30 888,-10 868,-10"/>
<text text-anchor="start" x="891.7251" y="-15.4" font-family="sans-serif" font-size="14.00" fill="#000000"> &#160;Module</text>
<polygon fill="#80b1d3" stroke="transparent" points="954,-10 954,-30 974,-30 974,-10 954,-10"/>
<text text-anchor="start" x="977.7812" y="-15.4" font-family="sans-serif" font-size="14.00" fill="#000000"> &#160;Bootstrap</text>
<polygon fill="#fdb462" stroke="transparent" points="1051,-10 1051,-30 1071,-30 1071,-10 1051,-10"/>
<text text-anchor="start" x="1074.6732" y="-15.4" font-family="sans-serif" font-size="14.00" fill="#000000"> &#160;Providers</text>
<polygon fill="#fb8072" stroke="transparent" points="1147,-10 1147,-30 1167,-30 1167,-10 1147,-10"/>
<text text-anchor="start" x="1170.7258" y="-15.4" font-family="sans-serif" font-size="14.00" fill="#000000"> &#160;Exports</text>
<g id="clust1" class="cluster">
<title>cluster_ConfigModule</title>
<polygon fill="none" stroke="#000000" stroke-dasharray="1,5" points="8,-70 8,-268 1970,-268 1970,-70 8,-70"/>
</g>
<g id="clust2" class="cluster">
<title>cluster_ConfigModule_declarations</title>
<polygon fill="none" stroke="#000000" points="184,-78 184,-130 1962,-130 1962,-78 184,-78"/>
</g>
<g id="clust13" class="cluster">
<title>cluster_ConfigModule_imports</title>
<polygon fill="none" stroke="#000000" points="16,-78 16,-130 176,-130 176,-78 16,-78"/>
</g>
<g id="clust14" class="cluster">
<title>cluster_ConfigModule_exports</title>
<polygon fill="none" stroke="#000000" points="868,-208 868,-260 1030,-260 1030,-208 868,-208"/>
</g>
<!-- ConfigListComponent -->
<g id="node1" class="node">
<title>ConfigListComponent</title>
<polygon fill="#ffffb3" stroke="#000000" points="1953.9986,-122 1812.0014,-122 1812.0014,-86 1953.9986,-86 1953.9986,-122"/>
<text text-anchor="middle" x="1883" y="-99.8" font-family="Times,serif" font-size="14.00" fill="#000000">ConfigListComponent</text>
</g>
<!-- ConfigModule -->
<g id="node11" class="node">
<title>ConfigModule</title>
<polygon fill="#8dd3c7" stroke="#000000" points="998.4386,-187 995.4386,-191 974.4386,-191 971.4386,-187 899.5614,-187 899.5614,-151 998.4386,-151 998.4386,-187"/>
<text text-anchor="middle" x="949" y="-164.8" font-family="Times,serif" font-size="14.00" fill="#000000">ConfigModule</text>
</g>
<!-- ConfigListComponent&#45;&gt;ConfigModule -->
<g id="edge1" class="edge">
<title>ConfigListComponent&#45;&gt;ConfigModule</title>
<path fill="none" stroke="#000000" d="M1883,-122.2479C1883,-145.0179 1883,-181 1883,-181 1883,-181 1008.2282,-181 1008.2282,-181"/>
<polygon fill="#000000" stroke="#000000" points="1008.2282,-177.5001 998.2282,-181 1008.2281,-184.5001 1008.2282,-177.5001"/>
</g>
<!-- NewConfigPageComponent -->
<g id="node2" class="node">
<title>NewConfigPageComponent</title>
<polygon fill="#ffffb3" stroke="#000000" points="1793.8599,-122 1620.1401,-122 1620.1401,-86 1793.8599,-86 1793.8599,-122"/>
<text text-anchor="middle" x="1707" y="-99.8" font-family="Times,serif" font-size="14.00" fill="#000000">NewConfigPageComponent</text>
</g>
<!-- NewConfigPageComponent&#45;&gt;ConfigModule -->
<g id="edge2" class="edge">
<title>NewConfigPageComponent&#45;&gt;ConfigModule</title>
<path fill="none" stroke="#000000" d="M1707,-122.2843C1707,-143.3211 1707,-175 1707,-175 1707,-175 1008.4421,-175 1008.4421,-175"/>
<polygon fill="#000000" stroke="#000000" points="1008.4421,-171.5001 998.4421,-175 1008.4421,-178.5001 1008.4421,-171.5001"/>
</g>
<!-- ConfigModalComponent -->
<g id="node3" class="node">
<title>ConfigModalComponent</title>
<polygon fill="#ffffb3" stroke="#000000" points="1602.2702,-122 1445.7298,-122 1445.7298,-86 1602.2702,-86 1602.2702,-122"/>
<text text-anchor="middle" x="1524" y="-99.8" font-family="Times,serif" font-size="14.00" fill="#000000">ConfigModalComponent</text>
</g>
<!-- ConfigModalComponent&#45;&gt;ConfigModule -->
<g id="edge3" class="edge">
<title>ConfigModalComponent&#45;&gt;ConfigModule</title>
<path fill="none" stroke="#000000" d="M1524,-122.1061C1524,-141.3391 1524,-169 1524,-169 1524,-169 1008.5218,-169 1008.5218,-169"/>
<polygon fill="#000000" stroke="#000000" points="1008.5219,-165.5001 998.5218,-169 1008.5218,-172.5001 1008.5219,-165.5001"/>
</g>
<!-- NewRuleStepperComponent -->
<g id="node4" class="node">
<title>NewRuleStepperComponent</title>
<polygon fill="#ffffb3" stroke="#000000" points="1427.465,-122 1250.535,-122 1250.535,-86 1427.465,-86 1427.465,-122"/>
<text text-anchor="middle" x="1339" y="-99.8" font-family="Times,serif" font-size="14.00" fill="#000000">NewRuleStepperComponent</text>
</g>
<!-- NewRuleStepperComponent&#45;&gt;ConfigModule -->
<g id="edge4" class="edge">
<title>NewRuleStepperComponent&#45;&gt;ConfigModule</title>
<path fill="none" stroke="#000000" d="M1339,-122.0225C1339,-139.3734 1339,-163 1339,-163 1339,-163 1008.3938,-163 1008.3938,-163"/>
<polygon fill="#000000" stroke="#000000" points="1008.3938,-159.5001 998.3938,-163 1008.3937,-166.5001 1008.3938,-159.5001"/>
</g>
<!-- EditConfigModalComponent -->
<g id="node5" class="node">
<title>EditConfigModalComponent</title>
<polygon fill="#ffffb3" stroke="#000000" points="1232.1038,-122 1051.8962,-122 1051.8962,-86 1232.1038,-86 1232.1038,-122"/>
<text text-anchor="middle" x="1142" y="-99.8" font-family="Times,serif" font-size="14.00" fill="#000000">EditConfigModalComponent</text>
</g>
<!-- EditConfigModalComponent&#45;&gt;ConfigModule -->
<g id="edge5" class="edge">
<title>EditConfigModalComponent&#45;&gt;ConfigModule</title>
<path fill="none" stroke="#000000" d="M1142,-122.2396C1142,-137.5706 1142,-157 1142,-157 1142,-157 1008.4517,-157 1008.4517,-157"/>
<polygon fill="#000000" stroke="#000000" points="1008.4517,-153.5001 998.4517,-157 1008.4516,-160.5001 1008.4517,-153.5001"/>
</g>
<!-- EditConfigPageComponent -->
<g id="node6" class="node">
<title>EditConfigPageComponent</title>
<polygon fill="#ffffb3" stroke="#000000" points="1034.266,-122 863.734,-122 863.734,-86 1034.266,-86 1034.266,-122"/>
<text text-anchor="middle" x="949" y="-99.8" font-family="Times,serif" font-size="14.00" fill="#000000">EditConfigPageComponent</text>
</g>
<!-- EditConfigPageComponent&#45;&gt;ConfigModule -->
<g id="edge6" class="edge">
<title>EditConfigPageComponent&#45;&gt;ConfigModule</title>
<path fill="none" stroke="#000000" d="M949,-122.1061C949,-122.1061 949,-140.991 949,-140.991"/>
<polygon fill="#000000" stroke="#000000" points="945.5001,-140.9909 949,-150.991 952.5001,-140.991 945.5001,-140.9909"/>
</g>
<!-- FolderCreationComponent -->
<g id="node7" class="node">
<title>FolderCreationComponent</title>
<polygon fill="#ffffb3" stroke="#000000" points="846.0884,-122 679.9116,-122 679.9116,-86 846.0884,-86 846.0884,-122"/>
<text text-anchor="middle" x="763" y="-99.8" font-family="Times,serif" font-size="14.00" fill="#000000">FolderCreationComponent</text>
</g>
<!-- FolderCreationComponent&#45;&gt;ConfigModule -->
<g id="edge7" class="edge">
<title>FolderCreationComponent&#45;&gt;ConfigModule</title>
<path fill="none" stroke="#000000" d="M763,-122.2396C763,-137.5706 763,-157 763,-157 763,-157 889.6437,-157 889.6437,-157"/>
<polygon fill="#000000" stroke="#000000" points="889.6438,-160.5001 899.6437,-157 889.6437,-153.5001 889.6438,-160.5001"/>
</g>
<!-- PresetConfigComponent -->
<g id="node8" class="node">
<title>PresetConfigComponent</title>
<polygon fill="#ffffb3" stroke="#000000" points="662.4284,-122 507.5716,-122 507.5716,-86 662.4284,-86 662.4284,-122"/>
<text text-anchor="middle" x="585" y="-99.8" font-family="Times,serif" font-size="14.00" fill="#000000">PresetConfigComponent</text>
</g>
<!-- PresetConfigComponent&#45;&gt;ConfigModule -->
<g id="edge8" class="edge">
<title>PresetConfigComponent&#45;&gt;ConfigModule</title>
<path fill="none" stroke="#000000" d="M585,-122.0225C585,-139.3734 585,-163 585,-163 585,-163 889.5305,-163 889.5305,-163"/>
<polygon fill="#000000" stroke="#000000" points="889.5306,-166.5001 899.5305,-163 889.5305,-159.5001 889.5306,-166.5001"/>
</g>
<!-- PresetConfigPageComponent -->
<g id="node9" class="node">
<title>PresetConfigPageComponent</title>
<polygon fill="#ffffb3" stroke="#000000" points="489.64,-122 308.36,-122 308.36,-86 489.64,-86 489.64,-122"/>
<text text-anchor="middle" x="399" y="-99.8" font-family="Times,serif" font-size="14.00" fill="#000000">PresetConfigPageComponent</text>
</g>
<!-- PresetConfigPageComponent&#45;&gt;ConfigModule -->
<g id="edge9" class="edge">
<title>PresetConfigPageComponent&#45;&gt;ConfigModule</title>
<path fill="none" stroke="#000000" d="M399,-122.1061C399,-141.3391 399,-169 399,-169 399,-169 889.7071,-169 889.7071,-169"/>
<polygon fill="#000000" stroke="#000000" points="889.7072,-172.5001 899.7071,-169 889.7071,-165.5001 889.7072,-172.5001"/>
</g>
<!-- UnNamedPipe -->
<g id="node10" class="node">
<title>UnNamedPipe</title>
<polygon fill="#ffffb3" stroke="#000000" points="290.4217,-122 191.5783,-122 191.5783,-86 290.4217,-86 290.4217,-122"/>
<text text-anchor="middle" x="241" y="-99.8" font-family="Times,serif" font-size="14.00" fill="#000000">UnNamedPipe</text>
</g>
<!-- UnNamedPipe&#45;&gt;ConfigModule -->
<g id="edge10" class="edge">
<title>UnNamedPipe&#45;&gt;ConfigModule</title>
<path fill="none" stroke="#000000" d="M241,-122.2843C241,-143.3211 241,-175 241,-175 241,-175 889.7769,-175 889.7769,-175"/>
<polygon fill="#000000" stroke="#000000" points="889.777,-178.5001 899.7769,-175 889.7769,-171.5001 889.777,-178.5001"/>
</g>
<!-- ConfigListComponent  -->
<g id="node13" class="node">
<title>ConfigListComponent </title>
<polygon fill="#fb8072" stroke="#000000" points="1021.9995,-252 876.0005,-252 876.0005,-216 1021.9995,-216 1021.9995,-252"/>
<text text-anchor="middle" x="949" y="-229.8" font-family="Times,serif" font-size="14.00" fill="#000000">ConfigListComponent </text>
</g>
<!-- ConfigModule&#45;&gt;ConfigListComponent  -->
<g id="edge12" class="edge">
<title>ConfigModule&#45;&gt;ConfigListComponent </title>
<path fill="none" stroke="#000000" stroke-dasharray="5,2" d="M949,-187.1061C949,-187.1061 949,-205.991 949,-205.991"/>
<polygon fill="#000000" stroke="#000000" points="945.5001,-205.9909 949,-215.991 952.5001,-205.991 945.5001,-205.9909"/>
</g>
<!-- ConfigRoutingModule -->
<g id="node12" class="node">
<title>ConfigRoutingModule</title>
<polygon fill="#8dd3c7" stroke="#000000" points="167.5561,-122 164.5561,-126 143.5561,-126 140.5561,-122 24.4439,-122 24.4439,-86 167.5561,-86 167.5561,-122"/>
<text text-anchor="middle" x="96" y="-99.8" font-family="Times,serif" font-size="14.00" fill="#000000">ConfigRoutingModule</text>
</g>
<!-- ConfigRoutingModule&#45;&gt;ConfigModule -->
<g id="edge11" class="edge">
<title>ConfigRoutingModule&#45;&gt;ConfigModule</title>
<path fill="none" stroke="#000000" d="M96,-122.2479C96,-145.0179 96,-181 96,-181 96,-181 889.7642,-181 889.7642,-181"/>
<polygon fill="#000000" stroke="#000000" points="889.7642,-184.5001 899.7642,-181 889.7641,-177.5001 889.7642,-184.5001"/>
</g>
</g>
</svg>
