<?xml version="1.0" encoding="UTF-8" standalone="no"?>
<!DOCTYPE svg PUBLIC "-//W3C//DTD SVG 1.1//EN"
 "http://www.w3.org/Graphics/SVG/1.1/DTD/svg11.dtd">
<!-- Generated by graphviz version 2.40.1 (20161225.0304)
 -->
<!-- Title: dependencies Pages: 1 -->
<svg width="1561pt" height="349pt"
 viewBox="0.00 0.00 1561.00 349.00" xmlns="http://www.w3.org/2000/svg" xmlns:xlink="http://www.w3.org/1999/xlink">
<g id="graph0" class="graph" transform="scale(1 1) rotate(0) translate(4 345)">
<title>dependencies</title>
<polygon fill="#ffffff" stroke="transparent" points="-4,4 -4,-345 1557,-345 1557,4 -4,4"/>
<text text-anchor="start" x="755.5091" y="-42.4" font-family="sans-serif" font-weight="bold" font-size="14.00" fill="#000000">Legend</text>
<polygon fill="#ffffb3" stroke="transparent" points="542.5,-10 542.5,-30 562.5,-30 562.5,-10 542.5,-10"/>
<text text-anchor="start" x="566.129" y="-15.4" font-family="sans-serif" font-size="14.00" fill="#000000"> &#160;Declarations</text>
<polygon fill="#8dd3c7" stroke="transparent" points="655.5,-10 655.5,-30 675.5,-30 675.5,-10 655.5,-10"/>
<text text-anchor="start" x="679.2251" y="-15.4" font-family="sans-serif" font-size="14.00" fill="#000000"> &#160;Module</text>
<polygon fill="#80b1d3" stroke="transparent" points="741.5,-10 741.5,-30 761.5,-30 761.5,-10 741.5,-10"/>
<text text-anchor="start" x="765.2812" y="-15.4" font-family="sans-serif" font-size="14.00" fill="#000000"> &#160;Bootstrap</text>
<polygon fill="#fdb462" stroke="transparent" points="838.5,-10 838.5,-30 858.5,-30 858.5,-10 838.5,-10"/>
<text text-anchor="start" x="862.1732" y="-15.4" font-family="sans-serif" font-size="14.00" fill="#000000"> &#160;Providers</text>
<polygon fill="#fb8072" stroke="transparent" points="934.5,-10 934.5,-30 954.5,-30 954.5,-10 934.5,-10"/>
<text text-anchor="start" x="958.2258" y="-15.4" font-family="sans-serif" font-size="14.00" fill="#000000"> &#160;Exports</text>
<g id="clust1" class="cluster">
<title>cluster_AppModule</title>
<polygon fill="none" stroke="#000000" stroke-dasharray="1,5" points="8,-70 8,-333 947,-333 947,-70 8,-70"/>
</g>
<g id="clust2" class="cluster">
<title>cluster_AppModule_declarations</title>
<polygon fill="none" stroke="#000000" points="614,-143 614,-195 927,-195 927,-143 614,-143"/>
</g>
<g id="clust3" class="cluster">
<title>cluster_AppModule_AppComponent_providers</title>
<polygon fill="none" stroke="#000000" points="787,-78 787,-130 939,-130 939,-78 787,-78"/>
</g>
<g id="clust7" class="cluster">
<title>cluster_AppModule_bootstrap</title>
<polygon fill="none" stroke="#000000" points="555,-273 555,-325 679,-325 679,-273 555,-273"/>
</g>
<g id="clust8" class="cluster">
<title>cluster_AppModule_providers</title>
<polygon fill="none" stroke="#000000" points="16,-143 16,-195 606,-195 606,-143 16,-143"/>
</g>
<g id="clust9" class="cluster">
<title>cluster_AuthenticatedModule</title>
<polygon fill="none" stroke="#000000" stroke-dasharray="1,5" points="955,-70 955,-195 1545,-195 1545,-70 955,-70"/>
</g>
<g id="clust10" class="cluster">
<title>cluster_AuthenticatedModule_declarations</title>
<polygon fill="none" stroke="#000000" points="963,-78 963,-130 1537,-130 1537,-78 963,-78"/>
</g>
<!-- AppComponent -->
<g id="node1" class="node">
<title>AppComponent</title>
<polygon fill="#ffffb3" stroke="#000000" points="918.9399,-187 813.0601,-187 813.0601,-151 918.9399,-151 918.9399,-187"/>
<text text-anchor="middle" x="866" y="-164.8" font-family="Times,serif" font-size="14.00" fill="#000000">AppComponent</text>
</g>
<!-- AppModule -->
<g id="node3" class="node">
<title>AppModule</title>
<polygon fill="#8dd3c7" stroke="#000000" points="658.6571,-252 655.6571,-256 634.6571,-256 631.6571,-252 575.3429,-252 575.3429,-216 658.6571,-216 658.6571,-252"/>
<text text-anchor="middle" x="617" y="-229.8" font-family="Times,serif" font-size="14.00" fill="#000000">AppModule</text>
</g>
<!-- AppComponent&#45;&gt;AppModule -->
<g id="edge1" class="edge">
<title>AppComponent&#45;&gt;AppModule</title>
<path fill="none" stroke="#000000" d="M866,-187.2843C866,-208.3211 866,-240 866,-240 866,-240 668.677,-240 668.677,-240"/>
<polygon fill="#000000" stroke="#000000" points="668.677,-236.5001 658.677,-240 668.677,-243.5001 668.677,-236.5001"/>
</g>
<!-- UnauthenticatedComponent -->
<g id="node2" class="node">
<title>UnauthenticatedComponent</title>
<polygon fill="#ffffb3" stroke="#000000" points="795.5744,-187 622.4256,-187 622.4256,-151 795.5744,-151 795.5744,-187"/>
<text text-anchor="middle" x="709" y="-164.8" font-family="Times,serif" font-size="14.00" fill="#000000">UnauthenticatedComponent</text>
</g>
<!-- UnauthenticatedComponent&#45;&gt;AppModule -->
<g id="edge3" class="edge">
<title>UnauthenticatedComponent&#45;&gt;AppModule</title>
<path fill="none" stroke="#000000" d="M640.6455,-187.1061C640.6455,-187.1061 640.6455,-205.991 640.6455,-205.991"/>
<polygon fill="#000000" stroke="#000000" points="637.1456,-205.9909 640.6455,-215.991 644.1456,-205.991 637.1456,-205.9909"/>
</g>
<!-- AppComponent  -->
<g id="node5" class="node">
<title>AppComponent </title>
<polygon fill="#80b1d3" stroke="#000000" points="671.439,-317 562.561,-317 562.561,-281 671.439,-281 671.439,-317"/>
<text text-anchor="middle" x="617" y="-294.8" font-family="Times,serif" font-size="14.00" fill="#000000">AppComponent </text>
</g>
<!-- AppModule&#45;&gt;AppComponent  -->
<g id="edge4" class="edge">
<title>AppModule&#45;&gt;AppComponent </title>
<path fill="none" stroke="#000000" stroke-dasharray="1,5" d="M617,-252.1061C617,-252.1061 617,-270.991 617,-270.991"/>
<polygon fill="#000000" stroke="#000000" points="613.5001,-270.9909 617,-280.991 620.5001,-270.991 613.5001,-270.9909"/>
</g>
<!-- GoogleService -->
<g id="node4" class="node">
<title>GoogleService</title>
<ellipse fill="#fdb462" stroke="#000000" cx="863" cy="-104" rx="68.3382" ry="18"/>
<text text-anchor="middle" x="863" y="-99.8" font-family="Times,serif" font-size="14.00" fill="#000000">GoogleService</text>
</g>
<!-- GoogleService&#45;&gt;AppComponent -->
<g id="edge2" class="edge">
<title>GoogleService&#45;&gt;AppComponent</title>
<path fill="none" stroke="#000000" d="M866,-122.1061C866,-122.1061 866,-140.991 866,-140.991"/>
<polygon fill="#000000" stroke="#000000" points="862.5001,-140.9909 866,-150.991 869.5001,-140.991 862.5001,-140.9909"/>
</g>
<!-- GoogleService&#45;&gt;AppModule -->
<g id="edge5" class="edge">
<title>GoogleService&#45;&gt;AppModule</title>
<path fill="none" stroke="#000000" d="M804.4089,-113.3202C804.4089,-142.1578 804.4089,-228 804.4089,-228 804.4089,-228 669.0582,-228 669.0582,-228"/>
<polygon fill="#000000" stroke="#000000" points="669.0582,-224.5001 659.0582,-228 669.0582,-231.5001 669.0582,-224.5001"/>
</g>
<!-- FirebaseService -->
<g id="node6" class="node">
<title>FirebaseService</title>
<ellipse fill="#fdb462" stroke="#000000" cx="525" cy="-169" rx="72.9063" ry="18"/>
<text text-anchor="middle" x="525" y="-164.8" font-family="Times,serif" font-size="14.00" fill="#000000">FirebaseService</text>
</g>
<!-- FirebaseService&#45;&gt;AppModule -->
<g id="edge6" class="edge">
<title>FirebaseService&#45;&gt;AppModule</title>
<path fill="none" stroke="#000000" d="M586.4373,-178.8721C586.4373,-178.8721 586.4373,-205.9074 586.4373,-205.9074"/>
<polygon fill="#000000" stroke="#000000" points="582.9374,-205.9073 586.4373,-215.9074 589.9374,-205.9074 582.9374,-205.9073"/>
</g>
<!-- AuthGuardService -->
<g id="node7" class="node">
<title>AuthGuardService</title>
<ellipse fill="#fdb462" stroke="#000000" cx="351" cy="-169" rx="83.3674" ry="18"/>
<text text-anchor="middle" x="351" y="-164.8" font-family="Times,serif" font-size="14.00" fill="#000000">AuthGuardService</text>
</g>
<!-- AuthGuardService&#45;&gt;AppModule -->
<g id="edge7" class="edge">
<title>AuthGuardService&#45;&gt;AppModule</title>
<path fill="none" stroke="#000000" d="M351,-187.0225C351,-204.3734 351,-228 351,-228 351,-228 565.1449,-228 565.1449,-228"/>
<polygon fill="#000000" stroke="#000000" points="565.1449,-231.5001 575.1449,-228 565.1448,-224.5001 565.1449,-231.5001"/>
</g>
<!-- PreventAuthGuardService -->
<g id="node8" class="node">
<title>PreventAuthGuardService</title>
<ellipse fill="#fdb462" stroke="#000000" cx="137" cy="-169" rx="112.8616" ry="18"/>
<text text-anchor="middle" x="137" y="-164.8" font-family="Times,serif" font-size="14.00" fill="#000000">PreventAuthGuardService</text>
</g>
<!-- PreventAuthGuardService&#45;&gt;AppModule -->
<g id="edge8" class="edge">
<title>PreventAuthGuardService&#45;&gt;AppModule</title>
<path fill="none" stroke="#000000" d="M137,-187.2843C137,-208.3211 137,-240 137,-240 137,-240 565.2428,-240 565.2428,-240"/>
<polygon fill="#000000" stroke="#000000" points="565.2429,-243.5001 575.2428,-240 565.2428,-236.5001 565.2429,-243.5001"/>
</g>
<!-- HomeComponent -->
<g id="node9" class="node">
<title>HomeComponent</title>
<polygon fill="#ffffb3" stroke="#000000" points="1528.5451,-122 1413.4549,-122 1413.4549,-86 1528.5451,-86 1528.5451,-122"/>
<text text-anchor="middle" x="1471" y="-99.8" font-family="Times,serif" font-size="14.00" fill="#000000">HomeComponent</text>
</g>
<!-- AuthenticatedModule -->
<g id="node13" class="node">
<title>AuthenticatedModule</title>
<polygon fill="#8dd3c7" stroke="#000000" points="1333.0772,-187 1330.0772,-191 1309.0772,-191 1306.0772,-187 1194.9228,-187 1194.9228,-151 1333.0772,-151 1333.0772,-187"/>
<text text-anchor="middle" x="1264" y="-164.8" font-family="Times,serif" font-size="14.00" fill="#000000">AuthenticatedModule</text>
</g>
<!-- HomeComponent&#45;&gt;AuthenticatedModule -->
<g id="edge9" class="edge">
<title>HomeComponent&#45;&gt;AuthenticatedModule</title>
<path fill="none" stroke="#000000" d="M1471,-122.1061C1471,-141.3391 1471,-169 1471,-169 1471,-169 1343.2158,-169 1343.2158,-169"/>
<polygon fill="#000000" stroke="#000000" points="1343.2158,-165.5001 1333.2158,-169 1343.2158,-172.5001 1343.2158,-165.5001"/>
</g>
<!-- ConfigComponent -->
<g id="node10" class="node">
<title>ConfigComponent</title>
<polygon fill="#ffffb3" stroke="#000000" points="1395.2204,-122 1274.7796,-122 1274.7796,-86 1395.2204,-86 1395.2204,-122"/>
<text text-anchor="middle" x="1335" y="-99.8" font-family="Times,serif" font-size="14.00" fill="#000000">ConfigComponent</text>
</g>
<!-- ConfigComponent&#45;&gt;AuthenticatedModule -->
<g id="edge10" class="edge">
<title>ConfigComponent&#45;&gt;AuthenticatedModule</title>
<path fill="none" stroke="#000000" d="M1303.9643,-122.1061C1303.9643,-122.1061 1303.9643,-140.991 1303.9643,-140.991"/>
<polygon fill="#000000" stroke="#000000" points="1300.4643,-140.9909 1303.9643,-150.991 1307.4643,-140.991 1300.4643,-140.9909"/>
</g>
<!-- SettingsComponent -->
<g id="node11" class="node">
<title>SettingsComponent</title>
<polygon fill="#ffffb3" stroke="#000000" points="1257.4468,-122 1130.5532,-122 1130.5532,-86 1257.4468,-86 1257.4468,-122"/>
<text text-anchor="middle" x="1194" y="-99.8" font-family="Times,serif" font-size="14.00" fill="#000000">SettingsComponent</text>
</g>
<!-- SettingsComponent&#45;&gt;AuthenticatedModule -->
<g id="edge11" class="edge">
<title>SettingsComponent&#45;&gt;AuthenticatedModule</title>
<path fill="none" stroke="#000000" d="M1226.0922,-122.1061C1226.0922,-122.1061 1226.0922,-140.991 1226.0922,-140.991"/>
<polygon fill="#000000" stroke="#000000" points="1222.5923,-140.9909 1226.0922,-150.991 1229.5923,-140.991 1222.5923,-140.9909"/>
</g>
<!-- ConfigListComponent -->
<g id="node12" class="node">
<title>ConfigListComponent</title>
<polygon fill="#ffffb3" stroke="#000000" points="1112.9986,-122 971.0014,-122 971.0014,-86 1112.9986,-86 1112.9986,-122"/>
<text text-anchor="middle" x="1042" y="-99.8" font-family="Times,serif" font-size="14.00" fill="#000000">ConfigListComponent</text>
</g>
<!-- ConfigListComponent&#45;&gt;AuthenticatedModule -->
<g id="edge12" class="edge">
<title>ConfigListComponent&#45;&gt;AuthenticatedModule</title>
<path fill="none" stroke="#000000" d="M1042,-122.1061C1042,-141.3391 1042,-169 1042,-169 1042,-169 1184.671,-169 1184.671,-169"/>
<polygon fill="#000000" stroke="#000000" points="1184.671,-172.5001 1194.671,-169 1184.6709,-165.5001 1184.671,-172.5001"/>
</g>
</g>
</svg>
