<?xml version="1.0" encoding="UTF-8" standalone="no"?>
<!DOCTYPE svg PUBLIC "-//W3C//DTD SVG 1.1//EN"
 "http://www.w3.org/Graphics/SVG/1.1/DTD/svg11.dtd">
<!-- Generated by graphviz version 2.40.1 (20161225.0304)
 -->
<!-- Title: dependencies Pages: 1 -->
<svg width="2109pt" height="428pt"
 viewBox="0.00 0.00 2109.00 428.00" xmlns="http://www.w3.org/2000/svg" xmlns:xlink="http://www.w3.org/1999/xlink">
<g id="graph0" class="graph" transform="scale(1 1) rotate(0) translate(4 424)">
<title>dependencies</title>
<polygon fill="#ffffff" stroke="transparent" points="-4,4 -4,-424 2105,-424 2105,4 -4,4"/>
<text text-anchor="start" x="1029.5091" y="-42.4" font-family="sans-serif" font-weight="bold" font-size="14.00" fill="#000000">Legend</text>
<polygon fill="#ffffb3" stroke="transparent" points="816.5,-10 816.5,-30 836.5,-30 836.5,-10 816.5,-10"/>
<text text-anchor="start" x="840.129" y="-15.4" font-family="sans-serif" font-size="14.00" fill="#000000"> &#160;Declarations</text>
<polygon fill="#8dd3c7" stroke="transparent" points="929.5,-10 929.5,-30 949.5,-30 949.5,-10 929.5,-10"/>
<text text-anchor="start" x="953.2251" y="-15.4" font-family="sans-serif" font-size="14.00" fill="#000000"> &#160;Module</text>
<polygon fill="#80b1d3" stroke="transparent" points="1015.5,-10 1015.5,-30 1035.5,-30 1035.5,-10 1015.5,-10"/>
<text text-anchor="start" x="1039.2812" y="-15.4" font-family="sans-serif" font-size="14.00" fill="#000000"> &#160;Bootstrap</text>
<polygon fill="#fdb462" stroke="transparent" points="1112.5,-10 1112.5,-30 1132.5,-30 1132.5,-10 1112.5,-10"/>
<text text-anchor="start" x="1136.1732" y="-15.4" font-family="sans-serif" font-size="14.00" fill="#000000"> &#160;Providers</text>
<polygon fill="#fb8072" stroke="transparent" points="1208.5,-10 1208.5,-30 1228.5,-30 1228.5,-10 1208.5,-10"/>
<text text-anchor="start" x="1232.2258" y="-15.4" font-family="sans-serif" font-size="14.00" fill="#000000"> &#160;Exports</text>
<g id="clust1" class="cluster">
<title>cluster_AppModule</title>
<polygon fill="none" stroke="#000000" stroke-dasharray="1,5" points="234,-146 234,-412 1187,-412 1187,-146 234,-146"/>
</g>
<g id="clust2" class="cluster">
<title>cluster_AppModule_declarations</title>
<polygon fill="none" stroke="#000000" points="866,-222 866,-274 1179,-274 1179,-222 866,-222"/>
</g>
<g id="clust3" class="cluster">
<title>cluster_AppModule_AppComponent_providers</title>
<polygon fill="none" stroke="#000000" points="939,-154 939,-206 1091,-206 1091,-154 939,-154"/>
</g>
<g id="clust5" class="cluster">
<title>cluster_AppModule_imports</title>
<polygon fill="none" stroke="#000000" points="690,-154 690,-274 844,-274 844,-154 690,-154"/>
</g>
<g id="clust7" class="cluster">
<title>cluster_AppModule_bootstrap</title>
<polygon fill="none" stroke="#000000" points="705,-352 705,-404 829,-404 829,-352 705,-352"/>
</g>
<g id="clust8" class="cluster">
<title>cluster_AppModule_providers</title>
<polygon fill="none" stroke="#000000" points="242,-222 242,-274 668,-274 668,-222 242,-222"/>
</g>
<g id="clust9" class="cluster">
<title>cluster_AuthenticatedModule</title>
<polygon fill="none" stroke="#000000" stroke-dasharray="1,5" points="1195,-146 1195,-214 2093,-214 2093,-146 1195,-146"/>
</g>
<g id="clust10" class="cluster">
<title>cluster_AuthenticatedModule_declarations</title>
<polygon fill="none" stroke="#000000" points="1671,-154 1671,-206 2085,-206 2085,-154 1671,-154"/>
</g>
<g id="clust15" class="cluster">
<title>cluster_AuthenticatedModule_exports</title>
<polygon fill="none" stroke="#000000" points="1523,-154 1523,-206 1663,-206 1663,-154 1523,-154"/>
</g>
<g id="clust17" class="cluster">
<title>cluster_AuthenticatedModule_providers</title>
<polygon fill="none" stroke="#000000" points="1203,-154 1203,-206 1515,-206 1515,-154 1203,-154"/>
</g>
<g id="clust18" class="cluster">
<title>cluster_ConfigModule</title>
<polygon fill="none" stroke="#000000" stroke-dasharray="1,5" points="8,-70 8,-138 1417,-138 1417,-70 8,-70"/>
</g>
<g id="clust19" class="cluster">
<title>cluster_ConfigModule_declarations</title>
<polygon fill="none" stroke="#000000" points="186,-78 186,-130 1409,-130 1409,-78 186,-78"/>
</g>
<g id="clust28" class="cluster">
<title>cluster_ConfigModule_exports</title>
<polygon fill="none" stroke="#000000" points="16,-78 16,-130 178,-130 178,-78 16,-78"/>
</g>
<!-- AppComponent -->
<g id="node1" class="node">
<title>AppComponent</title>
<polygon fill="#ffffb3" stroke="#000000" points="1170.9399,-266 1065.0601,-266 1065.0601,-230 1170.9399,-230 1170.9399,-266"/>
<text text-anchor="middle" x="1118" y="-243.8" font-family="Times,serif" font-size="14.00" fill="#000000">AppComponent</text>
</g>
<!-- AppModule -->
<g id="node3" class="node">
<title>AppModule</title>
<polygon fill="#8dd3c7" stroke="#000000" points="808.6571,-331 805.6571,-335 784.6571,-335 781.6571,-331 725.3429,-331 725.3429,-295 808.6571,-295 808.6571,-331"/>
<text text-anchor="middle" x="767" y="-308.8" font-family="Times,serif" font-size="14.00" fill="#000000">AppModule</text>
</g>
<!-- AppComponent&#45;&gt;AppModule -->
<g id="edge1" class="edge">
<title>AppComponent&#45;&gt;AppModule</title>
<path fill="none" stroke="#000000" d="M1118,-266.2921C1118,-288.2057 1118,-322 1118,-322 1118,-322 818.9902,-322 818.9902,-322"/>
<polygon fill="#000000" stroke="#000000" points="818.9902,-318.5001 808.9902,-322 818.9901,-325.5001 818.9902,-318.5001"/>
</g>
<!-- UnauthenticatedComponent -->
<g id="node2" class="node">
<title>UnauthenticatedComponent</title>
<polygon fill="#ffffb3" stroke="#000000" points="1047.5744,-266 874.4256,-266 874.4256,-230 1047.5744,-230 1047.5744,-266"/>
<text text-anchor="middle" x="961" y="-243.8" font-family="Times,serif" font-size="14.00" fill="#000000">UnauthenticatedComponent</text>
</g>
<!-- UnauthenticatedComponent&#45;&gt;AppModule -->
<g id="edge3" class="edge">
<title>UnauthenticatedComponent&#45;&gt;AppModule</title>
<path fill="none" stroke="#000000" d="M961,-266.027C961,-282.3976 961,-304 961,-304 961,-304 819.0951,-304 819.0951,-304"/>
<polygon fill="#000000" stroke="#000000" points="819.0951,-300.5001 809.0951,-304 819.0951,-307.5001 819.0951,-300.5001"/>
</g>
<!-- AppComponent  -->
<g id="node7" class="node">
<title>AppComponent </title>
<polygon fill="#80b1d3" stroke="#000000" points="821.439,-396 712.561,-396 712.561,-360 821.439,-360 821.439,-396"/>
<text text-anchor="middle" x="767" y="-373.8" font-family="Times,serif" font-size="14.00" fill="#000000">AppComponent </text>
</g>
<!-- AppModule&#45;&gt;AppComponent  -->
<g id="edge6" class="edge">
<title>AppModule&#45;&gt;AppComponent </title>
<path fill="none" stroke="#000000" stroke-dasharray="1,5" d="M767,-331.1061C767,-331.1061 767,-349.991 767,-349.991"/>
<polygon fill="#000000" stroke="#000000" points="763.5001,-349.9909 767,-359.991 770.5001,-349.991 763.5001,-349.9909"/>
</g>
<!-- GoogleService -->
<g id="node4" class="node">
<title>GoogleService</title>
<ellipse fill="#fdb462" stroke="#000000" cx="1015" cy="-180" rx="68.3382" ry="18"/>
<text text-anchor="middle" x="1015" y="-175.8" font-family="Times,serif" font-size="14.00" fill="#000000">GoogleService</text>
</g>
<!-- GoogleService&#45;&gt;AppComponent -->
<g id="edge2" class="edge">
<title>GoogleService&#45;&gt;AppComponent</title>
<path fill="none" stroke="#000000" d="M1074.3498,-189.1708C1074.3498,-189.1708 1074.3498,-219.7926 1074.3498,-219.7926"/>
<polygon fill="#000000" stroke="#000000" points="1070.8499,-219.7926 1074.3498,-229.7926 1077.8499,-219.7926 1070.8499,-219.7926"/>
</g>
<!-- GoogleService&#45;&gt;AppModule -->
<g id="edge7" class="edge">
<title>GoogleService&#45;&gt;AppModule</title>
<path fill="none" stroke="#000000" d="M1056.4089,-194.4865C1056.4089,-228.9572 1056.4089,-313 1056.4089,-313 1056.4089,-313 818.7734,-313 818.7734,-313"/>
<polygon fill="#000000" stroke="#000000" points="818.7735,-309.5001 808.7734,-313 818.7734,-316.5001 818.7735,-309.5001"/>
</g>
<!-- ConfigModule -->
<g id="node5" class="node">
<title>ConfigModule</title>
<polygon fill="#8dd3c7" stroke="#000000" points="806.4386,-198 803.4386,-202 782.4386,-202 779.4386,-198 707.5614,-198 707.5614,-162 806.4386,-162 806.4386,-198"/>
<text text-anchor="middle" x="757" y="-175.8" font-family="Times,serif" font-size="14.00" fill="#000000">ConfigModule</text>
</g>
<!-- ConfigModule&#45;&gt;AppModule -->
<g id="edge4" class="edge">
<title>ConfigModule&#45;&gt;AppModule</title>
<path fill="none" stroke="#000000" d="M707.7265,-191C692.2861,-191 679.1975,-191 679.1975,-191 679.1975,-191 679.1975,-304 679.1975,-304 679.1975,-304 715.156,-304 715.156,-304"/>
<polygon fill="#000000" stroke="#000000" points="715.156,-307.5001 725.156,-304 715.1559,-300.5001 715.156,-307.5001"/>
</g>
<!-- AuthenticatedModule -->
<g id="node6" class="node">
<title>AuthenticatedModule</title>
<polygon fill="#8dd3c7" stroke="#000000" points="836.0772,-266 833.0772,-270 812.0772,-270 809.0772,-266 697.9228,-266 697.9228,-230 836.0772,-230 836.0772,-266"/>
<text text-anchor="middle" x="767" y="-243.8" font-family="Times,serif" font-size="14.00" fill="#000000">AuthenticatedModule</text>
</g>
<!-- ConfigModule&#45;&gt;AuthenticatedModule -->
<g id="edge13" class="edge">
<title>ConfigModule&#45;&gt;AuthenticatedModule</title>
<path fill="none" stroke="#000000" d="M757,-198.2228C757,-198.2228 757,-219.7269 757,-219.7269"/>
<polygon fill="#000000" stroke="#000000" points="753.5001,-219.7269 757,-229.7269 760.5001,-219.727 753.5001,-219.7269"/>
</g>
<!-- ConfigListComponent  -->
<g id="node23" class="node">
<title>ConfigListComponent </title>
<polygon fill="#fb8072" stroke="#000000" points="169.9995,-122 24.0005,-122 24.0005,-86 169.9995,-86 169.9995,-122"/>
<text text-anchor="middle" x="97" y="-99.8" font-family="Times,serif" font-size="14.00" fill="#000000">ConfigListComponent </text>
</g>
<!-- ConfigModule&#45;&gt;ConfigListComponent  -->
<g id="edge24" class="edge">
<title>ConfigModule&#45;&gt;ConfigListComponent </title>
<path fill="none" stroke="#000000" stroke-dasharray="5,2" d="M707.6626,-184C554.4386,-184 97,-184 97,-184 97,-184 97,-132.1532 97,-132.1532"/>
<polygon fill="#000000" stroke="#000000" points="100.5001,-132.1532 97,-122.1532 93.5001,-132.1533 100.5001,-132.1532"/>
</g>
<!-- AuthenticatedModule&#45;&gt;AppModule -->
<g id="edge5" class="edge">
<title>AuthenticatedModule&#45;&gt;AppModule</title>
<path fill="none" stroke="#000000" d="M767,-266.1061C767,-266.1061 767,-284.991 767,-284.991"/>
<polygon fill="#000000" stroke="#000000" points="763.5001,-284.9909 767,-294.991 770.5001,-284.991 763.5001,-284.9909"/>
</g>
<!-- ConfigComponent  -->
<g id="node13" class="node">
<title>ConfigComponent </title>
<polygon fill="#fb8072" stroke="#000000" points="1654.7205,-198 1531.2795,-198 1531.2795,-162 1654.7205,-162 1654.7205,-198"/>
<text text-anchor="middle" x="1593" y="-175.8" font-family="Times,serif" font-size="14.00" fill="#000000">ConfigComponent </text>
</g>
<!-- AuthenticatedModule&#45;&gt;ConfigComponent  -->
<g id="edge14" class="edge">
<title>AuthenticatedModule&#45;&gt;ConfigComponent </title>
<path fill="none" stroke="#000000" stroke-dasharray="5,2" d="M810.4788,-229.5782C810.4788,-220.7209 810.4788,-212 810.4788,-212 810.4788,-212 1593,-212 1593,-212 1593,-212 1593,-208.2434 1593,-208.2434"/>
<polygon fill="#000000" stroke="#000000" points="1596.5001,-208.2434 1593,-198.2434 1589.5001,-208.2434 1596.5001,-208.2434"/>
</g>
<!-- AuthGuardService -->
<g id="node8" class="node">
<title>AuthGuardService</title>
<ellipse fill="#fdb462" stroke="#000000" cx="577" cy="-248" rx="83.3674" ry="18"/>
<text text-anchor="middle" x="577" y="-243.8" font-family="Times,serif" font-size="14.00" fill="#000000">AuthGuardService</text>
</g>
<!-- AuthGuardService&#45;&gt;AppModule -->
<g id="edge8" class="edge">
<title>AuthGuardService&#45;&gt;AppModule</title>
<path fill="none" stroke="#000000" d="M577,-266.1061C577,-285.3391 577,-313 577,-313 577,-313 715.3037,-313 715.3037,-313"/>
<polygon fill="#000000" stroke="#000000" points="715.3037,-316.5001 725.3037,-313 715.3037,-309.5001 715.3037,-316.5001"/>
</g>
<!-- PreventAuthGuardService -->
<g id="node9" class="node">
<title>PreventAuthGuardService</title>
<ellipse fill="#fdb462" stroke="#000000" cx="363" cy="-248" rx="112.8616" ry="18"/>
<text text-anchor="middle" x="363" y="-243.8" font-family="Times,serif" font-size="14.00" fill="#000000">PreventAuthGuardService</text>
</g>
<!-- PreventAuthGuardService&#45;&gt;AppModule -->
<g id="edge9" class="edge">
<title>PreventAuthGuardService&#45;&gt;AppModule</title>
<path fill="none" stroke="#000000" d="M363,-266.2921C363,-288.2057 363,-322 363,-322 363,-322 715.2866,-322 715.2866,-322"/>
<polygon fill="#000000" stroke="#000000" points="715.2866,-325.5001 725.2866,-322 715.2865,-318.5001 715.2866,-325.5001"/>
</g>
<!-- HomeComponent -->
<g id="node10" class="node">
<title>HomeComponent</title>
<polygon fill="#ffffb3" stroke="#000000" points="1932.5451,-198 1817.4549,-198 1817.4549,-162 1932.5451,-162 1932.5451,-198"/>
<text text-anchor="middle" x="1875" y="-175.8" font-family="Times,serif" font-size="14.00" fill="#000000">HomeComponent</text>
</g>
<!-- HomeComponent&#45;&gt;AuthenticatedModule -->
<g id="edge10" class="edge">
<title>HomeComponent&#45;&gt;AuthenticatedModule</title>
<path fill="none" stroke="#000000" d="M1875,-198.1025C1875,-209.0859 1875,-221 1875,-221 1875,-221 827.5187,-221 827.5187,-221 827.5187,-221 827.5187,-221.8841 827.5187,-221.8841"/>
<polygon fill="#000000" stroke="#000000" points="824.0188,-219.8408 827.5187,-229.8408 831.0188,-219.8409 824.0188,-219.8408"/>
</g>
<!-- ConfigComponent -->
<g id="node11" class="node">
<title>ConfigComponent</title>
<polygon fill="#ffffb3" stroke="#000000" points="1799.2204,-198 1678.7796,-198 1678.7796,-162 1799.2204,-162 1799.2204,-198"/>
<text text-anchor="middle" x="1739" y="-175.8" font-family="Times,serif" font-size="14.00" fill="#000000">ConfigComponent</text>
</g>
<!-- ConfigComponent&#45;&gt;AuthenticatedModule -->
<g id="edge11" class="edge">
<title>ConfigComponent&#45;&gt;AuthenticatedModule</title>
<path fill="none" stroke="#000000" d="M1739,-198.0664C1739,-207.4587 1739,-217 1739,-217 1739,-217 823.2587,-217 823.2587,-217 823.2587,-217 823.2587,-219.9672 823.2587,-219.9672"/>
<polygon fill="#000000" stroke="#000000" points="819.7588,-219.9671 823.2587,-229.9672 826.7588,-219.9672 819.7588,-219.9671"/>
</g>
<!-- SettingsComponent -->
<g id="node12" class="node">
<title>SettingsComponent</title>
<polygon fill="#ffffb3" stroke="#000000" points="2077.4468,-198 1950.5532,-198 1950.5532,-162 2077.4468,-162 2077.4468,-198"/>
<text text-anchor="middle" x="2014" y="-175.8" font-family="Times,serif" font-size="14.00" fill="#000000">SettingsComponent</text>
</g>
<!-- SettingsComponent&#45;&gt;AuthenticatedModule -->
<g id="edge12" class="edge">
<title>SettingsComponent&#45;&gt;AuthenticatedModule</title>
<path fill="none" stroke="#000000" d="M2014,-198.1804C2014,-211.0382 2014,-226 2014,-226 2014,-226 831.7786,-226 831.7786,-226 831.7786,-226 831.7786,-226.3832 831.7786,-226.3832"/>
<polygon fill="#000000" stroke="#000000" points="828.2789,-219.832 831.7786,-229.8321 835.2789,-219.8322 828.2789,-219.832"/>
</g>
<!-- DatabaseService -->
<g id="node14" class="node">
<title>DatabaseService</title>
<ellipse fill="#fdb462" stroke="#000000" cx="1432" cy="-180" rx="75.2559" ry="18"/>
<text text-anchor="middle" x="1432" y="-175.8" font-family="Times,serif" font-size="14.00" fill="#000000">DatabaseService</text>
</g>
<!-- DatabaseService&#45;&gt;AuthenticatedModule -->
<g id="edge15" class="edge">
<title>DatabaseService&#45;&gt;AuthenticatedModule</title>
<path fill="none" stroke="#000000" d="M1432,-198.207C1432,-203.5549 1432,-208 1432,-208 1432,-208 818.9987,-208 818.9987,-208 818.9987,-208 818.9987,-219.8726 818.9987,-219.8726"/>
<polygon fill="#000000" stroke="#000000" points="815.4988,-219.8725 818.9987,-229.8726 822.4988,-219.8726 815.4988,-219.8725"/>
</g>
<!-- SorterService -->
<g id="node15" class="node">
<title>SorterService</title>
<ellipse fill="#fdb462" stroke="#000000" cx="1275" cy="-180" rx="63.6774" ry="18"/>
<text text-anchor="middle" x="1275" y="-175.8" font-family="Times,serif" font-size="14.00" fill="#000000">SorterService</text>
</g>
<!-- SorterService&#45;&gt;AuthenticatedModule -->
<g id="edge16" class="edge">
<title>SorterService&#45;&gt;AuthenticatedModule</title>
<path fill="none" stroke="#000000" d="M1275,-198.1223C1275,-200.9729 1275,-203 1275,-203 1275,-203 814.7387,-203 814.7387,-203 814.7387,-203 814.7387,-219.9561 814.7387,-219.9561"/>
<polygon fill="#000000" stroke="#000000" points="811.2388,-219.956 814.7387,-229.9561 818.2388,-219.9561 811.2388,-219.956"/>
</g>
<!-- ConfigListComponent -->
<g id="node16" class="node">
<title>ConfigListComponent</title>
<polygon fill="#ffffb3" stroke="#000000" points="1095.9986,-122 954.0014,-122 954.0014,-86 1095.9986,-86 1095.9986,-122"/>
<text text-anchor="middle" x="1025" y="-99.8" font-family="Times,serif" font-size="14.00" fill="#000000">ConfigListComponent</text>
</g>
<!-- ConfigListComponent&#45;&gt;ConfigModule -->
<g id="edge17" class="edge">
<title>ConfigListComponent&#45;&gt;ConfigModule</title>
<path fill="none" stroke="#000000" d="M953.9744,-104C946.3272,-104 941.2554,-104 941.2554,-104 941.2554,-104 941.2554,-180 941.2554,-180 941.2554,-180 816.3771,-180 816.3771,-180"/>
<polygon fill="#000000" stroke="#000000" points="816.3771,-176.5001 806.3771,-180 816.377,-183.5001 816.3771,-176.5001"/>
</g>
<!-- NewConfigPageComponent -->
<g id="node17" class="node">
<title>NewConfigPageComponent</title>
<polygon fill="#ffffb3" stroke="#000000" points="935.8599,-122 762.1401,-122 762.1401,-86 935.8599,-86 935.8599,-122"/>
<text text-anchor="middle" x="849" y="-99.8" font-family="Times,serif" font-size="14.00" fill="#000000">NewConfigPageComponent</text>
</g>
<!-- NewConfigPageComponent&#45;&gt;ConfigModule -->
<g id="edge18" class="edge">
<title>NewConfigPageComponent&#45;&gt;ConfigModule</title>
<path fill="none" stroke="#000000" d="M773.1073,-122.0109C773.1073,-122.0109 773.1073,-151.855 773.1073,-151.855"/>
<polygon fill="#000000" stroke="#000000" points="769.6074,-151.8549 773.1073,-161.855 776.6074,-151.855 769.6074,-151.8549"/>
</g>
<!-- ConfigModalComponent -->
<g id="node18" class="node">
<title>ConfigModalComponent</title>
<polygon fill="#ffffb3" stroke="#000000" points="744.2702,-122 587.7298,-122 587.7298,-86 744.2702,-86 744.2702,-122"/>
<text text-anchor="middle" x="666" y="-99.8" font-family="Times,serif" font-size="14.00" fill="#000000">ConfigModalComponent</text>
</g>
<!-- ConfigModalComponent&#45;&gt;ConfigModule -->
<g id="edge19" class="edge">
<title>ConfigModalComponent&#45;&gt;ConfigModule</title>
<path fill="none" stroke="#000000" d="M726.0831,-122.0109C726.0831,-122.0109 726.0831,-151.855 726.0831,-151.855"/>
<polygon fill="#000000" stroke="#000000" points="722.5832,-151.8549 726.0831,-161.855 729.5832,-151.855 722.5832,-151.8549"/>
</g>
<!-- NewRuleStepperComponent -->
<g id="node19" class="node">
<title>NewRuleStepperComponent</title>
<polygon fill="#ffffb3" stroke="#000000" points="569.465,-122 392.535,-122 392.535,-86 569.465,-86 569.465,-122"/>
<text text-anchor="middle" x="481" y="-99.8" font-family="Times,serif" font-size="14.00" fill="#000000">NewRuleStepperComponent</text>
</g>
<!-- NewRuleStepperComponent&#45;&gt;ConfigModule -->
<g id="edge20" class="edge">
<title>NewRuleStepperComponent&#45;&gt;ConfigModule</title>
<path fill="none" stroke="#000000" d="M531.5244,-122.0348C531.5244,-141.5762 531.5244,-170 531.5244,-170 531.5244,-170 697.5184,-170 697.5184,-170"/>
<polygon fill="#000000" stroke="#000000" points="697.5185,-173.5001 707.5184,-170 697.5184,-166.5001 697.5185,-173.5001"/>
</g>
<!-- EditConfigModalComponent -->
<g id="node20" class="node">
<title>EditConfigModalComponent</title>
<polygon fill="#ffffb3" stroke="#000000" points="374.1038,-122 193.8962,-122 193.8962,-86 374.1038,-86 374.1038,-122"/>
<text text-anchor="middle" x="284" y="-99.8" font-family="Times,serif" font-size="14.00" fill="#000000">EditConfigModalComponent</text>
</g>
<!-- EditConfigModalComponent&#45;&gt;ConfigModule -->
<g id="edge21" class="edge">
<title>EditConfigModalComponent&#45;&gt;ConfigModule</title>
<path fill="none" stroke="#000000" d="M312.0606,-122.0449C312.0606,-143.6623 312.0606,-177 312.0606,-177 312.0606,-177 697.6837,-177 697.6837,-177"/>
<polygon fill="#000000" stroke="#000000" points="697.6837,-180.5001 707.6837,-177 697.6836,-173.5001 697.6837,-180.5001"/>
</g>
<!-- EditConfigPageComponent -->
<g id="node21" class="node">
<title>EditConfigPageComponent</title>
<polygon fill="#ffffb3" stroke="#000000" points="1401.266,-122 1230.734,-122 1230.734,-86 1401.266,-86 1401.266,-122"/>
<text text-anchor="middle" x="1316" y="-99.8" font-family="Times,serif" font-size="14.00" fill="#000000">EditConfigPageComponent</text>
</g>
<!-- EditConfigPageComponent&#45;&gt;ConfigModule -->
<g id="edge22" class="edge">
<title>EditConfigPageComponent&#45;&gt;ConfigModule</title>
<path fill="none" stroke="#000000" d="M1284.6029,-122.0439C1284.6029,-134.5633 1284.6029,-149 1284.6029,-149 1284.6029,-149 795.1816,-149 795.1816,-149 795.1816,-149 795.1816,-151.9672 795.1816,-151.9672"/>
<polygon fill="#000000" stroke="#000000" points="791.6817,-151.9671 795.1816,-161.9672 798.6817,-151.9672 791.6817,-151.9671"/>
</g>
<!-- UnNamedPipe -->
<g id="node22" class="node">
<title>UnNamedPipe</title>
<polygon fill="#ffffb3" stroke="#000000" points="1212.4217,-122 1113.5783,-122 1113.5783,-86 1212.4217,-86 1212.4217,-122"/>
<text text-anchor="middle" x="1163" y="-99.8" font-family="Times,serif" font-size="14.00" fill="#000000">UnNamedPipe</text>
</g>
<!-- UnNamedPipe&#45;&gt;ConfigModule -->
<g id="edge23" class="edge">
<title>UnNamedPipe&#45;&gt;ConfigModule</title>
<path fill="none" stroke="#000000" d="M1142.2546,-122.2434C1142.2546,-129.4297 1142.2546,-136 1142.2546,-136 1142.2546,-136 784.1445,-136 784.1445,-136 784.1445,-136 784.1445,-151.8495 784.1445,-151.8495"/>
<polygon fill="#000000" stroke="#000000" points="780.6445,-151.8494 784.1445,-161.8495 787.6445,-151.8495 780.6445,-151.8494"/>
</g>
</g>
</svg>
