<?xml version="1.0" encoding="UTF-8" standalone="no"?>
<!DOCTYPE svg PUBLIC "-//W3C//DTD SVG 1.1//EN"
 "http://www.w3.org/Graphics/SVG/1.1/DTD/svg11.dtd">
<!-- Generated by graphviz version 2.40.1 (20161225.0304)
 -->
<!-- Title: dependencies Pages: 1 -->
<svg width="1968pt" height="352pt"
 viewBox="0.00 0.00 1968.00 352.00" xmlns="http://www.w3.org/2000/svg" xmlns:xlink="http://www.w3.org/1999/xlink">
<g id="graph0" class="graph" transform="scale(1 1) rotate(0) translate(4 348)">
<title>dependencies</title>
<polygon fill="#ffffff" stroke="transparent" points="-4,4 -4,-348 1964,-348 1964,4 -4,4"/>
<text text-anchor="start" x="959.0091" y="-42.4" font-family="sans-serif" font-weight="bold" font-size="14.00" fill="#000000">Legend</text>
<polygon fill="#ffffb3" stroke="transparent" points="746,-10 746,-30 766,-30 766,-10 746,-10"/>
<text text-anchor="start" x="769.629" y="-15.4" font-family="sans-serif" font-size="14.00" fill="#000000"> &#160;Declarations</text>
<polygon fill="#8dd3c7" stroke="transparent" points="859,-10 859,-30 879,-30 879,-10 859,-10"/>
<text text-anchor="start" x="882.7251" y="-15.4" font-family="sans-serif" font-size="14.00" fill="#000000"> &#160;Module</text>
<polygon fill="#80b1d3" stroke="transparent" points="945,-10 945,-30 965,-30 965,-10 945,-10"/>
<text text-anchor="start" x="968.7812" y="-15.4" font-family="sans-serif" font-size="14.00" fill="#000000"> &#160;Bootstrap</text>
<polygon fill="#fdb462" stroke="transparent" points="1042,-10 1042,-30 1062,-30 1062,-10 1042,-10"/>
<text text-anchor="start" x="1065.6732" y="-15.4" font-family="sans-serif" font-size="14.00" fill="#000000"> &#160;Providers</text>
<polygon fill="#fb8072" stroke="transparent" points="1138,-10 1138,-30 1158,-30 1158,-10 1138,-10"/>
<text text-anchor="start" x="1161.7258" y="-15.4" font-family="sans-serif" font-size="14.00" fill="#000000"> &#160;Exports</text>
<g id="clust1" class="cluster">
<title>cluster_AppModule</title>
<polygon fill="none" stroke="#000000" stroke-dasharray="1,5" points="8,-70 8,-336 783,-336 783,-70 8,-70"/>
</g>
<g id="clust2" class="cluster">
<title>cluster_AppModule_declarations</title>
<polygon fill="none" stroke="#000000" points="450,-143 450,-195 763,-195 763,-143 450,-143"/>
</g>
<g id="clust3" class="cluster">
<title>cluster_AppModule_AppComponent_providers</title>
<polygon fill="none" stroke="#000000" points="623,-78 623,-130 775,-130 775,-78 623,-78"/>
</g>
<g id="clust7" class="cluster">
<title>cluster_AppModule_bootstrap</title>
<polygon fill="none" stroke="#000000" points="483,-276 483,-328 607,-328 607,-276 483,-276"/>
</g>
<g id="clust8" class="cluster">
<title>cluster_AppModule_providers</title>
<polygon fill="none" stroke="#000000" points="16,-143 16,-195 442,-195 442,-143 16,-143"/>
</g>
<g id="clust9" class="cluster">
<title>cluster_AuthenticatedModule</title>
<polygon fill="none" stroke="#000000" stroke-dasharray="1,5" points="791,-70 791,-195 1221,-195 1221,-70 791,-70"/>
</g>
<g id="clust10" class="cluster">
<title>cluster_AuthenticatedModule_declarations</title>
<polygon fill="none" stroke="#000000" points="799,-78 799,-130 1213,-130 1213,-78 799,-78"/>
</g>
<g id="clust18" class="cluster">
<title>cluster_ConfigModule</title>
<polygon fill="none" stroke="#000000" stroke-dasharray="1,5" points="1229,-70 1229,-268 1952,-268 1952,-70 1229,-70"/>
</g>
<g id="clust19" class="cluster">
<title>cluster_ConfigModule_declarations</title>
<polygon fill="none" stroke="#000000" points="1237,-78 1237,-130 1944,-130 1944,-78 1237,-78"/>
</g>
<g id="clust25" class="cluster">
<title>cluster_ConfigModule_exports</title>
<polygon fill="none" stroke="#000000" points="1525,-208 1525,-260 1687,-260 1687,-208 1525,-208"/>
</g>
<!-- AppComponent -->
<g id="node1" class="node">
<title>AppComponent</title>
<polygon fill="#ffffb3" stroke="#000000" points="754.9399,-187 649.0601,-187 649.0601,-151 754.9399,-151 754.9399,-187"/>
<text text-anchor="middle" x="702" y="-164.8" font-family="Times,serif" font-size="14.00" fill="#000000">AppComponent</text>
</g>
<!-- AppModule -->
<g id="node3" class="node">
<title>AppModule</title>
<polygon fill="#8dd3c7" stroke="#000000" points="586.6571,-252 583.6571,-256 562.6571,-256 559.6571,-252 503.3429,-252 503.3429,-216 586.6571,-216 586.6571,-252"/>
<text text-anchor="middle" x="545" y="-229.8" font-family="Times,serif" font-size="14.00" fill="#000000">AppModule</text>
</g>
<!-- AppComponent&#45;&gt;AppModule -->
<g id="edge1" class="edge">
<title>AppComponent&#45;&gt;AppModule</title>
<path fill="none" stroke="#000000" d="M702,-187.2843C702,-208.3211 702,-240 702,-240 702,-240 596.6609,-240 596.6609,-240"/>
<polygon fill="#000000" stroke="#000000" points="596.661,-236.5001 586.6609,-240 596.6609,-243.5001 596.661,-236.5001"/>
</g>
<!-- UnauthenticatedComponent -->
<g id="node2" class="node">
<title>UnauthenticatedComponent</title>
<polygon fill="#ffffb3" stroke="#000000" points="631.5744,-187 458.4256,-187 458.4256,-151 631.5744,-151 631.5744,-187"/>
<text text-anchor="middle" x="545" y="-164.8" font-family="Times,serif" font-size="14.00" fill="#000000">UnauthenticatedComponent</text>
</g>
<!-- UnauthenticatedComponent&#45;&gt;AppModule -->
<g id="edge3" class="edge">
<title>UnauthenticatedComponent&#45;&gt;AppModule</title>
<path fill="none" stroke="#000000" d="M545,-187.1061C545,-187.1061 545,-205.991 545,-205.991"/>
<polygon fill="#000000" stroke="#000000" points="541.5001,-205.9909 545,-215.991 548.5001,-205.991 541.5001,-205.9909"/>
</g>
<!-- AppComponent  -->
<g id="node5" class="node">
<title>AppComponent </title>
<polygon fill="#80b1d3" stroke="#000000" points="599.439,-320 490.561,-320 490.561,-284 599.439,-284 599.439,-320"/>
<text text-anchor="middle" x="545" y="-297.8" font-family="Times,serif" font-size="14.00" fill="#000000">AppComponent </text>
</g>
<!-- AppModule&#45;&gt;AppComponent  -->
<g id="edge4" class="edge">
<title>AppModule&#45;&gt;AppComponent </title>
<path fill="none" stroke="#000000" stroke-dasharray="1,5" d="M545,-252.2228C545,-252.2228 545,-273.7269 545,-273.7269"/>
<polygon fill="#000000" stroke="#000000" points="541.5001,-273.7269 545,-283.7269 548.5001,-273.727 541.5001,-273.7269"/>
</g>
<!-- GoogleService -->
<g id="node4" class="node">
<title>GoogleService</title>
<ellipse fill="#fdb462" stroke="#000000" cx="699" cy="-104" rx="68.3382" ry="18"/>
<text text-anchor="middle" x="699" y="-99.8" font-family="Times,serif" font-size="14.00" fill="#000000">GoogleService</text>
</g>
<!-- GoogleService&#45;&gt;AppComponent -->
<g id="edge2" class="edge">
<title>GoogleService&#45;&gt;AppComponent</title>
<path fill="none" stroke="#000000" d="M702,-122.1061C702,-122.1061 702,-140.991 702,-140.991"/>
<polygon fill="#000000" stroke="#000000" points="698.5001,-140.9909 702,-150.991 705.5001,-140.991 698.5001,-140.9909"/>
</g>
<!-- GoogleService&#45;&gt;AppModule -->
<g id="edge5" class="edge">
<title>GoogleService&#45;&gt;AppModule</title>
<path fill="none" stroke="#000000" d="M640.4089,-113.3202C640.4089,-142.1578 640.4089,-228 640.4089,-228 640.4089,-228 596.8477,-228 596.8477,-228"/>
<polygon fill="#000000" stroke="#000000" points="596.8477,-224.5001 586.8477,-228 596.8477,-231.5001 596.8477,-224.5001"/>
</g>
<!-- AuthGuardService -->
<g id="node6" class="node">
<title>AuthGuardService</title>
<ellipse fill="#fdb462" stroke="#000000" cx="351" cy="-169" rx="83.3674" ry="18"/>
<text text-anchor="middle" x="351" y="-164.8" font-family="Times,serif" font-size="14.00" fill="#000000">AuthGuardService</text>
</g>
<!-- AuthGuardService&#45;&gt;AppModule -->
<g id="edge6" class="edge">
<title>AuthGuardService&#45;&gt;AppModule</title>
<path fill="none" stroke="#000000" d="M351,-187.0225C351,-204.3734 351,-228 351,-228 351,-228 492.9049,-228 492.9049,-228"/>
<polygon fill="#000000" stroke="#000000" points="492.9049,-231.5001 502.9049,-228 492.9049,-224.5001 492.9049,-231.5001"/>
</g>
<!-- PreventAuthGuardService -->
<g id="node7" class="node">
<title>PreventAuthGuardService</title>
<ellipse fill="#fdb462" stroke="#000000" cx="137" cy="-169" rx="112.8616" ry="18"/>
<text text-anchor="middle" x="137" y="-164.8" font-family="Times,serif" font-size="14.00" fill="#000000">PreventAuthGuardService</text>
</g>
<!-- PreventAuthGuardService&#45;&gt;AppModule -->
<g id="edge7" class="edge">
<title>PreventAuthGuardService&#45;&gt;AppModule</title>
<path fill="none" stroke="#000000" d="M137,-187.2843C137,-208.3211 137,-240 137,-240 137,-240 493.2542,-240 493.2542,-240"/>
<polygon fill="#000000" stroke="#000000" points="493.2543,-243.5001 503.2542,-240 493.2542,-236.5001 493.2543,-243.5001"/>
</g>
<!-- HomeComponent -->
<g id="node8" class="node">
<title>HomeComponent</title>
<polygon fill="#ffffb3" stroke="#000000" points="1204.5451,-122 1089.4549,-122 1089.4549,-86 1204.5451,-86 1204.5451,-122"/>
<text text-anchor="middle" x="1147" y="-99.8" font-family="Times,serif" font-size="14.00" fill="#000000">HomeComponent</text>
</g>
<!-- AuthenticatedModule -->
<g id="node11" class="node">
<title>AuthenticatedModule</title>
<polygon fill="#8dd3c7" stroke="#000000" points="1080.0772,-187 1077.0772,-191 1056.0772,-191 1053.0772,-187 941.9228,-187 941.9228,-151 1080.0772,-151 1080.0772,-187"/>
<text text-anchor="middle" x="1011" y="-164.8" font-family="Times,serif" font-size="14.00" fill="#000000">AuthenticatedModule</text>
</g>
<!-- HomeComponent&#45;&gt;AuthenticatedModule -->
<g id="edge8" class="edge">
<title>HomeComponent&#45;&gt;AuthenticatedModule</title>
<path fill="none" stroke="#000000" d="M1089.3459,-104C1081.2242,-104 1075.5743,-104 1075.5743,-104 1075.5743,-104 1075.5743,-140.8939 1075.5743,-140.8939"/>
<polygon fill="#000000" stroke="#000000" points="1072.0744,-140.8938 1075.5743,-150.8939 1079.0744,-140.8939 1072.0744,-140.8938"/>
</g>
<!-- ConfigComponent -->
<g id="node9" class="node">
<title>ConfigComponent</title>
<polygon fill="#ffffb3" stroke="#000000" points="1071.2204,-122 950.7796,-122 950.7796,-86 1071.2204,-86 1071.2204,-122"/>
<text text-anchor="middle" x="1011" y="-99.8" font-family="Times,serif" font-size="14.00" fill="#000000">ConfigComponent</text>
</g>
<!-- ConfigComponent&#45;&gt;AuthenticatedModule -->
<g id="edge9" class="edge">
<title>ConfigComponent&#45;&gt;AuthenticatedModule</title>
<path fill="none" stroke="#000000" d="M1011,-122.1061C1011,-122.1061 1011,-140.991 1011,-140.991"/>
<polygon fill="#000000" stroke="#000000" points="1007.5001,-140.9909 1011,-150.991 1014.5001,-140.991 1007.5001,-140.9909"/>
</g>
<!-- SettingsComponent -->
<g id="node10" class="node">
<title>SettingsComponent</title>
<polygon fill="#ffffb3" stroke="#000000" points="933.4468,-122 806.5532,-122 806.5532,-86 933.4468,-86 933.4468,-122"/>
<text text-anchor="middle" x="870" y="-99.8" font-family="Times,serif" font-size="14.00" fill="#000000">SettingsComponent</text>
</g>
<!-- SettingsComponent&#45;&gt;AuthenticatedModule -->
<g id="edge10" class="edge">
<title>SettingsComponent&#45;&gt;AuthenticatedModule</title>
<path fill="none" stroke="#000000" d="M933.4611,-104C941.1907,-104 946.4257,-104 946.4257,-104 946.4257,-104 946.4257,-140.8939 946.4257,-140.8939"/>
<polygon fill="#000000" stroke="#000000" points="942.9257,-140.8938 946.4257,-150.8939 949.9257,-140.8939 942.9257,-140.8938"/>
</g>
<!-- ConfigListComponent -->
<g id="node12" class="node">
<title>ConfigListComponent</title>
<polygon fill="#ffffb3" stroke="#000000" points="1935.9986,-122 1794.0014,-122 1794.0014,-86 1935.9986,-86 1935.9986,-122"/>
<text text-anchor="middle" x="1865" y="-99.8" font-family="Times,serif" font-size="14.00" fill="#000000">ConfigListComponent</text>
</g>
<!-- ConfigModule -->
<g id="node16" class="node">
<title>ConfigModule</title>
<polygon fill="#8dd3c7" stroke="#000000" points="1655.4386,-187 1652.4386,-191 1631.4386,-191 1628.4386,-187 1556.5614,-187 1556.5614,-151 1655.4386,-151 1655.4386,-187"/>
<text text-anchor="middle" x="1606" y="-164.8" font-family="Times,serif" font-size="14.00" fill="#000000">ConfigModule</text>
</g>
<!-- ConfigListComponent&#45;&gt;ConfigModule -->
<g id="edge11" class="edge">
<title>ConfigListComponent&#45;&gt;ConfigModule</title>
<path fill="none" stroke="#000000" d="M1865,-122.1061C1865,-141.3391 1865,-169 1865,-169 1865,-169 1665.3256,-169 1665.3256,-169"/>
<polygon fill="#000000" stroke="#000000" points="1665.3256,-165.5001 1655.3256,-169 1665.3255,-172.5001 1665.3256,-165.5001"/>
</g>
<!-- NewRulePageComponent -->
<g id="node13" class="node">
<title>NewRulePageComponent</title>
<polygon fill="#ffffb3" stroke="#000000" points="1775.9143,-122 1614.0857,-122 1614.0857,-86 1775.9143,-86 1775.9143,-122"/>
<text text-anchor="middle" x="1695" y="-99.8" font-family="Times,serif" font-size="14.00" fill="#000000">NewRulePageComponent</text>
</g>
<!-- NewRulePageComponent&#45;&gt;ConfigModule -->
<g id="edge12" class="edge">
<title>NewRulePageComponent&#45;&gt;ConfigModule</title>
<path fill="none" stroke="#000000" d="M1634.756,-122.1061C1634.756,-122.1061 1634.756,-140.991 1634.756,-140.991"/>
<polygon fill="#000000" stroke="#000000" points="1631.256,-140.9909 1634.756,-150.991 1638.256,-140.991 1631.256,-140.9909"/>
</g>
<!-- ConfigModalComponent -->
<g id="node14" class="node">
<title>ConfigModalComponent</title>
<polygon fill="#ffffb3" stroke="#000000" points="1596.2702,-122 1439.7298,-122 1439.7298,-86 1596.2702,-86 1596.2702,-122"/>
<text text-anchor="middle" x="1518" y="-99.8" font-family="Times,serif" font-size="14.00" fill="#000000">ConfigModalComponent</text>
</g>
<!-- ConfigModalComponent&#45;&gt;ConfigModule -->
<g id="edge13" class="edge">
<title>ConfigModalComponent&#45;&gt;ConfigModule</title>
<path fill="none" stroke="#000000" d="M1576.5831,-122.1061C1576.5831,-122.1061 1576.5831,-140.991 1576.5831,-140.991"/>
<polygon fill="#000000" stroke="#000000" points="1573.0832,-140.9909 1576.5831,-150.991 1580.0832,-140.991 1573.0832,-140.9909"/>
</g>
<!-- NewRuleStepperComponent -->
<g id="node15" class="node">
<title>NewRuleStepperComponent</title>
<polygon fill="#ffffb3" stroke="#000000" points="1421.465,-122 1244.535,-122 1244.535,-86 1421.465,-86 1421.465,-122"/>
<text text-anchor="middle" x="1333" y="-99.8" font-family="Times,serif" font-size="14.00" fill="#000000">NewRuleStepperComponent</text>
</g>
<!-- NewRuleStepperComponent&#45;&gt;ConfigModule -->
<g id="edge14" class="edge">
<title>NewRuleStepperComponent&#45;&gt;ConfigModule</title>
<path fill="none" stroke="#000000" d="M1333,-122.1061C1333,-141.3391 1333,-169 1333,-169 1333,-169 1546.5618,-169 1546.5618,-169"/>
<polygon fill="#000000" stroke="#000000" points="1546.5618,-172.5001 1556.5618,-169 1546.5617,-165.5001 1546.5618,-172.5001"/>
</g>
<!-- ConfigListComponent  -->
<g id="node17" class="node">
<title>ConfigListComponent </title>
<polygon fill="#fb8072" stroke="#000000" points="1678.9995,-252 1533.0005,-252 1533.0005,-216 1678.9995,-216 1678.9995,-252"/>
<text text-anchor="middle" x="1606" y="-229.8" font-family="Times,serif" font-size="14.00" fill="#000000">ConfigListComponent </text>
</g>
<!-- ConfigModule&#45;&gt;ConfigListComponent  -->
<g id="edge15" class="edge">
<title>ConfigModule&#45;&gt;ConfigListComponent </title>
<path fill="none" stroke="#000000" stroke-dasharray="5,2" d="M1606,-187.1061C1606,-187.1061 1606,-205.991 1606,-205.991"/>
<polygon fill="#000000" stroke="#000000" points="1602.5001,-205.9909 1606,-215.991 1609.5001,-205.991 1602.5001,-205.9909"/>
</g>
</g>
</svg>
