<?xml version="1.0" encoding="UTF-8" standalone="no"?>
<!DOCTYPE svg PUBLIC "-//W3C//DTD SVG 1.1//EN"
 "http://www.w3.org/Graphics/SVG/1.1/DTD/svg11.dtd">
<!-- Generated by graphviz version 2.40.1 (20161225.0304)
 -->
<!-- Title: dependencies Pages: 1 -->
<svg width="1945pt" height="349pt"
 viewBox="0.00 0.00 1945.00 349.00" xmlns="http://www.w3.org/2000/svg" xmlns:xlink="http://www.w3.org/1999/xlink">
<g id="graph0" class="graph" transform="scale(1 1) rotate(0) translate(4 345)">
<title>dependencies</title>
<polygon fill="#ffffff" stroke="transparent" points="-4,4 -4,-345 1941,-345 1941,4 -4,4"/>
<text text-anchor="start" x="947.5091" y="-42.4" font-family="sans-serif" font-weight="bold" font-size="14.00" fill="#000000">Legend</text>
<polygon fill="#ffffb3" stroke="transparent" points="734.5,-10 734.5,-30 754.5,-30 754.5,-10 734.5,-10"/>
<text text-anchor="start" x="758.129" y="-15.4" font-family="sans-serif" font-size="14.00" fill="#000000"> &#160;Declarations</text>
<polygon fill="#8dd3c7" stroke="transparent" points="847.5,-10 847.5,-30 867.5,-30 867.5,-10 847.5,-10"/>
<text text-anchor="start" x="871.2251" y="-15.4" font-family="sans-serif" font-size="14.00" fill="#000000"> &#160;Module</text>
<polygon fill="#80b1d3" stroke="transparent" points="933.5,-10 933.5,-30 953.5,-30 953.5,-10 933.5,-10"/>
<text text-anchor="start" x="957.2812" y="-15.4" font-family="sans-serif" font-size="14.00" fill="#000000"> &#160;Bootstrap</text>
<polygon fill="#fdb462" stroke="transparent" points="1030.5,-10 1030.5,-30 1050.5,-30 1050.5,-10 1030.5,-10"/>
<text text-anchor="start" x="1054.1732" y="-15.4" font-family="sans-serif" font-size="14.00" fill="#000000"> &#160;Providers</text>
<polygon fill="#fb8072" stroke="transparent" points="1126.5,-10 1126.5,-30 1146.5,-30 1146.5,-10 1126.5,-10"/>
<text text-anchor="start" x="1150.2258" y="-15.4" font-family="sans-serif" font-size="14.00" fill="#000000"> &#160;Exports</text>
<g id="clust1" class="cluster">
<title>cluster_AppModule</title>
<polygon fill="none" stroke="#000000" stroke-dasharray="1,5" points="8,-70 8,-333 783,-333 783,-70 8,-70"/>
</g>
<g id="clust2" class="cluster">
<title>cluster_AppModule_declarations</title>
<polygon fill="none" stroke="#000000" points="450,-143 450,-195 763,-195 763,-143 450,-143"/>
</g>
<g id="clust3" class="cluster">
<title>cluster_AppModule_AppComponent_providers</title>
<polygon fill="none" stroke="#000000" points="623,-78 623,-130 775,-130 775,-78 623,-78"/>
</g>
<g id="clust7" class="cluster">
<title>cluster_AppModule_bootstrap</title>
<polygon fill="none" stroke="#000000" points="483,-273 483,-325 607,-325 607,-273 483,-273"/>
</g>
<g id="clust8" class="cluster">
<title>cluster_AppModule_providers</title>
<polygon fill="none" stroke="#000000" points="16,-143 16,-195 442,-195 442,-143 16,-143"/>
</g>
<g id="clust9" class="cluster">
<title>cluster_AuthenticatedModule</title>
<polygon fill="none" stroke="#000000" stroke-dasharray="1,5" points="791,-70 791,-195 1929,-195 1929,-70 791,-70"/>
</g>
<g id="clust10" class="cluster">
<title>cluster_AuthenticatedModule_declarations</title>
<polygon fill="none" stroke="#000000" points="799,-78 799,-130 1921,-130 1921,-78 799,-78"/>
</g>
<!-- AppComponent -->
<g id="node1" class="node">
<title>AppComponent</title>
<polygon fill="#ffffb3" stroke="#000000" points="754.9399,-187 649.0601,-187 649.0601,-151 754.9399,-151 754.9399,-187"/>
<text text-anchor="middle" x="702" y="-164.8" font-family="Times,serif" font-size="14.00" fill="#000000">AppComponent</text>
</g>
<!-- AppModule -->
<g id="node3" class="node">
<title>AppModule</title>
<polygon fill="#8dd3c7" stroke="#000000" points="586.6571,-252 583.6571,-256 562.6571,-256 559.6571,-252 503.3429,-252 503.3429,-216 586.6571,-216 586.6571,-252"/>
<text text-anchor="middle" x="545" y="-229.8" font-family="Times,serif" font-size="14.00" fill="#000000">AppModule</text>
</g>
<!-- AppComponent&#45;&gt;AppModule -->
<g id="edge1" class="edge">
<title>AppComponent&#45;&gt;AppModule</title>
<path fill="none" stroke="#000000" d="M702,-187.2843C702,-208.3211 702,-240 702,-240 702,-240 596.6609,-240 596.6609,-240"/>
<polygon fill="#000000" stroke="#000000" points="596.661,-236.5001 586.6609,-240 596.6609,-243.5001 596.661,-236.5001"/>
</g>
<!-- UnauthenticatedComponent -->
<g id="node2" class="node">
<title>UnauthenticatedComponent</title>
<polygon fill="#ffffb3" stroke="#000000" points="631.5744,-187 458.4256,-187 458.4256,-151 631.5744,-151 631.5744,-187"/>
<text text-anchor="middle" x="545" y="-164.8" font-family="Times,serif" font-size="14.00" fill="#000000">UnauthenticatedComponent</text>
</g>
<!-- UnauthenticatedComponent&#45;&gt;AppModule -->
<g id="edge3" class="edge">
<title>UnauthenticatedComponent&#45;&gt;AppModule</title>
<path fill="none" stroke="#000000" d="M545,-187.1061C545,-187.1061 545,-205.991 545,-205.991"/>
<polygon fill="#000000" stroke="#000000" points="541.5001,-205.9909 545,-215.991 548.5001,-205.991 541.5001,-205.9909"/>
</g>
<!-- AppComponent  -->
<g id="node5" class="node">
<title>AppComponent </title>
<polygon fill="#80b1d3" stroke="#000000" points="599.439,-317 490.561,-317 490.561,-281 599.439,-281 599.439,-317"/>
<text text-anchor="middle" x="545" y="-294.8" font-family="Times,serif" font-size="14.00" fill="#000000">AppComponent </text>
</g>
<!-- AppModule&#45;&gt;AppComponent  -->
<g id="edge4" class="edge">
<title>AppModule&#45;&gt;AppComponent </title>
<path fill="none" stroke="#000000" stroke-dasharray="1,5" d="M545,-252.1061C545,-252.1061 545,-270.991 545,-270.991"/>
<polygon fill="#000000" stroke="#000000" points="541.5001,-270.9909 545,-280.991 548.5001,-270.991 541.5001,-270.9909"/>
</g>
<!-- GoogleService -->
<g id="node4" class="node">
<title>GoogleService</title>
<ellipse fill="#fdb462" stroke="#000000" cx="699" cy="-104" rx="68.3382" ry="18"/>
<text text-anchor="middle" x="699" y="-99.8" font-family="Times,serif" font-size="14.00" fill="#000000">GoogleService</text>
</g>
<!-- GoogleService&#45;&gt;AppComponent -->
<g id="edge2" class="edge">
<title>GoogleService&#45;&gt;AppComponent</title>
<path fill="none" stroke="#000000" d="M702,-122.1061C702,-122.1061 702,-140.991 702,-140.991"/>
<polygon fill="#000000" stroke="#000000" points="698.5001,-140.9909 702,-150.991 705.5001,-140.991 698.5001,-140.9909"/>
</g>
<!-- GoogleService&#45;&gt;AppModule -->
<g id="edge5" class="edge">
<title>GoogleService&#45;&gt;AppModule</title>
<path fill="none" stroke="#000000" d="M640.4089,-113.3202C640.4089,-142.1578 640.4089,-228 640.4089,-228 640.4089,-228 596.8477,-228 596.8477,-228"/>
<polygon fill="#000000" stroke="#000000" points="596.8477,-224.5001 586.8477,-228 596.8477,-231.5001 596.8477,-224.5001"/>
</g>
<!-- AuthGuardService -->
<g id="node6" class="node">
<title>AuthGuardService</title>
<ellipse fill="#fdb462" stroke="#000000" cx="351" cy="-169" rx="83.3674" ry="18"/>
<text text-anchor="middle" x="351" y="-164.8" font-family="Times,serif" font-size="14.00" fill="#000000">AuthGuardService</text>
</g>
<!-- AuthGuardService&#45;&gt;AppModule -->
<g id="edge6" class="edge">
<title>AuthGuardService&#45;&gt;AppModule</title>
<path fill="none" stroke="#000000" d="M351,-187.0225C351,-204.3734 351,-228 351,-228 351,-228 492.9049,-228 492.9049,-228"/>
<polygon fill="#000000" stroke="#000000" points="492.9049,-231.5001 502.9049,-228 492.9049,-224.5001 492.9049,-231.5001"/>
</g>
<!-- PreventAuthGuardService -->
<g id="node7" class="node">
<title>PreventAuthGuardService</title>
<ellipse fill="#fdb462" stroke="#000000" cx="137" cy="-169" rx="112.8616" ry="18"/>
<text text-anchor="middle" x="137" y="-164.8" font-family="Times,serif" font-size="14.00" fill="#000000">PreventAuthGuardService</text>
</g>
<!-- PreventAuthGuardService&#45;&gt;AppModule -->
<g id="edge7" class="edge">
<title>PreventAuthGuardService&#45;&gt;AppModule</title>
<path fill="none" stroke="#000000" d="M137,-187.2843C137,-208.3211 137,-240 137,-240 137,-240 493.2542,-240 493.2542,-240"/>
<polygon fill="#000000" stroke="#000000" points="493.2543,-243.5001 503.2542,-240 493.2542,-236.5001 493.2543,-243.5001"/>
</g>
<!-- HomeComponent -->
<g id="node8" class="node">
<title>HomeComponent</title>
<polygon fill="#ffffb3" stroke="#000000" points="1912.5451,-122 1797.4549,-122 1797.4549,-86 1912.5451,-86 1912.5451,-122"/>
<text text-anchor="middle" x="1855" y="-99.8" font-family="Times,serif" font-size="14.00" fill="#000000">HomeComponent</text>
</g>
<!-- AuthenticatedModule -->
<g id="node15" class="node">
<title>AuthenticatedModule</title>
<polygon fill="#8dd3c7" stroke="#000000" points="1495.0772,-187 1492.0772,-191 1471.0772,-191 1468.0772,-187 1356.9228,-187 1356.9228,-151 1495.0772,-151 1495.0772,-187"/>
<text text-anchor="middle" x="1426" y="-164.8" font-family="Times,serif" font-size="14.00" fill="#000000">AuthenticatedModule</text>
</g>
<!-- HomeComponent&#45;&gt;AuthenticatedModule -->
<g id="edge8" class="edge">
<title>HomeComponent&#45;&gt;AuthenticatedModule</title>
<path fill="none" stroke="#000000" d="M1855,-122.2921C1855,-144.2057 1855,-178 1855,-178 1855,-178 1505.4031,-178 1505.4031,-178"/>
<polygon fill="#000000" stroke="#000000" points="1505.4031,-174.5001 1495.4031,-178 1505.403,-181.5001 1505.4031,-174.5001"/>
</g>
<!-- ConfigComponent -->
<g id="node9" class="node">
<title>ConfigComponent</title>
<polygon fill="#ffffb3" stroke="#000000" points="1779.2204,-122 1658.7796,-122 1658.7796,-86 1779.2204,-86 1779.2204,-122"/>
<text text-anchor="middle" x="1719" y="-99.8" font-family="Times,serif" font-size="14.00" fill="#000000">ConfigComponent</text>
</g>
<!-- ConfigComponent&#45;&gt;AuthenticatedModule -->
<g id="edge9" class="edge">
<title>ConfigComponent&#45;&gt;AuthenticatedModule</title>
<path fill="none" stroke="#000000" d="M1719,-122.1061C1719,-141.3391 1719,-169 1719,-169 1719,-169 1505.0659,-169 1505.0659,-169"/>
<polygon fill="#000000" stroke="#000000" points="1505.0659,-165.5001 1495.0659,-169 1505.0659,-172.5001 1505.0659,-165.5001"/>
</g>
<!-- SettingsComponent -->
<g id="node10" class="node">
<title>SettingsComponent</title>
<polygon fill="#ffffb3" stroke="#000000" points="1641.4468,-122 1514.5532,-122 1514.5532,-86 1641.4468,-86 1641.4468,-122"/>
<text text-anchor="middle" x="1578" y="-99.8" font-family="Times,serif" font-size="14.00" fill="#000000">SettingsComponent</text>
</g>
<!-- SettingsComponent&#45;&gt;AuthenticatedModule -->
<g id="edge10" class="edge">
<title>SettingsComponent&#45;&gt;AuthenticatedModule</title>
<path fill="none" stroke="#000000" d="M1578,-122.027C1578,-138.3976 1578,-160 1578,-160 1578,-160 1505.328,-160 1505.328,-160"/>
<polygon fill="#000000" stroke="#000000" points="1505.328,-156.5001 1495.328,-160 1505.3279,-163.5001 1505.328,-156.5001"/>
</g>
<!-- ConfigListComponent -->
<g id="node11" class="node">
<title>ConfigListComponent</title>
<polygon fill="#ffffb3" stroke="#000000" points="1496.9986,-122 1355.0014,-122 1355.0014,-86 1496.9986,-86 1496.9986,-122"/>
<text text-anchor="middle" x="1426" y="-99.8" font-family="Times,serif" font-size="14.00" fill="#000000">ConfigListComponent</text>
</g>
<!-- ConfigListComponent&#45;&gt;AuthenticatedModule -->
<g id="edge11" class="edge">
<title>ConfigListComponent&#45;&gt;AuthenticatedModule</title>
<path fill="none" stroke="#000000" d="M1426,-122.1061C1426,-122.1061 1426,-140.991 1426,-140.991"/>
<polygon fill="#000000" stroke="#000000" points="1422.5001,-140.9909 1426,-150.991 1429.5001,-140.991 1422.5001,-140.9909"/>
</g>
<!-- ConfigModalComponent -->
<g id="node12" class="node">
<title>ConfigModalComponent</title>
<polygon fill="#ffffb3" stroke="#000000" points="1337.2702,-122 1180.7298,-122 1180.7298,-86 1337.2702,-86 1337.2702,-122"/>
<text text-anchor="middle" x="1259" y="-99.8" font-family="Times,serif" font-size="14.00" fill="#000000">ConfigModalComponent</text>
</g>
<!-- ConfigModalComponent&#45;&gt;AuthenticatedModule -->
<g id="edge12" class="edge">
<title>ConfigModalComponent&#45;&gt;AuthenticatedModule</title>
<path fill="none" stroke="#000000" d="M1259,-122.027C1259,-138.3976 1259,-160 1259,-160 1259,-160 1346.6278,-160 1346.6278,-160"/>
<polygon fill="#000000" stroke="#000000" points="1346.6278,-163.5001 1356.6278,-160 1346.6277,-156.5001 1346.6278,-163.5001"/>
</g>
<!-- NewRulePageComponent -->
<g id="node13" class="node">
<title>NewRulePageComponent</title>
<polygon fill="#ffffb3" stroke="#000000" points="1162.9143,-122 1001.0857,-122 1001.0857,-86 1162.9143,-86 1162.9143,-122"/>
<text text-anchor="middle" x="1082" y="-99.8" font-family="Times,serif" font-size="14.00" fill="#000000">NewRulePageComponent</text>
</g>
<!-- NewRulePageComponent&#45;&gt;AuthenticatedModule -->
<g id="edge13" class="edge">
<title>NewRulePageComponent&#45;&gt;AuthenticatedModule</title>
<path fill="none" stroke="#000000" d="M1082,-122.1061C1082,-141.3391 1082,-169 1082,-169 1082,-169 1346.8003,-169 1346.8003,-169"/>
<polygon fill="#000000" stroke="#000000" points="1346.8003,-172.5001 1356.8003,-169 1346.8002,-165.5001 1346.8003,-172.5001"/>
</g>
<!-- NewRuleStepperComponent -->
<g id="node14" class="node">
<title>NewRuleStepperComponent</title>
<polygon fill="#ffffb3" stroke="#000000" points="983.465,-122 806.535,-122 806.535,-86 983.465,-86 983.465,-122"/>
<text text-anchor="middle" x="895" y="-99.8" font-family="Times,serif" font-size="14.00" fill="#000000">NewRuleStepperComponent</text>
</g>
<!-- NewRuleStepperComponent&#45;&gt;AuthenticatedModule -->
<g id="edge14" class="edge">
<title>NewRuleStepperComponent&#45;&gt;AuthenticatedModule</title>
<path fill="none" stroke="#000000" d="M895,-122.2921C895,-144.2057 895,-178 895,-178 895,-178 1346.8534,-178 1346.8534,-178"/>
<polygon fill="#000000" stroke="#000000" points="1346.8535,-181.5001 1356.8534,-178 1346.8534,-174.5001 1346.8535,-181.5001"/>
</g>
</g>
</svg>
