<?xml version="1.0" encoding="UTF-8" standalone="no"?>
<!DOCTYPE svg PUBLIC "-//W3C//DTD SVG 1.1//EN"
 "http://www.w3.org/Graphics/SVG/1.1/DTD/svg11.dtd">
<!-- Generated by graphviz version 2.40.1 (20161225.0304)
 -->
<!-- Title: dependencies Pages: 1 -->
<svg width="2541pt" height="352pt"
 viewBox="0.00 0.00 2541.00 352.00" xmlns="http://www.w3.org/2000/svg" xmlns:xlink="http://www.w3.org/1999/xlink">
<g id="graph0" class="graph" transform="scale(1 1) rotate(0) translate(4 348)">
<title>dependencies</title>
<polygon fill="#ffffff" stroke="transparent" points="-4,4 -4,-348 2537,-348 2537,4 -4,4"/>
<text text-anchor="start" x="1245.5091" y="-42.4" font-family="sans-serif" font-weight="bold" font-size="14.00" fill="#000000">Legend</text>
<polygon fill="#ffffb3" stroke="transparent" points="1032.5,-10 1032.5,-30 1052.5,-30 1052.5,-10 1032.5,-10"/>
<text text-anchor="start" x="1056.129" y="-15.4" font-family="sans-serif" font-size="14.00" fill="#000000"> &#160;Declarations</text>
<polygon fill="#8dd3c7" stroke="transparent" points="1145.5,-10 1145.5,-30 1165.5,-30 1165.5,-10 1145.5,-10"/>
<text text-anchor="start" x="1169.2251" y="-15.4" font-family="sans-serif" font-size="14.00" fill="#000000"> &#160;Module</text>
<polygon fill="#80b1d3" stroke="transparent" points="1231.5,-10 1231.5,-30 1251.5,-30 1251.5,-10 1231.5,-10"/>
<text text-anchor="start" x="1255.2812" y="-15.4" font-family="sans-serif" font-size="14.00" fill="#000000"> &#160;Bootstrap</text>
<polygon fill="#fdb462" stroke="transparent" points="1328.5,-10 1328.5,-30 1348.5,-30 1348.5,-10 1328.5,-10"/>
<text text-anchor="start" x="1352.1732" y="-15.4" font-family="sans-serif" font-size="14.00" fill="#000000"> &#160;Providers</text>
<polygon fill="#fb8072" stroke="transparent" points="1424.5,-10 1424.5,-30 1444.5,-30 1444.5,-10 1424.5,-10"/>
<text text-anchor="start" x="1448.2258" y="-15.4" font-family="sans-serif" font-size="14.00" fill="#000000"> &#160;Exports</text>
<g id="clust1" class="cluster">
<title>cluster_AppModule</title>
<polygon fill="none" stroke="#000000" stroke-dasharray="1,5" points="8,-70 8,-336 971,-336 971,-70 8,-70"/>
</g>
<g id="clust2" class="cluster">
<title>cluster_AppModule_declarations</title>
<polygon fill="none" stroke="#000000" points="450,-143 450,-195 951,-195 951,-143 450,-143"/>
</g>
<g id="clust3" class="cluster">
<title>cluster_AppModule_AppComponent_providers</title>
<polygon fill="none" stroke="#000000" points="811,-78 811,-130 963,-130 963,-78 811,-78"/>
</g>
<g id="clust8" class="cluster">
<title>cluster_AppModule_bootstrap</title>
<polygon fill="none" stroke="#000000" points="576,-276 576,-328 700,-328 700,-276 576,-276"/>
</g>
<g id="clust9" class="cluster">
<title>cluster_AppModule_providers</title>
<polygon fill="none" stroke="#000000" points="16,-143 16,-195 442,-195 442,-143 16,-143"/>
</g>
<g id="clust10" class="cluster">
<title>cluster_AuthenticatedModule</title>
<polygon fill="none" stroke="#000000" stroke-dasharray="1,5" points="979,-70 979,-268 1583,-268 1583,-70 979,-70"/>
</g>
<g id="clust11" class="cluster">
<title>cluster_AuthenticatedModule_declarations</title>
<polygon fill="none" stroke="#000000" points="1161,-78 1161,-130 1575,-130 1575,-78 1161,-78"/>
</g>
<g id="clust16" class="cluster">
<title>cluster_AuthenticatedModule_exports</title>
<polygon fill="none" stroke="#000000" points="1232,-208 1232,-260 1372,-260 1372,-208 1232,-208"/>
</g>
<g id="clust18" class="cluster">
<title>cluster_AuthenticatedModule_providers</title>
<polygon fill="none" stroke="#000000" points="987,-78 987,-130 1153,-130 1153,-78 987,-78"/>
</g>
<g id="clust19" class="cluster">
<title>cluster_ConfigModule</title>
<polygon fill="none" stroke="#000000" stroke-dasharray="1,5" points="1591,-70 1591,-268 2525,-268 2525,-70 1591,-70"/>
</g>
<g id="clust20" class="cluster">
<title>cluster_ConfigModule_declarations</title>
<polygon fill="none" stroke="#000000" points="1599,-78 1599,-130 2517,-130 2517,-78 1599,-78"/>
</g>
<g id="clust27" class="cluster">
<title>cluster_ConfigModule_exports</title>
<polygon fill="none" stroke="#000000" points="1998,-208 1998,-260 2160,-260 2160,-208 1998,-208"/>
</g>
<!-- AppComponent -->
<g id="node1" class="node">
<title>AppComponent</title>
<polygon fill="#ffffb3" stroke="#000000" points="942.9399,-187 837.0601,-187 837.0601,-151 942.9399,-151 942.9399,-187"/>
<text text-anchor="middle" x="890" y="-164.8" font-family="Times,serif" font-size="14.00" fill="#000000">AppComponent</text>
</g>
<!-- AppModule -->
<g id="node4" class="node">
<title>AppModule</title>
<polygon fill="#8dd3c7" stroke="#000000" points="679.6571,-252 676.6571,-256 655.6571,-256 652.6571,-252 596.3429,-252 596.3429,-216 679.6571,-216 679.6571,-252"/>
<text text-anchor="middle" x="638" y="-229.8" font-family="Times,serif" font-size="14.00" fill="#000000">AppModule</text>
</g>
<!-- AppComponent&#45;&gt;AppModule -->
<g id="edge1" class="edge">
<title>AppComponent&#45;&gt;AppModule</title>
<path fill="none" stroke="#000000" d="M890,-187.2843C890,-208.3211 890,-240 890,-240 890,-240 689.8956,-240 689.8956,-240"/>
<polygon fill="#000000" stroke="#000000" points="689.8956,-236.5001 679.8956,-240 689.8955,-243.5001 689.8956,-236.5001"/>
</g>
<!-- UnauthenticatedComponent -->
<g id="node2" class="node">
<title>UnauthenticatedComponent</title>
<polygon fill="#ffffb3" stroke="#000000" points="819.5744,-187 646.4256,-187 646.4256,-151 819.5744,-151 819.5744,-187"/>
<text text-anchor="middle" x="733" y="-164.8" font-family="Times,serif" font-size="14.00" fill="#000000">UnauthenticatedComponent</text>
</g>
<!-- UnauthenticatedComponent&#45;&gt;AppModule -->
<g id="edge3" class="edge">
<title>UnauthenticatedComponent&#45;&gt;AppModule</title>
<path fill="none" stroke="#000000" d="M663.1455,-187.1061C663.1455,-187.1061 663.1455,-205.991 663.1455,-205.991"/>
<polygon fill="#000000" stroke="#000000" points="659.6456,-205.9909 663.1455,-215.991 666.6456,-205.991 659.6456,-205.9909"/>
</g>
<!-- EditConfigPageComponent -->
<g id="node3" class="node">
<title>EditConfigPageComponent</title>
<polygon fill="#ffffb3" stroke="#000000" points="628.266,-187 457.734,-187 457.734,-151 628.266,-151 628.266,-187"/>
<text text-anchor="middle" x="543" y="-164.8" font-family="Times,serif" font-size="14.00" fill="#000000">EditConfigPageComponent</text>
</g>
<!-- EditConfigPageComponent&#45;&gt;AppModule -->
<g id="edge4" class="edge">
<title>EditConfigPageComponent&#45;&gt;AppModule</title>
<path fill="none" stroke="#000000" d="M612.2774,-187.1061C612.2774,-187.1061 612.2774,-205.991 612.2774,-205.991"/>
<polygon fill="#000000" stroke="#000000" points="608.7774,-205.9909 612.2774,-215.991 615.7774,-205.991 608.7774,-205.9909"/>
</g>
<!-- AppComponent  -->
<g id="node6" class="node">
<title>AppComponent </title>
<polygon fill="#80b1d3" stroke="#000000" points="692.439,-320 583.561,-320 583.561,-284 692.439,-284 692.439,-320"/>
<text text-anchor="middle" x="638" y="-297.8" font-family="Times,serif" font-size="14.00" fill="#000000">AppComponent </text>
</g>
<!-- AppModule&#45;&gt;AppComponent  -->
<g id="edge5" class="edge">
<title>AppModule&#45;&gt;AppComponent </title>
<path fill="none" stroke="#000000" stroke-dasharray="1,5" d="M638,-252.2228C638,-252.2228 638,-273.7269 638,-273.7269"/>
<polygon fill="#000000" stroke="#000000" points="634.5001,-273.7269 638,-283.7269 641.5001,-273.727 634.5001,-273.7269"/>
</g>
<!-- GoogleService -->
<g id="node5" class="node">
<title>GoogleService</title>
<ellipse fill="#fdb462" stroke="#000000" cx="887" cy="-104" rx="68.3382" ry="18"/>
<text text-anchor="middle" x="887" y="-99.8" font-family="Times,serif" font-size="14.00" fill="#000000">GoogleService</text>
</g>
<!-- GoogleService&#45;&gt;AppComponent -->
<g id="edge2" class="edge">
<title>GoogleService&#45;&gt;AppComponent</title>
<path fill="none" stroke="#000000" d="M890,-122.1061C890,-122.1061 890,-140.991 890,-140.991"/>
<polygon fill="#000000" stroke="#000000" points="886.5001,-140.9909 890,-150.991 893.5001,-140.991 886.5001,-140.9909"/>
</g>
<!-- GoogleService&#45;&gt;AppModule -->
<g id="edge6" class="edge">
<title>GoogleService&#45;&gt;AppModule</title>
<path fill="none" stroke="#000000" d="M828.4089,-113.3202C828.4089,-142.1578 828.4089,-228 828.4089,-228 828.4089,-228 689.786,-228 689.786,-228"/>
<polygon fill="#000000" stroke="#000000" points="689.7861,-224.5001 679.786,-228 689.786,-231.5001 689.7861,-224.5001"/>
</g>
<!-- AuthGuardService -->
<g id="node7" class="node">
<title>AuthGuardService</title>
<ellipse fill="#fdb462" stroke="#000000" cx="351" cy="-169" rx="83.3674" ry="18"/>
<text text-anchor="middle" x="351" y="-164.8" font-family="Times,serif" font-size="14.00" fill="#000000">AuthGuardService</text>
</g>
<!-- AuthGuardService&#45;&gt;AppModule -->
<g id="edge7" class="edge">
<title>AuthGuardService&#45;&gt;AppModule</title>
<path fill="none" stroke="#000000" d="M351,-187.0225C351,-204.3734 351,-228 351,-228 351,-228 586.2677,-228 586.2677,-228"/>
<polygon fill="#000000" stroke="#000000" points="586.2678,-231.5001 596.2677,-228 586.2677,-224.5001 586.2678,-231.5001"/>
</g>
<!-- PreventAuthGuardService -->
<g id="node8" class="node">
<title>PreventAuthGuardService</title>
<ellipse fill="#fdb462" stroke="#000000" cx="137" cy="-169" rx="112.8616" ry="18"/>
<text text-anchor="middle" x="137" y="-164.8" font-family="Times,serif" font-size="14.00" fill="#000000">PreventAuthGuardService</text>
</g>
<!-- PreventAuthGuardService&#45;&gt;AppModule -->
<g id="edge8" class="edge">
<title>PreventAuthGuardService&#45;&gt;AppModule</title>
<path fill="none" stroke="#000000" d="M137,-187.2843C137,-208.3211 137,-240 137,-240 137,-240 586.1467,-240 586.1467,-240"/>
<polygon fill="#000000" stroke="#000000" points="586.1468,-243.5001 596.1467,-240 586.1467,-236.5001 586.1468,-243.5001"/>
</g>
<!-- HomeComponent -->
<g id="node9" class="node">
<title>HomeComponent</title>
<polygon fill="#ffffb3" stroke="#000000" points="1566.5451,-122 1451.4549,-122 1451.4549,-86 1566.5451,-86 1566.5451,-122"/>
<text text-anchor="middle" x="1509" y="-99.8" font-family="Times,serif" font-size="14.00" fill="#000000">HomeComponent</text>
</g>
<!-- AuthenticatedModule -->
<g id="node12" class="node">
<title>AuthenticatedModule</title>
<polygon fill="#8dd3c7" stroke="#000000" points="1371.0772,-187 1368.0772,-191 1347.0772,-191 1344.0772,-187 1232.9228,-187 1232.9228,-151 1371.0772,-151 1371.0772,-187"/>
<text text-anchor="middle" x="1302" y="-164.8" font-family="Times,serif" font-size="14.00" fill="#000000">AuthenticatedModule</text>
</g>
<!-- HomeComponent&#45;&gt;AuthenticatedModule -->
<g id="edge9" class="edge">
<title>HomeComponent&#45;&gt;AuthenticatedModule</title>
<path fill="none" stroke="#000000" d="M1509,-122.027C1509,-138.3976 1509,-160 1509,-160 1509,-160 1381.2158,-160 1381.2158,-160"/>
<polygon fill="#000000" stroke="#000000" points="1381.2158,-156.5001 1371.2158,-160 1381.2158,-163.5001 1381.2158,-156.5001"/>
</g>
<!-- ConfigComponent -->
<g id="node10" class="node">
<title>ConfigComponent</title>
<polygon fill="#ffffb3" stroke="#000000" points="1433.2204,-122 1312.7796,-122 1312.7796,-86 1433.2204,-86 1433.2204,-122"/>
<text text-anchor="middle" x="1373" y="-99.8" font-family="Times,serif" font-size="14.00" fill="#000000">ConfigComponent</text>
</g>
<!-- ConfigComponent&#45;&gt;AuthenticatedModule -->
<g id="edge10" class="edge">
<title>ConfigComponent&#45;&gt;AuthenticatedModule</title>
<path fill="none" stroke="#000000" d="M1341.9643,-122.1061C1341.9643,-122.1061 1341.9643,-140.991 1341.9643,-140.991"/>
<polygon fill="#000000" stroke="#000000" points="1338.4643,-140.9909 1341.9643,-150.991 1345.4643,-140.991 1338.4643,-140.9909"/>
</g>
<!-- SettingsComponent -->
<g id="node11" class="node">
<title>SettingsComponent</title>
<polygon fill="#ffffb3" stroke="#000000" points="1295.4468,-122 1168.5532,-122 1168.5532,-86 1295.4468,-86 1295.4468,-122"/>
<text text-anchor="middle" x="1232" y="-99.8" font-family="Times,serif" font-size="14.00" fill="#000000">SettingsComponent</text>
</g>
<!-- SettingsComponent&#45;&gt;AuthenticatedModule -->
<g id="edge11" class="edge">
<title>SettingsComponent&#45;&gt;AuthenticatedModule</title>
<path fill="none" stroke="#000000" d="M1264.0922,-122.1061C1264.0922,-122.1061 1264.0922,-140.991 1264.0922,-140.991"/>
<polygon fill="#000000" stroke="#000000" points="1260.5923,-140.9909 1264.0922,-150.991 1267.5923,-140.991 1260.5923,-140.9909"/>
</g>
<!-- ConfigComponent  -->
<g id="node13" class="node">
<title>ConfigComponent </title>
<polygon fill="#fb8072" stroke="#000000" points="1363.7205,-252 1240.2795,-252 1240.2795,-216 1363.7205,-216 1363.7205,-252"/>
<text text-anchor="middle" x="1302" y="-229.8" font-family="Times,serif" font-size="14.00" fill="#000000">ConfigComponent </text>
</g>
<!-- AuthenticatedModule&#45;&gt;ConfigComponent  -->
<g id="edge12" class="edge">
<title>AuthenticatedModule&#45;&gt;ConfigComponent </title>
<path fill="none" stroke="#000000" stroke-dasharray="5,2" d="M1302,-187.1061C1302,-187.1061 1302,-205.991 1302,-205.991"/>
<polygon fill="#000000" stroke="#000000" points="1298.5001,-205.9909 1302,-215.991 1305.5001,-205.991 1298.5001,-205.9909"/>
</g>
<!-- DatabaseService -->
<g id="node14" class="node">
<title>DatabaseService</title>
<ellipse fill="#fdb462" stroke="#000000" cx="1070" cy="-104" rx="75.2559" ry="18"/>
<text text-anchor="middle" x="1070" y="-99.8" font-family="Times,serif" font-size="14.00" fill="#000000">DatabaseService</text>
</g>
<!-- DatabaseService&#45;&gt;AuthenticatedModule -->
<g id="edge13" class="edge">
<title>DatabaseService&#45;&gt;AuthenticatedModule</title>
<path fill="none" stroke="#000000" d="M1070,-122.1061C1070,-141.3391 1070,-169 1070,-169 1070,-169 1222.7066,-169 1222.7066,-169"/>
<polygon fill="#000000" stroke="#000000" points="1222.7066,-172.5001 1232.7066,-169 1222.7066,-165.5001 1222.7066,-172.5001"/>
</g>
<!-- ConfigListComponent -->
<g id="node15" class="node">
<title>ConfigListComponent</title>
<polygon fill="#ffffb3" stroke="#000000" points="2508.9986,-122 2367.0014,-122 2367.0014,-86 2508.9986,-86 2508.9986,-122"/>
<text text-anchor="middle" x="2438" y="-99.8" font-family="Times,serif" font-size="14.00" fill="#000000">ConfigListComponent</text>
</g>
<!-- ConfigModule -->
<g id="node20" class="node">
<title>ConfigModule</title>
<polygon fill="#8dd3c7" stroke="#000000" points="2128.4386,-187 2125.4386,-191 2104.4386,-191 2101.4386,-187 2029.5614,-187 2029.5614,-151 2128.4386,-151 2128.4386,-187"/>
<text text-anchor="middle" x="2079" y="-164.8" font-family="Times,serif" font-size="14.00" fill="#000000">ConfigModule</text>
</g>
<!-- ConfigListComponent&#45;&gt;ConfigModule -->
<g id="edge14" class="edge">
<title>ConfigListComponent&#45;&gt;ConfigModule</title>
<path fill="none" stroke="#000000" d="M2438,-122.2843C2438,-143.3211 2438,-175 2438,-175 2438,-175 2138.5405,-175 2138.5405,-175"/>
<polygon fill="#000000" stroke="#000000" points="2138.5405,-171.5001 2128.5405,-175 2138.5405,-178.5001 2138.5405,-171.5001"/>
</g>
<!-- NewConfigPageComponent -->
<g id="node16" class="node">
<title>NewConfigPageComponent</title>
<polygon fill="#ffffb3" stroke="#000000" points="2348.8599,-122 2175.1401,-122 2175.1401,-86 2348.8599,-86 2348.8599,-122"/>
<text text-anchor="middle" x="2262" y="-99.8" font-family="Times,serif" font-size="14.00" fill="#000000">NewConfigPageComponent</text>
</g>
<!-- NewConfigPageComponent&#45;&gt;ConfigModule -->
<g id="edge15" class="edge">
<title>NewConfigPageComponent&#45;&gt;ConfigModule</title>
<path fill="none" stroke="#000000" d="M2262,-122.0225C2262,-139.3734 2262,-163 2262,-163 2262,-163 2138.5224,-163 2138.5224,-163"/>
<polygon fill="#000000" stroke="#000000" points="2138.5225,-159.5001 2128.5224,-163 2138.5224,-166.5001 2138.5225,-159.5001"/>
</g>
<!-- ConfigModalComponent -->
<g id="node17" class="node">
<title>ConfigModalComponent</title>
<polygon fill="#ffffb3" stroke="#000000" points="2157.2702,-122 2000.7298,-122 2000.7298,-86 2157.2702,-86 2157.2702,-122"/>
<text text-anchor="middle" x="2079" y="-99.8" font-family="Times,serif" font-size="14.00" fill="#000000">ConfigModalComponent</text>
</g>
<!-- ConfigModalComponent&#45;&gt;ConfigModule -->
<g id="edge16" class="edge">
<title>ConfigModalComponent&#45;&gt;ConfigModule</title>
<path fill="none" stroke="#000000" d="M2079,-122.1061C2079,-122.1061 2079,-140.991 2079,-140.991"/>
<polygon fill="#000000" stroke="#000000" points="2075.5001,-140.9909 2079,-150.991 2082.5001,-140.991 2075.5001,-140.9909"/>
</g>
<!-- NewRuleStepperComponent -->
<g id="node18" class="node">
<title>NewRuleStepperComponent</title>
<polygon fill="#ffffb3" stroke="#000000" points="1982.465,-122 1805.535,-122 1805.535,-86 1982.465,-86 1982.465,-122"/>
<text text-anchor="middle" x="1894" y="-99.8" font-family="Times,serif" font-size="14.00" fill="#000000">NewRuleStepperComponent</text>
</g>
<!-- NewRuleStepperComponent&#45;&gt;ConfigModule -->
<g id="edge17" class="edge">
<title>NewRuleStepperComponent&#45;&gt;ConfigModule</title>
<path fill="none" stroke="#000000" d="M1894,-122.1061C1894,-141.3391 1894,-169 1894,-169 1894,-169 2019.4234,-169 2019.4234,-169"/>
<polygon fill="#000000" stroke="#000000" points="2019.4234,-172.5001 2029.4234,-169 2019.4234,-165.5001 2019.4234,-172.5001"/>
</g>
<!-- EditConfigModalComponent -->
<g id="node19" class="node">
<title>EditConfigModalComponent</title>
<polygon fill="#ffffb3" stroke="#000000" points="1787.1038,-122 1606.8962,-122 1606.8962,-86 1787.1038,-86 1787.1038,-122"/>
<text text-anchor="middle" x="1697" y="-99.8" font-family="Times,serif" font-size="14.00" fill="#000000">EditConfigModalComponent</text>
</g>
<!-- EditConfigModalComponent&#45;&gt;ConfigModule -->
<g id="edge18" class="edge">
<title>EditConfigModalComponent&#45;&gt;ConfigModule</title>
<path fill="none" stroke="#000000" d="M1697,-122.2921C1697,-144.2057 1697,-178 1697,-178 1697,-178 2019.4518,-178 2019.4518,-178"/>
<polygon fill="#000000" stroke="#000000" points="2019.4518,-181.5001 2029.4518,-178 2019.4518,-174.5001 2019.4518,-181.5001"/>
</g>
<!-- ConfigListComponent  -->
<g id="node21" class="node">
<title>ConfigListComponent </title>
<polygon fill="#fb8072" stroke="#000000" points="2151.9995,-252 2006.0005,-252 2006.0005,-216 2151.9995,-216 2151.9995,-252"/>
<text text-anchor="middle" x="2079" y="-229.8" font-family="Times,serif" font-size="14.00" fill="#000000">ConfigListComponent </text>
</g>
<!-- ConfigModule&#45;&gt;ConfigListComponent  -->
<g id="edge19" class="edge">
<title>ConfigModule&#45;&gt;ConfigListComponent </title>
<path fill="none" stroke="#000000" stroke-dasharray="5,2" d="M2079,-187.1061C2079,-187.1061 2079,-205.991 2079,-205.991"/>
<polygon fill="#000000" stroke="#000000" points="2075.5001,-205.9909 2079,-215.991 2082.5001,-205.991 2075.5001,-205.9909"/>
</g>
</g>
</svg>
