<?xml version="1.0" encoding="UTF-8" standalone="no"?>
<!DOCTYPE svg PUBLIC "-//W3C//DTD SVG 1.1//EN"
 "http://www.w3.org/Graphics/SVG/1.1/DTD/svg11.dtd">
<!-- Generated by graphviz version 2.40.1 (20161225.0304)
 -->
<!-- Title: dependencies Pages: 1 -->
<svg width="2285pt" height="284pt"
 viewBox="0.00 0.00 2285.00 284.00" xmlns="http://www.w3.org/2000/svg" xmlns:xlink="http://www.w3.org/1999/xlink">
<g id="graph0" class="graph" transform="scale(1 1) rotate(0) translate(4 280)">
<title>dependencies</title>
<polygon fill="#ffffff" stroke="transparent" points="-4,4 -4,-280 2281,-280 2281,4 -4,4"/>
<text text-anchor="start" x="1117.5091" y="-42.4" font-family="sans-serif" font-weight="bold" font-size="14.00" fill="#000000">Legend</text>
<polygon fill="#ffffb3" stroke="transparent" points="904.5,-10 904.5,-30 924.5,-30 924.5,-10 904.5,-10"/>
<text text-anchor="start" x="928.129" y="-15.4" font-family="sans-serif" font-size="14.00" fill="#000000"> &#160;Declarations</text>
<polygon fill="#8dd3c7" stroke="transparent" points="1017.5,-10 1017.5,-30 1037.5,-30 1037.5,-10 1017.5,-10"/>
<text text-anchor="start" x="1041.2251" y="-15.4" font-family="sans-serif" font-size="14.00" fill="#000000"> &#160;Module</text>
<polygon fill="#80b1d3" stroke="transparent" points="1103.5,-10 1103.5,-30 1123.5,-30 1123.5,-10 1103.5,-10"/>
<text text-anchor="start" x="1127.2812" y="-15.4" font-family="sans-serif" font-size="14.00" fill="#000000"> &#160;Bootstrap</text>
<polygon fill="#fdb462" stroke="transparent" points="1200.5,-10 1200.5,-30 1220.5,-30 1220.5,-10 1200.5,-10"/>
<text text-anchor="start" x="1224.1732" y="-15.4" font-family="sans-serif" font-size="14.00" fill="#000000"> &#160;Providers</text>
<polygon fill="#fb8072" stroke="transparent" points="1296.5,-10 1296.5,-30 1316.5,-30 1316.5,-10 1296.5,-10"/>
<text text-anchor="start" x="1320.2258" y="-15.4" font-family="sans-serif" font-size="14.00" fill="#000000"> &#160;Exports</text>
<g id="clust1" class="cluster">
<title>cluster_AppModule</title>
<polygon fill="none" stroke="#000000" stroke-dasharray="1,5" points="8,-70 8,-268 926,-268 926,-70 8,-70"/>
</g>
<g id="clust2" class="cluster">
<title>cluster_AppModule_declarations</title>
<polygon fill="none" stroke="#000000" points="605,-78 605,-130 918,-130 918,-78 605,-78"/>
</g>
<g id="clust7" class="cluster">
<title>cluster_AppModule_bootstrap</title>
<polygon fill="none" stroke="#000000" points="459,-208 459,-260 583,-260 583,-208 459,-208"/>
</g>
<g id="clust8" class="cluster">
<title>cluster_AppModule_providers</title>
<polygon fill="none" stroke="#000000" points="16,-78 16,-130 597,-130 597,-78 16,-78"/>
</g>
<g id="clust9" class="cluster">
<title>cluster_AuthenticatedModule</title>
<polygon fill="none" stroke="#000000" stroke-dasharray="1,5" points="934,-70 934,-195 1538,-195 1538,-70 934,-70"/>
</g>
<g id="clust10" class="cluster">
<title>cluster_AuthenticatedModule_declarations</title>
<polygon fill="none" stroke="#000000" points="1116,-78 1116,-130 1530,-130 1530,-78 1116,-78"/>
</g>
<g id="clust17" class="cluster">
<title>cluster_AuthenticatedModule_providers</title>
<polygon fill="none" stroke="#000000" points="942,-78 942,-130 1108,-130 1108,-78 942,-78"/>
</g>
<g id="clust18" class="cluster">
<title>cluster_ConfigModule</title>
<polygon fill="none" stroke="#000000" stroke-dasharray="1,5" points="1546,-70 1546,-268 2269,-268 2269,-70 1546,-70"/>
</g>
<g id="clust19" class="cluster">
<title>cluster_ConfigModule_declarations</title>
<polygon fill="none" stroke="#000000" points="1554,-78 1554,-130 2261,-130 2261,-78 1554,-78"/>
</g>
<g id="clust25" class="cluster">
<title>cluster_ConfigModule_exports</title>
<polygon fill="none" stroke="#000000" points="1842,-208 1842,-260 2004,-260 2004,-208 1842,-208"/>
</g>
<!-- AppComponent -->
<g id="node1" class="node">
<title>AppComponent</title>
<polygon fill="#ffffb3" stroke="#000000" points="909.9399,-122 804.0601,-122 804.0601,-86 909.9399,-86 909.9399,-122"/>
<text text-anchor="middle" x="857" y="-99.8" font-family="Times,serif" font-size="14.00" fill="#000000">AppComponent</text>
</g>
<!-- AppModule -->
<g id="node3" class="node">
<title>AppModule</title>
<polygon fill="#8dd3c7" stroke="#000000" points="562.6571,-187 559.6571,-191 538.6571,-191 535.6571,-187 479.3429,-187 479.3429,-151 562.6571,-151 562.6571,-187"/>
<text text-anchor="middle" x="521" y="-164.8" font-family="Times,serif" font-size="14.00" fill="#000000">AppModule</text>
</g>
<!-- AppComponent&#45;&gt;AppModule -->
<g id="edge1" class="edge">
<title>AppComponent&#45;&gt;AppModule</title>
<path fill="none" stroke="#000000" d="M857,-122.2921C857,-144.2057 857,-178 857,-178 857,-178 572.8753,-178 572.8753,-178"/>
<polygon fill="#000000" stroke="#000000" points="572.8753,-174.5001 562.8753,-178 572.8752,-181.5001 572.8753,-174.5001"/>
</g>
<!-- UnauthenticatedComponent -->
<g id="node2" class="node">
<title>UnauthenticatedComponent</title>
<polygon fill="#ffffb3" stroke="#000000" points="786.5744,-122 613.4256,-122 613.4256,-86 786.5744,-86 786.5744,-122"/>
<text text-anchor="middle" x="700" y="-99.8" font-family="Times,serif" font-size="14.00" fill="#000000">UnauthenticatedComponent</text>
</g>
<!-- UnauthenticatedComponent&#45;&gt;AppModule -->
<g id="edge2" class="edge">
<title>UnauthenticatedComponent&#45;&gt;AppModule</title>
<path fill="none" stroke="#000000" d="M700,-122.1061C700,-141.3391 700,-169 700,-169 700,-169 572.9675,-169 572.9675,-169"/>
<polygon fill="#000000" stroke="#000000" points="572.9676,-165.5001 562.9675,-169 572.9675,-172.5001 572.9676,-165.5001"/>
</g>
<!-- AppComponent  -->
<g id="node4" class="node">
<title>AppComponent </title>
<polygon fill="#80b1d3" stroke="#000000" points="575.439,-252 466.561,-252 466.561,-216 575.439,-216 575.439,-252"/>
<text text-anchor="middle" x="521" y="-229.8" font-family="Times,serif" font-size="14.00" fill="#000000">AppComponent </text>
</g>
<!-- AppModule&#45;&gt;AppComponent  -->
<g id="edge3" class="edge">
<title>AppModule&#45;&gt;AppComponent </title>
<path fill="none" stroke="#000000" stroke-dasharray="1,5" d="M521,-187.1061C521,-187.1061 521,-205.991 521,-205.991"/>
<polygon fill="#000000" stroke="#000000" points="517.5001,-205.9909 521,-215.991 524.5001,-205.991 517.5001,-205.9909"/>
</g>
<!-- GoogleService -->
<g id="node5" class="node">
<title>GoogleService</title>
<ellipse fill="#fdb462" stroke="#000000" cx="521" cy="-104" rx="68.3382" ry="18"/>
<text text-anchor="middle" x="521" y="-99.8" font-family="Times,serif" font-size="14.00" fill="#000000">GoogleService</text>
</g>
<!-- GoogleService&#45;&gt;AppModule -->
<g id="edge4" class="edge">
<title>GoogleService&#45;&gt;AppModule</title>
<path fill="none" stroke="#000000" d="M521,-122.1061C521,-122.1061 521,-140.991 521,-140.991"/>
<polygon fill="#000000" stroke="#000000" points="517.5001,-140.9909 521,-150.991 524.5001,-140.991 517.5001,-140.9909"/>
</g>
<!-- AuthGuardService -->
<g id="node6" class="node">
<title>AuthGuardService</title>
<ellipse fill="#fdb462" stroke="#000000" cx="351" cy="-104" rx="83.3674" ry="18"/>
<text text-anchor="middle" x="351" y="-99.8" font-family="Times,serif" font-size="14.00" fill="#000000">AuthGuardService</text>
</g>
<!-- AuthGuardService&#45;&gt;AppModule -->
<g id="edge5" class="edge">
<title>AuthGuardService&#45;&gt;AppModule</title>
<path fill="none" stroke="#000000" d="M351,-122.0225C351,-139.3734 351,-163 351,-163 351,-163 468.9775,-163 468.9775,-163"/>
<polygon fill="#000000" stroke="#000000" points="468.9776,-166.5001 478.9775,-163 468.9775,-159.5001 468.9776,-166.5001"/>
</g>
<!-- PreventAuthGuardService -->
<g id="node7" class="node">
<title>PreventAuthGuardService</title>
<ellipse fill="#fdb462" stroke="#000000" cx="137" cy="-104" rx="112.8616" ry="18"/>
<text text-anchor="middle" x="137" y="-99.8" font-family="Times,serif" font-size="14.00" fill="#000000">PreventAuthGuardService</text>
</g>
<!-- PreventAuthGuardService&#45;&gt;AppModule -->
<g id="edge6" class="edge">
<title>PreventAuthGuardService&#45;&gt;AppModule</title>
<path fill="none" stroke="#000000" d="M137,-122.2843C137,-143.3211 137,-175 137,-175 137,-175 469.1743,-175 469.1743,-175"/>
<polygon fill="#000000" stroke="#000000" points="469.1743,-178.5001 479.1743,-175 469.1742,-171.5001 469.1743,-178.5001"/>
</g>
<!-- HomeComponent -->
<g id="node8" class="node">
<title>HomeComponent</title>
<polygon fill="#ffffb3" stroke="#000000" points="1521.5451,-122 1406.4549,-122 1406.4549,-86 1521.5451,-86 1521.5451,-122"/>
<text text-anchor="middle" x="1464" y="-99.8" font-family="Times,serif" font-size="14.00" fill="#000000">HomeComponent</text>
</g>
<!-- AuthenticatedModule -->
<g id="node11" class="node">
<title>AuthenticatedModule</title>
<polygon fill="#8dd3c7" stroke="#000000" points="1326.0772,-187 1323.0772,-191 1302.0772,-191 1299.0772,-187 1187.9228,-187 1187.9228,-151 1326.0772,-151 1326.0772,-187"/>
<text text-anchor="middle" x="1257" y="-164.8" font-family="Times,serif" font-size="14.00" fill="#000000">AuthenticatedModule</text>
</g>
<!-- HomeComponent&#45;&gt;AuthenticatedModule -->
<g id="edge7" class="edge">
<title>HomeComponent&#45;&gt;AuthenticatedModule</title>
<path fill="none" stroke="#000000" d="M1464,-122.2843C1464,-143.3211 1464,-175 1464,-175 1464,-175 1336.2158,-175 1336.2158,-175"/>
<polygon fill="#000000" stroke="#000000" points="1336.2158,-171.5001 1326.2158,-175 1336.2158,-178.5001 1336.2158,-171.5001"/>
</g>
<!-- ConfigComponent -->
<g id="node9" class="node">
<title>ConfigComponent</title>
<polygon fill="#ffffb3" stroke="#000000" points="1388.2204,-122 1267.7796,-122 1267.7796,-86 1388.2204,-86 1388.2204,-122"/>
<text text-anchor="middle" x="1328" y="-99.8" font-family="Times,serif" font-size="14.00" fill="#000000">ConfigComponent</text>
</g>
<!-- ConfigComponent&#45;&gt;AuthenticatedModule -->
<g id="edge8" class="edge">
<title>ConfigComponent&#45;&gt;AuthenticatedModule</title>
<path fill="none" stroke="#000000" d="M1296.9643,-122.1061C1296.9643,-122.1061 1296.9643,-140.991 1296.9643,-140.991"/>
<polygon fill="#000000" stroke="#000000" points="1293.4643,-140.9909 1296.9643,-150.991 1300.4643,-140.991 1293.4643,-140.9909"/>
</g>
<!-- SettingsComponent -->
<g id="node10" class="node">
<title>SettingsComponent</title>
<polygon fill="#ffffb3" stroke="#000000" points="1250.4468,-122 1123.5532,-122 1123.5532,-86 1250.4468,-86 1250.4468,-122"/>
<text text-anchor="middle" x="1187" y="-99.8" font-family="Times,serif" font-size="14.00" fill="#000000">SettingsComponent</text>
</g>
<!-- SettingsComponent&#45;&gt;AuthenticatedModule -->
<g id="edge9" class="edge">
<title>SettingsComponent&#45;&gt;AuthenticatedModule</title>
<path fill="none" stroke="#000000" d="M1219.0922,-122.1061C1219.0922,-122.1061 1219.0922,-140.991 1219.0922,-140.991"/>
<polygon fill="#000000" stroke="#000000" points="1215.5923,-140.9909 1219.0922,-150.991 1222.5923,-140.991 1215.5923,-140.9909"/>
</g>
<!-- DatabaseService -->
<g id="node12" class="node">
<title>DatabaseService</title>
<ellipse fill="#fdb462" stroke="#000000" cx="1025" cy="-104" rx="75.2559" ry="18"/>
<text text-anchor="middle" x="1025" y="-99.8" font-family="Times,serif" font-size="14.00" fill="#000000">DatabaseService</text>
</g>
<!-- DatabaseService&#45;&gt;AuthenticatedModule -->
<g id="edge10" class="edge">
<title>DatabaseService&#45;&gt;AuthenticatedModule</title>
<path fill="none" stroke="#000000" d="M1025,-122.027C1025,-138.3976 1025,-160 1025,-160 1025,-160 1177.7066,-160 1177.7066,-160"/>
<polygon fill="#000000" stroke="#000000" points="1177.7066,-163.5001 1187.7066,-160 1177.7066,-156.5001 1177.7066,-163.5001"/>
</g>
<!-- ConfigListComponent -->
<g id="node13" class="node">
<title>ConfigListComponent</title>
<polygon fill="#ffffb3" stroke="#000000" points="2252.9986,-122 2111.0014,-122 2111.0014,-86 2252.9986,-86 2252.9986,-122"/>
<text text-anchor="middle" x="2182" y="-99.8" font-family="Times,serif" font-size="14.00" fill="#000000">ConfigListComponent</text>
</g>
<!-- ConfigModule -->
<g id="node17" class="node">
<title>ConfigModule</title>
<polygon fill="#8dd3c7" stroke="#000000" points="1972.4386,-187 1969.4386,-191 1948.4386,-191 1945.4386,-187 1873.5614,-187 1873.5614,-151 1972.4386,-151 1972.4386,-187"/>
<text text-anchor="middle" x="1923" y="-164.8" font-family="Times,serif" font-size="14.00" fill="#000000">ConfigModule</text>
</g>
<!-- ConfigListComponent&#45;&gt;ConfigModule -->
<g id="edge11" class="edge">
<title>ConfigListComponent&#45;&gt;ConfigModule</title>
<path fill="none" stroke="#000000" d="M2182,-122.1061C2182,-141.3391 2182,-169 2182,-169 2182,-169 1982.3256,-169 1982.3256,-169"/>
<polygon fill="#000000" stroke="#000000" points="1982.3256,-165.5001 1972.3256,-169 1982.3255,-172.5001 1982.3256,-165.5001"/>
</g>
<!-- NewRulePageComponent -->
<g id="node14" class="node">
<title>NewRulePageComponent</title>
<polygon fill="#ffffb3" stroke="#000000" points="2092.9143,-122 1931.0857,-122 1931.0857,-86 2092.9143,-86 2092.9143,-122"/>
<text text-anchor="middle" x="2012" y="-99.8" font-family="Times,serif" font-size="14.00" fill="#000000">NewRulePageComponent</text>
</g>
<!-- NewRulePageComponent&#45;&gt;ConfigModule -->
<g id="edge12" class="edge">
<title>NewRulePageComponent&#45;&gt;ConfigModule</title>
<path fill="none" stroke="#000000" d="M1951.756,-122.1061C1951.756,-122.1061 1951.756,-140.991 1951.756,-140.991"/>
<polygon fill="#000000" stroke="#000000" points="1948.256,-140.9909 1951.756,-150.991 1955.256,-140.991 1948.256,-140.9909"/>
</g>
<!-- ConfigModalComponent -->
<g id="node15" class="node">
<title>ConfigModalComponent</title>
<polygon fill="#ffffb3" stroke="#000000" points="1913.2702,-122 1756.7298,-122 1756.7298,-86 1913.2702,-86 1913.2702,-122"/>
<text text-anchor="middle" x="1835" y="-99.8" font-family="Times,serif" font-size="14.00" fill="#000000">ConfigModalComponent</text>
</g>
<!-- ConfigModalComponent&#45;&gt;ConfigModule -->
<g id="edge13" class="edge">
<title>ConfigModalComponent&#45;&gt;ConfigModule</title>
<path fill="none" stroke="#000000" d="M1893.5831,-122.1061C1893.5831,-122.1061 1893.5831,-140.991 1893.5831,-140.991"/>
<polygon fill="#000000" stroke="#000000" points="1890.0832,-140.9909 1893.5831,-150.991 1897.0832,-140.991 1890.0832,-140.9909"/>
</g>
<!-- NewRuleStepperComponent -->
<g id="node16" class="node">
<title>NewRuleStepperComponent</title>
<polygon fill="#ffffb3" stroke="#000000" points="1738.465,-122 1561.535,-122 1561.535,-86 1738.465,-86 1738.465,-122"/>
<text text-anchor="middle" x="1650" y="-99.8" font-family="Times,serif" font-size="14.00" fill="#000000">NewRuleStepperComponent</text>
</g>
<!-- NewRuleStepperComponent&#45;&gt;ConfigModule -->
<g id="edge14" class="edge">
<title>NewRuleStepperComponent&#45;&gt;ConfigModule</title>
<path fill="none" stroke="#000000" d="M1650,-122.0225C1650,-139.3734 1650,-163 1650,-163 1650,-163 1863.5618,-163 1863.5618,-163"/>
<polygon fill="#000000" stroke="#000000" points="1863.5618,-166.5001 1873.5618,-163 1863.5617,-159.5001 1863.5618,-166.5001"/>
</g>
<!-- ConfigListComponent  -->
<g id="node18" class="node">
<title>ConfigListComponent </title>
<polygon fill="#fb8072" stroke="#000000" points="1995.9995,-252 1850.0005,-252 1850.0005,-216 1995.9995,-216 1995.9995,-252"/>
<text text-anchor="middle" x="1923" y="-229.8" font-family="Times,serif" font-size="14.00" fill="#000000">ConfigListComponent </text>
</g>
<!-- ConfigModule&#45;&gt;ConfigListComponent  -->
<g id="edge15" class="edge">
<title>ConfigModule&#45;&gt;ConfigListComponent </title>
<path fill="none" stroke="#000000" stroke-dasharray="5,2" d="M1923,-187.1061C1923,-187.1061 1923,-205.991 1923,-205.991"/>
<polygon fill="#000000" stroke="#000000" points="1919.5001,-205.9909 1923,-215.991 1926.5001,-205.991 1919.5001,-205.9909"/>
</g>
</g>
</svg>
