<?xml version="1.0" encoding="UTF-8" standalone="no"?>
<!DOCTYPE svg PUBLIC "-//W3C//DTD SVG 1.1//EN"
 "http://www.w3.org/Graphics/SVG/1.1/DTD/svg11.dtd">
<!-- Generated by graphviz version 2.40.1 (20161225.0304)
 -->
<!-- Title: dependencies Pages: 1 -->
<svg width="2465pt" height="428pt"
 viewBox="0.00 0.00 2465.00 428.00" xmlns="http://www.w3.org/2000/svg" xmlns:xlink="http://www.w3.org/1999/xlink">
<g id="graph0" class="graph" transform="scale(1 1) rotate(0) translate(4 424)">
<title>dependencies</title>
<polygon fill="#ffffff" stroke="transparent" points="-4,4 -4,-424 2461,-424 2461,4 -4,4"/>
<text text-anchor="start" x="1207.5091" y="-42.4" font-family="sans-serif" font-weight="bold" font-size="14.00" fill="#000000">Legend</text>
<polygon fill="#ffffb3" stroke="transparent" points="994.5,-10 994.5,-30 1014.5,-30 1014.5,-10 994.5,-10"/>
<text text-anchor="start" x="1018.129" y="-15.4" font-family="sans-serif" font-size="14.00" fill="#000000"> &#160;Declarations</text>
<polygon fill="#8dd3c7" stroke="transparent" points="1107.5,-10 1107.5,-30 1127.5,-30 1127.5,-10 1107.5,-10"/>
<text text-anchor="start" x="1131.2251" y="-15.4" font-family="sans-serif" font-size="14.00" fill="#000000"> &#160;Module</text>
<polygon fill="#80b1d3" stroke="transparent" points="1193.5,-10 1193.5,-30 1213.5,-30 1213.5,-10 1193.5,-10"/>
<text text-anchor="start" x="1217.2812" y="-15.4" font-family="sans-serif" font-size="14.00" fill="#000000"> &#160;Bootstrap</text>
<polygon fill="#fdb462" stroke="transparent" points="1290.5,-10 1290.5,-30 1310.5,-30 1310.5,-10 1290.5,-10"/>
<text text-anchor="start" x="1314.1732" y="-15.4" font-family="sans-serif" font-size="14.00" fill="#000000"> &#160;Providers</text>
<polygon fill="#fb8072" stroke="transparent" points="1386.5,-10 1386.5,-30 1406.5,-30 1406.5,-10 1386.5,-10"/>
<text text-anchor="start" x="1410.2258" y="-15.4" font-family="sans-serif" font-size="14.00" fill="#000000"> &#160;Exports</text>
<g id="clust1" class="cluster">
<title>cluster_AppModule</title>
<polygon fill="none" stroke="#000000" stroke-dasharray="1,5" points="590,-146 590,-412 1543,-412 1543,-146 590,-146"/>
</g>
<g id="clust2" class="cluster">
<title>cluster_AppModule_declarations</title>
<polygon fill="none" stroke="#000000" points="1222,-222 1222,-274 1535,-274 1535,-222 1222,-222"/>
</g>
<g id="clust3" class="cluster">
<title>cluster_AppModule_AppComponent_providers</title>
<polygon fill="none" stroke="#000000" points="1295,-154 1295,-206 1447,-206 1447,-154 1295,-154"/>
</g>
<g id="clust5" class="cluster">
<title>cluster_AppModule_imports</title>
<polygon fill="none" stroke="#000000" points="1046,-154 1046,-274 1200,-274 1200,-154 1046,-154"/>
</g>
<g id="clust7" class="cluster">
<title>cluster_AppModule_bootstrap</title>
<polygon fill="none" stroke="#000000" points="1061,-352 1061,-404 1185,-404 1185,-352 1061,-352"/>
</g>
<g id="clust8" class="cluster">
<title>cluster_AppModule_providers</title>
<polygon fill="none" stroke="#000000" points="598,-222 598,-274 1024,-274 1024,-222 598,-222"/>
</g>
<g id="clust9" class="cluster">
<title>cluster_AuthenticatedModule</title>
<polygon fill="none" stroke="#000000" stroke-dasharray="1,5" points="1551,-146 1551,-214 2449,-214 2449,-146 1551,-146"/>
</g>
<g id="clust10" class="cluster">
<title>cluster_AuthenticatedModule_declarations</title>
<polygon fill="none" stroke="#000000" points="2027,-154 2027,-206 2441,-206 2441,-154 2027,-154"/>
</g>
<g id="clust15" class="cluster">
<title>cluster_AuthenticatedModule_exports</title>
<polygon fill="none" stroke="#000000" points="1879,-154 1879,-206 2019,-206 2019,-154 1879,-154"/>
</g>
<g id="clust17" class="cluster">
<title>cluster_AuthenticatedModule_providers</title>
<polygon fill="none" stroke="#000000" points="1559,-154 1559,-206 1871,-206 1871,-154 1559,-154"/>
</g>
<g id="clust18" class="cluster">
<title>cluster_ConfigModule</title>
<polygon fill="none" stroke="#000000" stroke-dasharray="1,5" points="8,-70 8,-138 2140,-138 2140,-70 8,-70"/>
</g>
<g id="clust19" class="cluster">
<title>cluster_ConfigModule_declarations</title>
<polygon fill="none" stroke="#000000" points="354,-78 354,-130 2132,-130 2132,-78 354,-78"/>
</g>
<g id="clust30" class="cluster">
<title>cluster_ConfigModule_imports</title>
<polygon fill="none" stroke="#000000" points="186,-78 186,-130 346,-130 346,-78 186,-78"/>
</g>
<g id="clust31" class="cluster">
<title>cluster_ConfigModule_exports</title>
<polygon fill="none" stroke="#000000" points="16,-78 16,-130 178,-130 178,-78 16,-78"/>
</g>
<!-- AppComponent -->
<g id="node1" class="node">
<title>AppComponent</title>
<polygon fill="#ffffb3" stroke="#000000" points="1526.9399,-266 1421.0601,-266 1421.0601,-230 1526.9399,-230 1526.9399,-266"/>
<text text-anchor="middle" x="1474" y="-243.8" font-family="Times,serif" font-size="14.00" fill="#000000">AppComponent</text>
</g>
<!-- AppModule -->
<g id="node3" class="node">
<title>AppModule</title>
<polygon fill="#8dd3c7" stroke="#000000" points="1164.6571,-331 1161.6571,-335 1140.6571,-335 1137.6571,-331 1081.3429,-331 1081.3429,-295 1164.6571,-295 1164.6571,-331"/>
<text text-anchor="middle" x="1123" y="-308.8" font-family="Times,serif" font-size="14.00" fill="#000000">AppModule</text>
</g>
<!-- AppComponent&#45;&gt;AppModule -->
<g id="edge1" class="edge">
<title>AppComponent&#45;&gt;AppModule</title>
<path fill="none" stroke="#000000" d="M1474,-266.2921C1474,-288.2057 1474,-322 1474,-322 1474,-322 1174.9902,-322 1174.9902,-322"/>
<polygon fill="#000000" stroke="#000000" points="1174.9902,-318.5001 1164.9902,-322 1174.9901,-325.5001 1174.9902,-318.5001"/>
</g>
<!-- UnauthenticatedComponent -->
<g id="node2" class="node">
<title>UnauthenticatedComponent</title>
<polygon fill="#ffffb3" stroke="#000000" points="1403.5744,-266 1230.4256,-266 1230.4256,-230 1403.5744,-230 1403.5744,-266"/>
<text text-anchor="middle" x="1317" y="-243.8" font-family="Times,serif" font-size="14.00" fill="#000000">UnauthenticatedComponent</text>
</g>
<!-- UnauthenticatedComponent&#45;&gt;AppModule -->
<g id="edge3" class="edge">
<title>UnauthenticatedComponent&#45;&gt;AppModule</title>
<path fill="none" stroke="#000000" d="M1317,-266.027C1317,-282.3976 1317,-304 1317,-304 1317,-304 1175.0951,-304 1175.0951,-304"/>
<polygon fill="#000000" stroke="#000000" points="1175.0951,-300.5001 1165.0951,-304 1175.0951,-307.5001 1175.0951,-300.5001"/>
</g>
<!-- AppComponent  -->
<g id="node7" class="node">
<title>AppComponent </title>
<polygon fill="#80b1d3" stroke="#000000" points="1177.439,-396 1068.561,-396 1068.561,-360 1177.439,-360 1177.439,-396"/>
<text text-anchor="middle" x="1123" y="-373.8" font-family="Times,serif" font-size="14.00" fill="#000000">AppComponent </text>
</g>
<!-- AppModule&#45;&gt;AppComponent  -->
<g id="edge6" class="edge">
<title>AppModule&#45;&gt;AppComponent </title>
<path fill="none" stroke="#000000" stroke-dasharray="1,5" d="M1123,-331.1061C1123,-331.1061 1123,-349.991 1123,-349.991"/>
<polygon fill="#000000" stroke="#000000" points="1119.5001,-349.9909 1123,-359.991 1126.5001,-349.991 1119.5001,-349.9909"/>
</g>
<!-- GoogleService -->
<g id="node4" class="node">
<title>GoogleService</title>
<ellipse fill="#fdb462" stroke="#000000" cx="1371" cy="-180" rx="68.3382" ry="18"/>
<text text-anchor="middle" x="1371" y="-175.8" font-family="Times,serif" font-size="14.00" fill="#000000">GoogleService</text>
</g>
<!-- GoogleService&#45;&gt;AppComponent -->
<g id="edge2" class="edge">
<title>GoogleService&#45;&gt;AppComponent</title>
<path fill="none" stroke="#000000" d="M1430.3498,-189.1708C1430.3498,-189.1708 1430.3498,-219.7926 1430.3498,-219.7926"/>
<polygon fill="#000000" stroke="#000000" points="1426.8499,-219.7926 1430.3498,-229.7926 1433.8499,-219.7926 1426.8499,-219.7926"/>
</g>
<!-- GoogleService&#45;&gt;AppModule -->
<g id="edge7" class="edge">
<title>GoogleService&#45;&gt;AppModule</title>
<path fill="none" stroke="#000000" d="M1412.4089,-194.4865C1412.4089,-228.9572 1412.4089,-313 1412.4089,-313 1412.4089,-313 1174.7734,-313 1174.7734,-313"/>
<polygon fill="#000000" stroke="#000000" points="1174.7735,-309.5001 1164.7734,-313 1174.7734,-316.5001 1174.7735,-309.5001"/>
</g>
<!-- ConfigModule -->
<g id="node5" class="node">
<title>ConfigModule</title>
<polygon fill="#8dd3c7" stroke="#000000" points="1162.4386,-198 1159.4386,-202 1138.4386,-202 1135.4386,-198 1063.5614,-198 1063.5614,-162 1162.4386,-162 1162.4386,-198"/>
<text text-anchor="middle" x="1113" y="-175.8" font-family="Times,serif" font-size="14.00" fill="#000000">ConfigModule</text>
</g>
<!-- ConfigModule&#45;&gt;AppModule -->
<g id="edge4" class="edge">
<title>ConfigModule&#45;&gt;AppModule</title>
<path fill="none" stroke="#000000" d="M1063.7265,-193C1048.2861,-193 1035.1975,-193 1035.1975,-193 1035.1975,-193 1035.1975,-304 1035.1975,-304 1035.1975,-304 1071.156,-304 1071.156,-304"/>
<polygon fill="#000000" stroke="#000000" points="1071.156,-307.5001 1081.156,-304 1071.1559,-300.5001 1071.156,-307.5001"/>
</g>
<!-- AuthenticatedModule -->
<g id="node6" class="node">
<title>AuthenticatedModule</title>
<polygon fill="#8dd3c7" stroke="#000000" points="1192.0772,-266 1189.0772,-270 1168.0772,-270 1165.0772,-266 1053.9228,-266 1053.9228,-230 1192.0772,-230 1192.0772,-266"/>
<text text-anchor="middle" x="1123" y="-243.8" font-family="Times,serif" font-size="14.00" fill="#000000">AuthenticatedModule</text>
</g>
<!-- ConfigModule&#45;&gt;AuthenticatedModule -->
<g id="edge13" class="edge">
<title>ConfigModule&#45;&gt;AuthenticatedModule</title>
<path fill="none" stroke="#000000" d="M1113,-198.2228C1113,-198.2228 1113,-219.7269 1113,-219.7269"/>
<polygon fill="#000000" stroke="#000000" points="1109.5001,-219.7269 1113,-229.7269 1116.5001,-219.727 1109.5001,-219.7269"/>
</g>
<!-- ConfigListComponent  -->
<g id="node27" class="node">
<title>ConfigListComponent </title>
<polygon fill="#fb8072" stroke="#000000" points="169.9995,-122 24.0005,-122 24.0005,-86 169.9995,-86 169.9995,-122"/>
<text text-anchor="middle" x="97" y="-99.8" font-family="Times,serif" font-size="14.00" fill="#000000">ConfigListComponent </text>
</g>
<!-- ConfigModule&#45;&gt;ConfigListComponent  -->
<g id="edge28" class="edge">
<title>ConfigModule&#45;&gt;ConfigListComponent </title>
<path fill="none" stroke="#000000" stroke-dasharray="5,2" d="M1063.6529,-188C860.1862,-188 97,-188 97,-188 97,-188 97,-132.2267 97,-132.2267"/>
<polygon fill="#000000" stroke="#000000" points="100.5001,-132.2267 97,-122.2267 93.5001,-132.2268 100.5001,-132.2267"/>
</g>
<!-- AuthenticatedModule&#45;&gt;AppModule -->
<g id="edge5" class="edge">
<title>AuthenticatedModule&#45;&gt;AppModule</title>
<path fill="none" stroke="#000000" d="M1123,-266.1061C1123,-266.1061 1123,-284.991 1123,-284.991"/>
<polygon fill="#000000" stroke="#000000" points="1119.5001,-284.9909 1123,-294.991 1126.5001,-284.991 1119.5001,-284.9909"/>
</g>
<!-- ConfigComponent  -->
<g id="node13" class="node">
<title>ConfigComponent </title>
<polygon fill="#fb8072" stroke="#000000" points="2010.7205,-198 1887.2795,-198 1887.2795,-162 2010.7205,-162 2010.7205,-198"/>
<text text-anchor="middle" x="1949" y="-175.8" font-family="Times,serif" font-size="14.00" fill="#000000">ConfigComponent </text>
</g>
<!-- AuthenticatedModule&#45;&gt;ConfigComponent  -->
<g id="edge14" class="edge">
<title>AuthenticatedModule&#45;&gt;ConfigComponent </title>
<path fill="none" stroke="#000000" stroke-dasharray="5,2" d="M1166.4788,-229.5782C1166.4788,-220.7209 1166.4788,-212 1166.4788,-212 1166.4788,-212 1949,-212 1949,-212 1949,-212 1949,-208.2434 1949,-208.2434"/>
<polygon fill="#000000" stroke="#000000" points="1952.5001,-208.2434 1949,-198.2434 1945.5001,-208.2434 1952.5001,-208.2434"/>
</g>
<!-- AuthGuardService -->
<g id="node8" class="node">
<title>AuthGuardService</title>
<ellipse fill="#fdb462" stroke="#000000" cx="933" cy="-248" rx="83.3674" ry="18"/>
<text text-anchor="middle" x="933" y="-243.8" font-family="Times,serif" font-size="14.00" fill="#000000">AuthGuardService</text>
</g>
<!-- AuthGuardService&#45;&gt;AppModule -->
<g id="edge8" class="edge">
<title>AuthGuardService&#45;&gt;AppModule</title>
<path fill="none" stroke="#000000" d="M933,-266.1061C933,-285.3391 933,-313 933,-313 933,-313 1071.3037,-313 1071.3037,-313"/>
<polygon fill="#000000" stroke="#000000" points="1071.3037,-316.5001 1081.3037,-313 1071.3037,-309.5001 1071.3037,-316.5001"/>
</g>
<!-- PreventAuthGuardService -->
<g id="node9" class="node">
<title>PreventAuthGuardService</title>
<ellipse fill="#fdb462" stroke="#000000" cx="719" cy="-248" rx="112.8616" ry="18"/>
<text text-anchor="middle" x="719" y="-243.8" font-family="Times,serif" font-size="14.00" fill="#000000">PreventAuthGuardService</text>
</g>
<!-- PreventAuthGuardService&#45;&gt;AppModule -->
<g id="edge9" class="edge">
<title>PreventAuthGuardService&#45;&gt;AppModule</title>
<path fill="none" stroke="#000000" d="M719,-266.2921C719,-288.2057 719,-322 719,-322 719,-322 1071.2866,-322 1071.2866,-322"/>
<polygon fill="#000000" stroke="#000000" points="1071.2866,-325.5001 1081.2866,-322 1071.2865,-318.5001 1071.2866,-325.5001"/>
</g>
<!-- HomeComponent -->
<g id="node10" class="node">
<title>HomeComponent</title>
<polygon fill="#ffffb3" stroke="#000000" points="2288.5451,-198 2173.4549,-198 2173.4549,-162 2288.5451,-162 2288.5451,-198"/>
<text text-anchor="middle" x="2231" y="-175.8" font-family="Times,serif" font-size="14.00" fill="#000000">HomeComponent</text>
</g>
<!-- HomeComponent&#45;&gt;AuthenticatedModule -->
<g id="edge10" class="edge">
<title>HomeComponent&#45;&gt;AuthenticatedModule</title>
<path fill="none" stroke="#000000" d="M2231,-198.1025C2231,-209.0859 2231,-221 2231,-221 2231,-221 1183.5187,-221 1183.5187,-221 1183.5187,-221 1183.5187,-221.8841 1183.5187,-221.8841"/>
<polygon fill="#000000" stroke="#000000" points="1180.0188,-219.8408 1183.5187,-229.8408 1187.0188,-219.8409 1180.0188,-219.8408"/>
</g>
<!-- ConfigComponent -->
<g id="node11" class="node">
<title>ConfigComponent</title>
<polygon fill="#ffffb3" stroke="#000000" points="2155.2204,-198 2034.7796,-198 2034.7796,-162 2155.2204,-162 2155.2204,-198"/>
<text text-anchor="middle" x="2095" y="-175.8" font-family="Times,serif" font-size="14.00" fill="#000000">ConfigComponent</text>
</g>
<!-- ConfigComponent&#45;&gt;AuthenticatedModule -->
<g id="edge11" class="edge">
<title>ConfigComponent&#45;&gt;AuthenticatedModule</title>
<path fill="none" stroke="#000000" d="M2095,-198.0664C2095,-207.4587 2095,-217 2095,-217 2095,-217 1179.2587,-217 1179.2587,-217 1179.2587,-217 1179.2587,-219.9672 1179.2587,-219.9672"/>
<polygon fill="#000000" stroke="#000000" points="1175.7588,-219.9671 1179.2587,-229.9672 1182.7588,-219.9672 1175.7588,-219.9671"/>
</g>
<!-- SettingsComponent -->
<g id="node12" class="node">
<title>SettingsComponent</title>
<polygon fill="#ffffb3" stroke="#000000" points="2433.4468,-198 2306.5532,-198 2306.5532,-162 2433.4468,-162 2433.4468,-198"/>
<text text-anchor="middle" x="2370" y="-175.8" font-family="Times,serif" font-size="14.00" fill="#000000">SettingsComponent</text>
</g>
<!-- SettingsComponent&#45;&gt;AuthenticatedModule -->
<g id="edge12" class="edge">
<title>SettingsComponent&#45;&gt;AuthenticatedModule</title>
<path fill="none" stroke="#000000" d="M2370,-198.1804C2370,-211.0382 2370,-226 2370,-226 2370,-226 1187.7786,-226 1187.7786,-226 1187.7786,-226 1187.7786,-226.3832 1187.7786,-226.3832"/>
<polygon fill="#000000" stroke="#000000" points="1184.2789,-219.832 1187.7786,-229.8321 1191.2789,-219.8322 1184.2789,-219.832"/>
</g>
<!-- DatabaseService -->
<g id="node14" class="node">
<title>DatabaseService</title>
<ellipse fill="#fdb462" stroke="#000000" cx="1788" cy="-180" rx="75.2559" ry="18"/>
<text text-anchor="middle" x="1788" y="-175.8" font-family="Times,serif" font-size="14.00" fill="#000000">DatabaseService</text>
</g>
<!-- DatabaseService&#45;&gt;AuthenticatedModule -->
<g id="edge15" class="edge">
<title>DatabaseService&#45;&gt;AuthenticatedModule</title>
<path fill="none" stroke="#000000" d="M1788,-198.207C1788,-203.5549 1788,-208 1788,-208 1788,-208 1174.9987,-208 1174.9987,-208 1174.9987,-208 1174.9987,-219.8726 1174.9987,-219.8726"/>
<polygon fill="#000000" stroke="#000000" points="1171.4988,-219.8725 1174.9987,-229.8726 1178.4988,-219.8726 1171.4988,-219.8725"/>
</g>
<!-- SorterService -->
<g id="node15" class="node">
<title>SorterService</title>
<ellipse fill="#fdb462" stroke="#000000" cx="1631" cy="-180" rx="63.6774" ry="18"/>
<text text-anchor="middle" x="1631" y="-175.8" font-family="Times,serif" font-size="14.00" fill="#000000">SorterService</text>
</g>
<!-- SorterService&#45;&gt;AuthenticatedModule -->
<g id="edge16" class="edge">
<title>SorterService&#45;&gt;AuthenticatedModule</title>
<path fill="none" stroke="#000000" d="M1631,-198.1223C1631,-200.9729 1631,-203 1631,-203 1631,-203 1170.7387,-203 1170.7387,-203 1170.7387,-203 1170.7387,-219.9561 1170.7387,-219.9561"/>
<polygon fill="#000000" stroke="#000000" points="1167.2388,-219.956 1170.7387,-229.9561 1174.2388,-219.9561 1167.2388,-219.956"/>
</g>
<!-- ConfigListComponent -->
<g id="node16" class="node">
<title>ConfigListComponent</title>
<polygon fill="#ffffb3" stroke="#000000" points="1451.9986,-122 1310.0014,-122 1310.0014,-86 1451.9986,-86 1451.9986,-122"/>
<text text-anchor="middle" x="1381" y="-99.8" font-family="Times,serif" font-size="14.00" fill="#000000">ConfigListComponent</text>
</g>
<!-- ConfigListComponent&#45;&gt;ConfigModule -->
<g id="edge17" class="edge">
<title>ConfigListComponent&#45;&gt;ConfigModule</title>
<path fill="none" stroke="#000000" d="M1309.9744,-104C1302.3272,-104 1297.2554,-104 1297.2554,-104 1297.2554,-104 1297.2554,-180 1297.2554,-180 1297.2554,-180 1172.3771,-180 1172.3771,-180"/>
<polygon fill="#000000" stroke="#000000" points="1172.3771,-176.5001 1162.3771,-180 1172.377,-183.5001 1172.3771,-176.5001"/>
</g>
<!-- NewConfigPageComponent -->
<g id="node17" class="node">
<title>NewConfigPageComponent</title>
<polygon fill="#ffffb3" stroke="#000000" points="1291.8599,-122 1118.1401,-122 1118.1401,-86 1291.8599,-86 1291.8599,-122"/>
<text text-anchor="middle" x="1205" y="-99.8" font-family="Times,serif" font-size="14.00" fill="#000000">NewConfigPageComponent</text>
</g>
<!-- NewConfigPageComponent&#45;&gt;ConfigModule -->
<g id="edge18" class="edge">
<title>NewConfigPageComponent&#45;&gt;ConfigModule</title>
<path fill="none" stroke="#000000" d="M1125.4282,-122.0109C1125.4282,-122.0109 1125.4282,-151.855 1125.4282,-151.855"/>
<polygon fill="#000000" stroke="#000000" points="1121.9283,-151.8549 1125.4282,-161.855 1128.9283,-151.855 1121.9283,-151.8549"/>
</g>
<!-- ConfigModalComponent -->
<g id="node18" class="node">
<title>ConfigModalComponent</title>
<polygon fill="#ffffb3" stroke="#000000" points="1100.2702,-122 943.7298,-122 943.7298,-86 1100.2702,-86 1100.2702,-122"/>
<text text-anchor="middle" x="1022" y="-99.8" font-family="Times,serif" font-size="14.00" fill="#000000">ConfigModalComponent</text>
</g>
<!-- ConfigModalComponent&#45;&gt;ConfigModule -->
<g id="edge19" class="edge">
<title>ConfigModalComponent&#45;&gt;ConfigModule</title>
<path fill="none" stroke="#000000" d="M1082.0831,-122.0109C1082.0831,-122.0109 1082.0831,-151.855 1082.0831,-151.855"/>
<polygon fill="#000000" stroke="#000000" points="1078.5832,-151.8549 1082.0831,-161.855 1085.5832,-151.855 1078.5832,-151.8549"/>
</g>
<!-- NewRuleStepperComponent -->
<g id="node19" class="node">
<title>NewRuleStepperComponent</title>
<polygon fill="#ffffb3" stroke="#000000" points="925.465,-122 748.535,-122 748.535,-86 925.465,-86 925.465,-122"/>
<text text-anchor="middle" x="837" y="-99.8" font-family="Times,serif" font-size="14.00" fill="#000000">NewRuleStepperComponent</text>
</g>
<!-- NewRuleStepperComponent&#45;&gt;ConfigModule -->
<g id="edge20" class="edge">
<title>NewRuleStepperComponent&#45;&gt;ConfigModule</title>
<path fill="none" stroke="#000000" d="M887.5244,-122.1686C887.5244,-141.0898 887.5244,-168 887.5244,-168 887.5244,-168 1053.5184,-168 1053.5184,-168"/>
<polygon fill="#000000" stroke="#000000" points="1053.5185,-171.5001 1063.5184,-168 1053.5184,-164.5001 1053.5185,-171.5001"/>
</g>
<!-- EditConfigModalComponent -->
<g id="node20" class="node">
<title>EditConfigModalComponent</title>
<polygon fill="#ffffb3" stroke="#000000" points="730.1038,-122 549.8962,-122 549.8962,-86 730.1038,-86 730.1038,-122"/>
<text text-anchor="middle" x="640" y="-99.8" font-family="Times,serif" font-size="14.00" fill="#000000">EditConfigModalComponent</text>
</g>
<!-- EditConfigModalComponent&#45;&gt;ConfigModule -->
<g id="edge21" class="edge">
<title>EditConfigModalComponent&#45;&gt;ConfigModule</title>
<path fill="none" stroke="#000000" d="M668.0606,-122.1289C668.0606,-142.5724 668.0606,-173 668.0606,-173 668.0606,-173 1053.6837,-173 1053.6837,-173"/>
<polygon fill="#000000" stroke="#000000" points="1053.6837,-176.5001 1063.6837,-173 1053.6836,-169.5001 1053.6837,-176.5001"/>
</g>
<!-- EditConfigPageComponent -->
<g id="node21" class="node">
<title>EditConfigPageComponent</title>
<polygon fill="#ffffb3" stroke="#000000" points="532.266,-122 361.734,-122 361.734,-86 532.266,-86 532.266,-122"/>
<text text-anchor="middle" x="447" y="-99.8" font-family="Times,serif" font-size="14.00" fill="#000000">EditConfigPageComponent</text>
</g>
<!-- EditConfigPageComponent&#45;&gt;ConfigModule -->
<g id="edge22" class="edge">
<title>EditConfigPageComponent&#45;&gt;ConfigModule</title>
<path fill="none" stroke="#000000" d="M447,-122.2921C447,-144.2057 447,-178 447,-178 447,-178 1053.757,-178 1053.757,-178"/>
<polygon fill="#000000" stroke="#000000" points="1053.757,-181.5001 1063.757,-178 1053.7569,-174.5001 1053.757,-181.5001"/>
</g>
<!-- FolderCreationComponent -->
<g id="node22" class="node">
<title>FolderCreationComponent</title>
<polygon fill="#ffffb3" stroke="#000000" points="2124.0884,-122 1957.9116,-122 1957.9116,-86 2124.0884,-86 2124.0884,-122"/>
<text text-anchor="middle" x="2041" y="-99.8" font-family="Times,serif" font-size="14.00" fill="#000000">FolderCreationComponent</text>
</g>
<!-- FolderCreationComponent&#45;&gt;ConfigModule -->
<g id="edge23" class="edge">
<title>FolderCreationComponent&#45;&gt;ConfigModule</title>
<path fill="none" stroke="#000000" d="M1984.408,-122.0511C1984.408,-136.373 1984.408,-154 1984.408,-154 1984.408,-154 1154.8607,-154 1154.8607,-154 1154.8607,-154 1154.8607,-154.7942 1154.8607,-154.7942"/>
<polygon fill="#000000" stroke="#000000" points="1151.3608,-151.9421 1154.8607,-161.9421 1158.3608,-151.9422 1151.3608,-151.9421"/>
</g>
<!-- PresetConfigComponent -->
<g id="node23" class="node">
<title>PresetConfigComponent</title>
<polygon fill="#ffffb3" stroke="#000000" points="1940.4284,-122 1785.5716,-122 1785.5716,-86 1940.4284,-86 1940.4284,-122"/>
<text text-anchor="middle" x="1863" y="-99.8" font-family="Times,serif" font-size="14.00" fill="#000000">PresetConfigComponent</text>
</g>
<!-- PresetConfigComponent&#45;&gt;ConfigModule -->
<g id="edge24" class="edge">
<title>PresetConfigComponent&#45;&gt;ConfigModule</title>
<path fill="none" stroke="#000000" d="M1824.582,-122.0555C1824.582,-133.439 1824.582,-146 1824.582,-146 1824.582,-146 1147.5026,-146 1147.5026,-146 1147.5026,-146 1147.5026,-151.8056 1147.5026,-151.8056"/>
<polygon fill="#000000" stroke="#000000" points="1144.0027,-151.8055 1147.5026,-161.8056 1151.0027,-151.8056 1144.0027,-151.8055"/>
</g>
<!-- PresetConfigPageComponent -->
<g id="node24" class="node">
<title>PresetConfigPageComponent</title>
<polygon fill="#ffffb3" stroke="#000000" points="1767.64,-122 1586.36,-122 1586.36,-86 1767.64,-86 1767.64,-122"/>
<text text-anchor="middle" x="1677" y="-99.8" font-family="Times,serif" font-size="14.00" fill="#000000">PresetConfigPageComponent</text>
</g>
<!-- PresetConfigPageComponent&#45;&gt;ConfigModule -->
<g id="edge25" class="edge">
<title>PresetConfigPageComponent&#45;&gt;ConfigModule</title>
<path fill="none" stroke="#000000" d="M1640.3844,-122.1944C1640.3844,-130.2782 1640.3844,-138 1640.3844,-138 1640.3844,-138 1140.1445,-138 1140.1445,-138 1140.1445,-138 1140.1445,-151.9445 1140.1445,-151.9445"/>
<polygon fill="#000000" stroke="#000000" points="1136.6445,-151.9444 1140.1445,-161.9445 1143.6445,-151.9445 1136.6445,-151.9444"/>
</g>
<!-- UnNamedPipe -->
<g id="node25" class="node">
<title>UnNamedPipe</title>
<polygon fill="#ffffb3" stroke="#000000" points="1568.4217,-122 1469.5783,-122 1469.5783,-86 1568.4217,-86 1568.4217,-122"/>
<text text-anchor="middle" x="1519" y="-99.8" font-family="Times,serif" font-size="14.00" fill="#000000">UnNamedPipe</text>
</g>
<!-- UnNamedPipe&#45;&gt;ConfigModule -->
<g id="edge26" class="edge">
<title>UnNamedPipe&#45;&gt;ConfigModule</title>
<path fill="none" stroke="#000000" d="M1498.2546,-122.0579C1498.2546,-126.4945 1498.2546,-130 1498.2546,-130 1498.2546,-130 1132.7863,-130 1132.7863,-130 1132.7863,-130 1132.7863,-151.9489 1132.7863,-151.9489"/>
<polygon fill="#000000" stroke="#000000" points="1129.2864,-151.9488 1132.7863,-161.9489 1136.2864,-151.9489 1129.2864,-151.9488"/>
</g>
<!-- ConfigRoutingModule -->
<g id="node26" class="node">
<title>ConfigRoutingModule</title>
<polygon fill="#8dd3c7" stroke="#000000" points="337.5561,-122 334.5561,-126 313.5561,-126 310.5561,-122 194.4439,-122 194.4439,-86 337.5561,-86 337.5561,-122"/>
<text text-anchor="middle" x="266" y="-99.8" font-family="Times,serif" font-size="14.00" fill="#000000">ConfigRoutingModule</text>
</g>
<!-- ConfigRoutingModule&#45;&gt;ConfigModule -->
<g id="edge27" class="edge">
<title>ConfigRoutingModule&#45;&gt;ConfigModule</title>
<path fill="none" stroke="#000000" d="M266,-122.3228C266,-145.6602 266,-183 266,-183 266,-183 1053.49,-183 1053.49,-183"/>
<polygon fill="#000000" stroke="#000000" points="1053.49,-186.5001 1063.49,-183 1053.4899,-179.5001 1053.49,-186.5001"/>
</g>
</g>
</svg>
