<?xml version="1.0" encoding="UTF-8" standalone="no"?>
<!DOCTYPE svg PUBLIC "-//W3C//DTD SVG 1.1//EN"
 "http://www.w3.org/Graphics/SVG/1.1/DTD/svg11.dtd">
<!-- Generated by graphviz version 2.40.1 (20161225.0304)
 -->
<!-- Title: dependencies Pages: 1 -->
<svg width="1380pt" height="284pt"
 viewBox="0.00 0.00 1380.00 284.00" xmlns="http://www.w3.org/2000/svg" xmlns:xlink="http://www.w3.org/1999/xlink">
<g id="graph0" class="graph" transform="scale(1 1) rotate(0) translate(4 280)">
<title>dependencies</title>
<polygon fill="#ffffff" stroke="transparent" points="-4,4 -4,-280 1376,-280 1376,4 -4,4"/>
<text text-anchor="start" x="665.0091" y="-42.4" font-family="sans-serif" font-weight="bold" font-size="14.00" fill="#000000">Legend</text>
<polygon fill="#ffffb3" stroke="transparent" points="452,-10 452,-30 472,-30 472,-10 452,-10"/>
<text text-anchor="start" x="475.629" y="-15.4" font-family="sans-serif" font-size="14.00" fill="#000000"> &#160;Declarations</text>
<polygon fill="#8dd3c7" stroke="transparent" points="565,-10 565,-30 585,-30 585,-10 565,-10"/>
<text text-anchor="start" x="588.7251" y="-15.4" font-family="sans-serif" font-size="14.00" fill="#000000"> &#160;Module</text>
<polygon fill="#80b1d3" stroke="transparent" points="651,-10 651,-30 671,-30 671,-10 651,-10"/>
<text text-anchor="start" x="674.7812" y="-15.4" font-family="sans-serif" font-size="14.00" fill="#000000"> &#160;Bootstrap</text>
<polygon fill="#fdb462" stroke="transparent" points="748,-10 748,-30 768,-30 768,-10 748,-10"/>
<text text-anchor="start" x="771.6732" y="-15.4" font-family="sans-serif" font-size="14.00" fill="#000000"> &#160;Providers</text>
<polygon fill="#fb8072" stroke="transparent" points="844,-10 844,-30 864,-30 864,-10 844,-10"/>
<text text-anchor="start" x="867.7258" y="-15.4" font-family="sans-serif" font-size="14.00" fill="#000000"> &#160;Exports</text>
<g id="clust1" class="cluster">
<title>cluster_AppModule</title>
<polygon fill="none" stroke="#000000" stroke-dasharray="1,5" points="8,-70 8,-268 926,-268 926,-70 8,-70"/>
</g>
<g id="clust2" class="cluster">
<title>cluster_AppModule_declarations</title>
<polygon fill="none" stroke="#000000" points="605,-78 605,-130 918,-130 918,-78 605,-78"/>
</g>
<g id="clust7" class="cluster">
<title>cluster_AppModule_bootstrap</title>
<polygon fill="none" stroke="#000000" points="459,-208 459,-260 583,-260 583,-208 459,-208"/>
</g>
<g id="clust8" class="cluster">
<title>cluster_AppModule_providers</title>
<polygon fill="none" stroke="#000000" points="16,-78 16,-130 597,-130 597,-78 16,-78"/>
</g>
<g id="clust9" class="cluster">
<title>cluster_AuthenticatedModule</title>
<polygon fill="none" stroke="#000000" stroke-dasharray="1,5" points="934,-70 934,-195 1364,-195 1364,-70 934,-70"/>
</g>
<g id="clust10" class="cluster">
<title>cluster_AuthenticatedModule_declarations</title>
<polygon fill="none" stroke="#000000" points="942,-78 942,-130 1356,-130 1356,-78 942,-78"/>
</g>
<!-- AppComponent -->
<g id="node1" class="node">
<title>AppComponent</title>
<polygon fill="#ffffb3" stroke="#000000" points="909.9399,-122 804.0601,-122 804.0601,-86 909.9399,-86 909.9399,-122"/>
<text text-anchor="middle" x="857" y="-99.8" font-family="Times,serif" font-size="14.00" fill="#000000">AppComponent</text>
</g>
<!-- AppModule -->
<g id="node3" class="node">
<title>AppModule</title>
<polygon fill="#8dd3c7" stroke="#000000" points="562.6571,-187 559.6571,-191 538.6571,-191 535.6571,-187 479.3429,-187 479.3429,-151 562.6571,-151 562.6571,-187"/>
<text text-anchor="middle" x="521" y="-164.8" font-family="Times,serif" font-size="14.00" fill="#000000">AppModule</text>
</g>
<!-- AppComponent&#45;&gt;AppModule -->
<g id="edge1" class="edge">
<title>AppComponent&#45;&gt;AppModule</title>
<path fill="none" stroke="#000000" d="M857,-122.2843C857,-143.3211 857,-175 857,-175 857,-175 572.8753,-175 572.8753,-175"/>
<polygon fill="#000000" stroke="#000000" points="572.8753,-171.5001 562.8753,-175 572.8752,-178.5001 572.8753,-171.5001"/>
</g>
<!-- UnauthenticatedComponent -->
<g id="node2" class="node">
<title>UnauthenticatedComponent</title>
<polygon fill="#ffffb3" stroke="#000000" points="786.5744,-122 613.4256,-122 613.4256,-86 786.5744,-86 786.5744,-122"/>
<text text-anchor="middle" x="700" y="-99.8" font-family="Times,serif" font-size="14.00" fill="#000000">UnauthenticatedComponent</text>
</g>
<!-- UnauthenticatedComponent&#45;&gt;AppModule -->
<g id="edge2" class="edge">
<title>UnauthenticatedComponent&#45;&gt;AppModule</title>
<path fill="none" stroke="#000000" d="M700,-122.0225C700,-139.3734 700,-163 700,-163 700,-163 572.9675,-163 572.9675,-163"/>
<polygon fill="#000000" stroke="#000000" points="572.9676,-159.5001 562.9675,-163 572.9675,-166.5001 572.9676,-159.5001"/>
</g>
<!-- AppComponent  -->
<g id="node4" class="node">
<title>AppComponent </title>
<polygon fill="#80b1d3" stroke="#000000" points="575.439,-252 466.561,-252 466.561,-216 575.439,-216 575.439,-252"/>
<text text-anchor="middle" x="521" y="-229.8" font-family="Times,serif" font-size="14.00" fill="#000000">AppComponent </text>
</g>
<!-- AppModule&#45;&gt;AppComponent  -->
<g id="edge3" class="edge">
<title>AppModule&#45;&gt;AppComponent </title>
<path fill="none" stroke="#000000" stroke-dasharray="1,5" d="M521,-187.1061C521,-187.1061 521,-205.991 521,-205.991"/>
<polygon fill="#000000" stroke="#000000" points="517.5001,-205.9909 521,-215.991 524.5001,-205.991 517.5001,-205.9909"/>
</g>
<!-- GoogleService -->
<g id="node5" class="node">
<title>GoogleService</title>
<ellipse fill="#fdb462" stroke="#000000" cx="521" cy="-104" rx="68.3382" ry="18"/>
<text text-anchor="middle" x="521" y="-99.8" font-family="Times,serif" font-size="14.00" fill="#000000">GoogleService</text>
</g>
<!-- GoogleService&#45;&gt;AppModule -->
<g id="edge4" class="edge">
<title>GoogleService&#45;&gt;AppModule</title>
<path fill="none" stroke="#000000" d="M521,-122.1061C521,-122.1061 521,-140.991 521,-140.991"/>
<polygon fill="#000000" stroke="#000000" points="517.5001,-140.9909 521,-150.991 524.5001,-140.991 517.5001,-140.9909"/>
</g>
<!-- AuthGuardService -->
<g id="node6" class="node">
<title>AuthGuardService</title>
<ellipse fill="#fdb462" stroke="#000000" cx="351" cy="-104" rx="83.3674" ry="18"/>
<text text-anchor="middle" x="351" y="-99.8" font-family="Times,serif" font-size="14.00" fill="#000000">AuthGuardService</text>
</g>
<!-- AuthGuardService&#45;&gt;AppModule -->
<g id="edge5" class="edge">
<title>AuthGuardService&#45;&gt;AppModule</title>
<path fill="none" stroke="#000000" d="M351,-122.0225C351,-139.3734 351,-163 351,-163 351,-163 468.9775,-163 468.9775,-163"/>
<polygon fill="#000000" stroke="#000000" points="468.9776,-166.5001 478.9775,-163 468.9775,-159.5001 468.9776,-166.5001"/>
</g>
<!-- PreventAuthGuardService -->
<g id="node7" class="node">
<title>PreventAuthGuardService</title>
<ellipse fill="#fdb462" stroke="#000000" cx="137" cy="-104" rx="112.8616" ry="18"/>
<text text-anchor="middle" x="137" y="-99.8" font-family="Times,serif" font-size="14.00" fill="#000000">PreventAuthGuardService</text>
</g>
<!-- PreventAuthGuardService&#45;&gt;AppModule -->
<g id="edge6" class="edge">
<title>PreventAuthGuardService&#45;&gt;AppModule</title>
<path fill="none" stroke="#000000" d="M137,-122.2843C137,-143.3211 137,-175 137,-175 137,-175 469.1743,-175 469.1743,-175"/>
<polygon fill="#000000" stroke="#000000" points="469.1743,-178.5001 479.1743,-175 469.1742,-171.5001 469.1743,-178.5001"/>
</g>
<!-- HomeComponent -->
<g id="node8" class="node">
<title>HomeComponent</title>
<polygon fill="#ffffb3" stroke="#000000" points="1347.5451,-122 1232.4549,-122 1232.4549,-86 1347.5451,-86 1347.5451,-122"/>
<text text-anchor="middle" x="1290" y="-99.8" font-family="Times,serif" font-size="14.00" fill="#000000">HomeComponent</text>
</g>
<!-- AuthenticatedModule -->
<g id="node11" class="node">
<title>AuthenticatedModule</title>
<polygon fill="#8dd3c7" stroke="#000000" points="1223.0772,-187 1220.0772,-191 1199.0772,-191 1196.0772,-187 1084.9228,-187 1084.9228,-151 1223.0772,-151 1223.0772,-187"/>
<text text-anchor="middle" x="1154" y="-164.8" font-family="Times,serif" font-size="14.00" fill="#000000">AuthenticatedModule</text>
</g>
<!-- HomeComponent&#45;&gt;AuthenticatedModule -->
<g id="edge7" class="edge">
<title>HomeComponent&#45;&gt;AuthenticatedModule</title>
<path fill="none" stroke="#000000" d="M1232.3459,-104C1224.2242,-104 1218.5744,-104 1218.5744,-104 1218.5744,-104 1218.5744,-140.8939 1218.5744,-140.8939"/>
<polygon fill="#000000" stroke="#000000" points="1215.0744,-140.8938 1218.5744,-150.8939 1222.0744,-140.8939 1215.0744,-140.8938"/>
</g>
<!-- ConfigComponent -->
<g id="node9" class="node">
<title>ConfigComponent</title>
<polygon fill="#ffffb3" stroke="#000000" points="1214.2204,-122 1093.7796,-122 1093.7796,-86 1214.2204,-86 1214.2204,-122"/>
<text text-anchor="middle" x="1154" y="-99.8" font-family="Times,serif" font-size="14.00" fill="#000000">ConfigComponent</text>
</g>
<!-- ConfigComponent&#45;&gt;AuthenticatedModule -->
<g id="edge8" class="edge">
<title>ConfigComponent&#45;&gt;AuthenticatedModule</title>
<path fill="none" stroke="#000000" d="M1154,-122.1061C1154,-122.1061 1154,-140.991 1154,-140.991"/>
<polygon fill="#000000" stroke="#000000" points="1150.5001,-140.9909 1154,-150.991 1157.5001,-140.991 1150.5001,-140.9909"/>
</g>
<!-- SettingsComponent -->
<g id="node10" class="node">
<title>SettingsComponent</title>
<polygon fill="#ffffb3" stroke="#000000" points="1076.4468,-122 949.5532,-122 949.5532,-86 1076.4468,-86 1076.4468,-122"/>
<text text-anchor="middle" x="1013" y="-99.8" font-family="Times,serif" font-size="14.00" fill="#000000">SettingsComponent</text>
</g>
<!-- SettingsComponent&#45;&gt;AuthenticatedModule -->
<g id="edge9" class="edge">
<title>SettingsComponent&#45;&gt;AuthenticatedModule</title>
<path fill="none" stroke="#000000" d="M1076.4611,-104C1084.1907,-104 1089.4256,-104 1089.4256,-104 1089.4256,-104 1089.4256,-140.8939 1089.4256,-140.8939"/>
<polygon fill="#000000" stroke="#000000" points="1085.9257,-140.8938 1089.4256,-150.8939 1092.9257,-140.8939 1085.9257,-140.8938"/>
</g>
</g>
</svg>
