<?xml version="1.0" encoding="UTF-8" standalone="no"?>
<!DOCTYPE svg PUBLIC "-//W3C//DTD SVG 1.1//EN"
 "http://www.w3.org/Graphics/SVG/1.1/DTD/svg11.dtd">
<!-- Generated by graphviz version 2.40.1 (20161225.0304)
 -->
<!-- Title: dependencies Pages: 1 -->
<svg width="2155pt" height="428pt"
 viewBox="0.00 0.00 2155.00 428.00" xmlns="http://www.w3.org/2000/svg" xmlns:xlink="http://www.w3.org/1999/xlink">
<g id="graph0" class="graph" transform="scale(1 1) rotate(0) translate(4 424)">
<title>dependencies</title>
<polygon fill="#ffffff" stroke="transparent" points="-4,4 -4,-424 2151,-424 2151,4 -4,4"/>
<text text-anchor="start" x="1052.5091" y="-42.4" font-family="sans-serif" font-weight="bold" font-size="14.00" fill="#000000">Legend</text>
<polygon fill="#ffffb3" stroke="transparent" points="839.5,-10 839.5,-30 859.5,-30 859.5,-10 839.5,-10"/>
<text text-anchor="start" x="863.129" y="-15.4" font-family="sans-serif" font-size="14.00" fill="#000000"> &#160;Declarations</text>
<polygon fill="#8dd3c7" stroke="transparent" points="952.5,-10 952.5,-30 972.5,-30 972.5,-10 952.5,-10"/>
<text text-anchor="start" x="976.2251" y="-15.4" font-family="sans-serif" font-size="14.00" fill="#000000"> &#160;Module</text>
<polygon fill="#80b1d3" stroke="transparent" points="1038.5,-10 1038.5,-30 1058.5,-30 1058.5,-10 1038.5,-10"/>
<text text-anchor="start" x="1062.2812" y="-15.4" font-family="sans-serif" font-size="14.00" fill="#000000"> &#160;Bootstrap</text>
<polygon fill="#fdb462" stroke="transparent" points="1135.5,-10 1135.5,-30 1155.5,-30 1155.5,-10 1135.5,-10"/>
<text text-anchor="start" x="1159.1732" y="-15.4" font-family="sans-serif" font-size="14.00" fill="#000000"> &#160;Providers</text>
<polygon fill="#fb8072" stroke="transparent" points="1231.5,-10 1231.5,-30 1251.5,-30 1251.5,-10 1231.5,-10"/>
<text text-anchor="start" x="1255.2258" y="-15.4" font-family="sans-serif" font-size="14.00" fill="#000000"> &#160;Exports</text>
<g id="clust1" class="cluster">
<title>cluster_AppModule</title>
<polygon fill="none" stroke="#000000" stroke-dasharray="1,5" points="115,-146 115,-412 1378,-412 1378,-146 115,-146"/>
</g>
<g id="clust2" class="cluster">
<title>cluster_AppModule_declarations</title>
<polygon fill="none" stroke="#000000" points="1057,-222 1057,-274 1370,-274 1370,-222 1057,-222"/>
</g>
<g id="clust5" class="cluster">
<title>cluster_AppModule_imports</title>
<polygon fill="none" stroke="#000000" points="895,-154 895,-274 1049,-274 1049,-154 895,-154"/>
</g>
<g id="clust7" class="cluster">
<title>cluster_AppModule_bootstrap</title>
<polygon fill="none" stroke="#000000" points="771,-352 771,-404 895,-404 895,-352 771,-352"/>
</g>
<g id="clust8" class="cluster">
<title>cluster_AppModule_providers</title>
<polygon fill="none" stroke="#000000" points="123,-222 123,-274 873,-274 873,-222 123,-222"/>
</g>
<g id="clust9" class="cluster">
<title>cluster_AuthenticatedModule</title>
<polygon fill="none" stroke="#000000" stroke-dasharray="1,5" points="1386,-146 1386,-214 2116,-214 2116,-146 1386,-146"/>
</g>
<g id="clust10" class="cluster">
<title>cluster_AuthenticatedModule_declarations</title>
<polygon fill="none" stroke="#000000" points="1694,-154 1694,-206 2108,-206 2108,-154 1694,-154"/>
</g>
<g id="clust15" class="cluster">
<title>cluster_AuthenticatedModule_exports</title>
<polygon fill="none" stroke="#000000" points="1546,-154 1546,-206 1686,-206 1686,-154 1546,-154"/>
</g>
<g id="clust17" class="cluster">
<title>cluster_AuthenticatedModule_providers</title>
<polygon fill="none" stroke="#000000" points="1394,-154 1394,-206 1538,-206 1538,-154 1394,-154"/>
</g>
<g id="clust18" class="cluster">
<title>cluster_ConfigModule</title>
<polygon fill="none" stroke="#000000" stroke-dasharray="1,5" points="8,-70 8,-138 2139,-138 2139,-70 8,-70"/>
</g>
<g id="clust19" class="cluster">
<title>cluster_ConfigModule_declarations</title>
<polygon fill="none" stroke="#000000" points="354,-78 354,-130 2131,-130 2131,-78 354,-78"/>
</g>
<g id="clust30" class="cluster">
<title>cluster_ConfigModule_imports</title>
<polygon fill="none" stroke="#000000" points="186,-78 186,-130 346,-130 346,-78 186,-78"/>
</g>
<g id="clust31" class="cluster">
<title>cluster_ConfigModule_exports</title>
<polygon fill="none" stroke="#000000" points="16,-78 16,-130 178,-130 178,-78 16,-78"/>
</g>
<!-- AppComponent -->
<g id="node1" class="node">
<title>AppComponent</title>
<polygon fill="#ffffb3" stroke="#000000" points="1361.9399,-266 1256.0601,-266 1256.0601,-230 1361.9399,-230 1361.9399,-266"/>
<text text-anchor="middle" x="1309" y="-243.8" font-family="Times,serif" font-size="14.00" fill="#000000">AppComponent</text>
</g>
<!-- AppModule -->
<g id="node3" class="node">
<title>AppModule</title>
<polygon fill="#8dd3c7" stroke="#000000" points="874.6571,-331 871.6571,-335 850.6571,-335 847.6571,-331 791.3429,-331 791.3429,-295 874.6571,-295 874.6571,-331"/>
<text text-anchor="middle" x="833" y="-308.8" font-family="Times,serif" font-size="14.00" fill="#000000">AppModule</text>
</g>
<!-- AppComponent&#45;&gt;AppModule -->
<g id="edge1" class="edge">
<title>AppComponent&#45;&gt;AppModule</title>
<path fill="none" stroke="#000000" d="M1309,-266.2843C1309,-287.3211 1309,-319 1309,-319 1309,-319 884.8246,-319 884.8246,-319"/>
<polygon fill="#000000" stroke="#000000" points="884.8247,-315.5001 874.8246,-319 884.8246,-322.5001 884.8247,-315.5001"/>
</g>
<!-- UnauthenticatedComponent -->
<g id="node2" class="node">
<title>UnauthenticatedComponent</title>
<polygon fill="#ffffb3" stroke="#000000" points="1238.5744,-266 1065.4256,-266 1065.4256,-230 1238.5744,-230 1238.5744,-266"/>
<text text-anchor="middle" x="1152" y="-243.8" font-family="Times,serif" font-size="14.00" fill="#000000">UnauthenticatedComponent</text>
</g>
<!-- UnauthenticatedComponent&#45;&gt;AppModule -->
<g id="edge2" class="edge">
<title>UnauthenticatedComponent&#45;&gt;AppModule</title>
<path fill="none" stroke="#000000" d="M1152,-266.0225C1152,-283.3734 1152,-307 1152,-307 1152,-307 884.7037,-307 884.7037,-307"/>
<polygon fill="#000000" stroke="#000000" points="884.7037,-303.5001 874.7037,-307 884.7036,-310.5001 884.7037,-303.5001"/>
</g>
<!-- AppComponent  -->
<g id="node6" class="node">
<title>AppComponent </title>
<polygon fill="#80b1d3" stroke="#000000" points="887.439,-396 778.561,-396 778.561,-360 887.439,-360 887.439,-396"/>
<text text-anchor="middle" x="833" y="-373.8" font-family="Times,serif" font-size="14.00" fill="#000000">AppComponent </text>
</g>
<!-- AppModule&#45;&gt;AppComponent  -->
<g id="edge5" class="edge">
<title>AppModule&#45;&gt;AppComponent </title>
<path fill="none" stroke="#000000" stroke-dasharray="1,5" d="M833,-331.1061C833,-331.1061 833,-349.991 833,-349.991"/>
<polygon fill="#000000" stroke="#000000" points="829.5001,-349.9909 833,-359.991 836.5001,-349.991 829.5001,-349.9909"/>
</g>
<!-- AuthenticatedModule -->
<g id="node4" class="node">
<title>AuthenticatedModule</title>
<polygon fill="#8dd3c7" stroke="#000000" points="1041.0772,-266 1038.0772,-270 1017.0772,-270 1014.0772,-266 902.9228,-266 902.9228,-230 1041.0772,-230 1041.0772,-266"/>
<text text-anchor="middle" x="972" y="-243.8" font-family="Times,serif" font-size="14.00" fill="#000000">AuthenticatedModule</text>
</g>
<!-- AuthenticatedModule&#45;&gt;AppModule -->
<g id="edge3" class="edge">
<title>AuthenticatedModule&#45;&gt;AppModule</title>
<path fill="none" stroke="#000000" d="M902.8835,-248C885.5095,-248 871.6967,-248 871.6967,-248 871.6967,-248 871.6967,-284.8939 871.6967,-284.8939"/>
<polygon fill="#000000" stroke="#000000" points="868.1968,-284.8938 871.6967,-294.8939 875.1968,-284.8939 868.1968,-284.8938"/>
</g>
<!-- ConfigComponent  -->
<g id="node14" class="node">
<title>ConfigComponent </title>
<polygon fill="#fb8072" stroke="#000000" points="1677.7205,-198 1554.2795,-198 1554.2795,-162 1677.7205,-162 1677.7205,-198"/>
<text text-anchor="middle" x="1616" y="-175.8" font-family="Times,serif" font-size="14.00" fill="#000000">ConfigComponent </text>
</g>
<!-- AuthenticatedModule&#45;&gt;ConfigComponent  -->
<g id="edge14" class="edge">
<title>AuthenticatedModule&#45;&gt;ConfigComponent </title>
<path fill="none" stroke="#000000" stroke-dasharray="5,2" d="M1029.7418,-229.5146C1029.7418,-217.8601 1029.7418,-205 1029.7418,-205 1029.7418,-205 1616,-205 1616,-205 1616,-205 1616,-204.3169 1616,-204.3169"/>
<polygon fill="#000000" stroke="#000000" points="1619.5002,-208.1686 1616,-198.1686 1612.5002,-208.1687 1619.5002,-208.1686"/>
</g>
<!-- ConfigModule -->
<g id="node5" class="node">
<title>ConfigModule</title>
<polygon fill="#8dd3c7" stroke="#000000" points="1011.4386,-198 1008.4386,-202 987.4386,-202 984.4386,-198 912.5614,-198 912.5614,-162 1011.4386,-162 1011.4386,-198"/>
<text text-anchor="middle" x="962" y="-175.8" font-family="Times,serif" font-size="14.00" fill="#000000">ConfigModule</text>
</g>
<!-- ConfigModule&#45;&gt;AppModule -->
<g id="edge4" class="edge">
<title>ConfigModule&#45;&gt;AppModule</title>
<path fill="none" stroke="#000000" d="M912.5466,-193C890.1346,-193 868.5652,-193 868.5652,-193 868.5652,-193 868.5652,-284.7746 868.5652,-284.7746"/>
<polygon fill="#000000" stroke="#000000" points="865.0653,-284.7745 868.5652,-294.7746 872.0653,-284.7746 865.0653,-284.7745"/>
</g>
<!-- ConfigModule&#45;&gt;AuthenticatedModule -->
<g id="edge13" class="edge">
<title>ConfigModule&#45;&gt;AuthenticatedModule</title>
<path fill="none" stroke="#000000" d="M962,-198.2228C962,-198.2228 962,-219.7269 962,-219.7269"/>
<polygon fill="#000000" stroke="#000000" points="958.5001,-219.7269 962,-229.7269 965.5001,-219.727 958.5001,-219.7269"/>
</g>
<!-- ConfigListComponent  -->
<g id="node27" class="node">
<title>ConfigListComponent </title>
<polygon fill="#fb8072" stroke="#000000" points="169.9995,-122 24.0005,-122 24.0005,-86 169.9995,-86 169.9995,-122"/>
<text text-anchor="middle" x="97" y="-99.8" font-family="Times,serif" font-size="14.00" fill="#000000">ConfigListComponent </text>
</g>
<!-- ConfigModule&#45;&gt;ConfigListComponent  -->
<g id="edge27" class="edge">
<title>ConfigModule&#45;&gt;ConfigListComponent </title>
<path fill="none" stroke="#000000" stroke-dasharray="5,2" d="M912.7565,-188C736.9183,-188 150.4093,-188 150.4093,-188 150.4093,-188 150.4093,-132.2267 150.4093,-132.2267"/>
<polygon fill="#000000" stroke="#000000" points="153.9094,-132.2267 150.4093,-122.2267 146.9094,-132.2268 153.9094,-132.2267"/>
</g>
<!-- AuthGuardService -->
<g id="node7" class="node">
<title>AuthGuardService</title>
<ellipse fill="#fdb462" stroke="#000000" cx="782" cy="-248" rx="83.3674" ry="18"/>
<text text-anchor="middle" x="782" y="-243.8" font-family="Times,serif" font-size="14.00" fill="#000000">AuthGuardService</text>
</g>
<!-- AuthGuardService&#45;&gt;AppModule -->
<g id="edge6" class="edge">
<title>AuthGuardService&#45;&gt;AppModule</title>
<path fill="none" stroke="#000000" d="M828.3027,-263.0757C828.3027,-263.0757 828.3027,-284.7642 828.3027,-284.7642"/>
<polygon fill="#000000" stroke="#000000" points="824.8028,-284.7642 828.3027,-294.7642 831.8028,-284.7642 824.8028,-284.7642"/>
</g>
<!-- DatabaseService -->
<g id="node8" class="node">
<title>DatabaseService</title>
<ellipse fill="#fdb462" stroke="#000000" cx="605" cy="-248" rx="75.2559" ry="18"/>
<text text-anchor="middle" x="605" y="-243.8" font-family="Times,serif" font-size="14.00" fill="#000000">DatabaseService</text>
</g>
<!-- DatabaseService&#45;&gt;AppModule -->
<g id="edge7" class="edge">
<title>DatabaseService&#45;&gt;AppModule</title>
<path fill="none" stroke="#000000" d="M605,-266.027C605,-282.3976 605,-304 605,-304 605,-304 781.1813,-304 781.1813,-304"/>
<polygon fill="#000000" stroke="#000000" points="781.1813,-307.5001 791.1813,-304 781.1813,-300.5001 781.1813,-307.5001"/>
</g>
<!-- GoogleService -->
<g id="node9" class="node">
<title>GoogleService</title>
<ellipse fill="#fdb462" stroke="#000000" cx="443" cy="-248" rx="68.3382" ry="18"/>
<text text-anchor="middle" x="443" y="-243.8" font-family="Times,serif" font-size="14.00" fill="#000000">GoogleService</text>
</g>
<!-- GoogleService&#45;&gt;AppModule -->
<g id="edge8" class="edge">
<title>GoogleService&#45;&gt;AppModule</title>
<path fill="none" stroke="#000000" d="M443,-266.1061C443,-285.3391 443,-313 443,-313 443,-313 781.2632,-313 781.2632,-313"/>
<polygon fill="#000000" stroke="#000000" points="781.2632,-316.5001 791.2632,-313 781.2631,-309.5001 781.2632,-316.5001"/>
</g>
<!-- PreventAuthGuardService -->
<g id="node10" class="node">
<title>PreventAuthGuardService</title>
<ellipse fill="#fdb462" stroke="#000000" cx="244" cy="-248" rx="112.8616" ry="18"/>
<text text-anchor="middle" x="244" y="-243.8" font-family="Times,serif" font-size="14.00" fill="#000000">PreventAuthGuardService</text>
</g>
<!-- PreventAuthGuardService&#45;&gt;AppModule -->
<g id="edge9" class="edge">
<title>PreventAuthGuardService&#45;&gt;AppModule</title>
<path fill="none" stroke="#000000" d="M244,-266.2921C244,-288.2057 244,-322 244,-322 244,-322 781.1128,-322 781.1128,-322"/>
<polygon fill="#000000" stroke="#000000" points="781.1128,-325.5001 791.1128,-322 781.1127,-318.5001 781.1128,-325.5001"/>
</g>
<!-- ConfigComponent -->
<g id="node11" class="node">
<title>ConfigComponent</title>
<polygon fill="#ffffb3" stroke="#000000" points="2100.2204,-198 1979.7796,-198 1979.7796,-162 2100.2204,-162 2100.2204,-198"/>
<text text-anchor="middle" x="2040" y="-175.8" font-family="Times,serif" font-size="14.00" fill="#000000">ConfigComponent</text>
</g>
<!-- ConfigComponent&#45;&gt;AuthenticatedModule -->
<g id="edge10" class="edge">
<title>ConfigComponent&#45;&gt;AuthenticatedModule</title>
<path fill="none" stroke="#000000" d="M2040,-198.1505C2040,-210.2708 2040,-224 2040,-224 2040,-224 1038.7793,-224 1038.7793,-224 1038.7793,-224 1038.7793,-224.581 1038.7793,-224.581"/>
<polygon fill="#000000" stroke="#000000" points="1035.2794,-219.8097 1038.7793,-229.8097 1042.2794,-219.8098 1035.2794,-219.8097"/>
</g>
<!-- HomeComponent -->
<g id="node12" class="node">
<title>HomeComponent</title>
<polygon fill="#ffffb3" stroke="#000000" points="1961.5451,-198 1846.4549,-198 1846.4549,-162 1961.5451,-162 1961.5451,-198"/>
<text text-anchor="middle" x="1904" y="-175.8" font-family="Times,serif" font-size="14.00" fill="#000000">HomeComponent</text>
</g>
<!-- HomeComponent&#45;&gt;AuthenticatedModule -->
<g id="edge11" class="edge">
<title>HomeComponent&#45;&gt;AuthenticatedModule</title>
<path fill="none" stroke="#000000" d="M1904,-198.1097C1904,-207.897 1904,-218 1904,-218 1904,-218 1036.5199,-218 1036.5199,-218 1036.5199,-218 1036.5199,-219.8568 1036.5199,-219.8568"/>
<polygon fill="#000000" stroke="#000000" points="1033.02,-219.8568 1036.5199,-229.8568 1040.02,-219.8568 1033.02,-219.8568"/>
</g>
<!-- SettingsComponent -->
<g id="node13" class="node">
<title>SettingsComponent</title>
<polygon fill="#ffffb3" stroke="#000000" points="1828.4468,-198 1701.5532,-198 1701.5532,-162 1828.4468,-162 1828.4468,-198"/>
<text text-anchor="middle" x="1765" y="-175.8" font-family="Times,serif" font-size="14.00" fill="#000000">SettingsComponent</text>
</g>
<!-- SettingsComponent&#45;&gt;AuthenticatedModule -->
<g id="edge12" class="edge">
<title>SettingsComponent&#45;&gt;AuthenticatedModule</title>
<path fill="none" stroke="#000000" d="M1765,-198.0328C1765,-204.8526 1765,-211 1765,-211 1765,-211 1034.2606,-211 1034.2606,-211 1034.2606,-211 1034.2606,-219.9336 1034.2606,-219.9336"/>
<polygon fill="#000000" stroke="#000000" points="1030.7606,-219.9335 1034.2606,-229.9336 1037.7606,-219.9336 1030.7606,-219.9335"/>
</g>
<!-- SorterService -->
<g id="node15" class="node">
<title>SorterService</title>
<ellipse fill="#fdb462" stroke="#000000" cx="1466" cy="-180" rx="63.6774" ry="18"/>
<text text-anchor="middle" x="1466" y="-175.8" font-family="Times,serif" font-size="14.00" fill="#000000">SorterService</text>
</g>
<!-- SorterService&#45;&gt;AuthenticatedModule -->
<g id="edge15" class="edge">
<title>SorterService&#45;&gt;AuthenticatedModule</title>
<path fill="none" stroke="#000000" d="M1410.5929,-189C1293.5922,-189 1032.0012,-189 1032.0012,-189 1032.0012,-189 1032.0012,-219.9775 1032.0012,-219.9775"/>
<polygon fill="#000000" stroke="#000000" points="1028.5013,-219.9774 1032.0012,-229.9775 1035.5013,-219.9775 1028.5013,-219.9774"/>
</g>
<!-- ConfigListComponent -->
<g id="node16" class="node">
<title>ConfigListComponent</title>
<polygon fill="#ffffb3" stroke="#000000" points="2122.9986,-122 1981.0014,-122 1981.0014,-86 2122.9986,-86 2122.9986,-122"/>
<text text-anchor="middle" x="2052" y="-99.8" font-family="Times,serif" font-size="14.00" fill="#000000">ConfigListComponent</text>
</g>
<!-- ConfigListComponent&#45;&gt;ConfigModule -->
<g id="edge16" class="edge">
<title>ConfigListComponent&#45;&gt;ConfigModule</title>
<path fill="none" stroke="#000000" d="M2040.5554,-122.0511C2040.5554,-136.373 2040.5554,-154 2040.5554,-154 2040.5554,-154 994.8125,-154 994.8125,-154 994.8125,-154 994.8125,-154.7942 994.8125,-154.7942"/>
<polygon fill="#000000" stroke="#000000" points="991.3127,-151.9421 994.8125,-161.9421 998.3127,-151.9422 991.3127,-151.9421"/>
</g>
<!-- ConfigModalComponent -->
<g id="node17" class="node">
<title>ConfigModalComponent</title>
<polygon fill="#ffffb3" stroke="#000000" points="1963.2702,-122 1806.7298,-122 1806.7298,-86 1963.2702,-86 1963.2702,-122"/>
<text text-anchor="middle" x="1885" y="-99.8" font-family="Times,serif" font-size="14.00" fill="#000000">ConfigModalComponent</text>
</g>
<!-- ConfigModalComponent&#45;&gt;ConfigModule -->
<g id="edge17" class="edge">
<title>ConfigModalComponent&#45;&gt;ConfigModule</title>
<path fill="none" stroke="#000000" d="M1817.419,-122.0555C1817.419,-133.439 1817.419,-146 1817.419,-146 1817.419,-146 978.4063,-146 978.4063,-146 978.4063,-146 978.4063,-151.8056 978.4063,-151.8056"/>
<polygon fill="#000000" stroke="#000000" points="974.9064,-151.8055 978.4063,-161.8056 981.9064,-151.8056 974.9064,-151.8055"/>
</g>
<!-- EditConfigModalComponent -->
<g id="node18" class="node">
<title>EditConfigModalComponent</title>
<polygon fill="#ffffb3" stroke="#000000" points="1789.1038,-122 1608.8962,-122 1608.8962,-86 1789.1038,-86 1789.1038,-122"/>
<text text-anchor="middle" x="1699" y="-99.8" font-family="Times,serif" font-size="14.00" fill="#000000">EditConfigModalComponent</text>
</g>
<!-- EditConfigModalComponent&#45;&gt;ConfigModule -->
<g id="edge18" class="edge">
<title>EditConfigModalComponent&#45;&gt;ConfigModule</title>
<path fill="none" stroke="#000000" d="M1643.4041,-122.1944C1643.4041,-130.2782 1643.4041,-138 1643.4041,-138 1643.4041,-138 962,-138 962,-138 962,-138 962,-151.9445 962,-151.9445"/>
<polygon fill="#000000" stroke="#000000" points="958.5001,-151.9444 962,-161.9445 965.5001,-151.9445 958.5001,-151.9444"/>
</g>
<!-- EditConfigPageComponent -->
<g id="node19" class="node">
<title>EditConfigPageComponent</title>
<polygon fill="#ffffb3" stroke="#000000" points="1591.266,-122 1420.734,-122 1420.734,-86 1591.266,-86 1591.266,-122"/>
<text text-anchor="middle" x="1506" y="-99.8" font-family="Times,serif" font-size="14.00" fill="#000000">EditConfigPageComponent</text>
</g>
<!-- EditConfigPageComponent&#45;&gt;ConfigModule -->
<g id="edge19" class="edge">
<title>EditConfigPageComponent&#45;&gt;ConfigModule</title>
<path fill="none" stroke="#000000" d="M1475.1029,-122.0579C1475.1029,-126.4945 1475.1029,-130 1475.1029,-130 1475.1029,-130 945.5937,-130 945.5937,-130 945.5937,-130 945.5937,-151.9489 945.5937,-151.9489"/>
<polygon fill="#000000" stroke="#000000" points="942.0938,-151.9488 945.5937,-161.9489 949.0938,-151.9489 942.0938,-151.9488"/>
</g>
<!-- FolderCreationComponent -->
<g id="node20" class="node">
<title>FolderCreationComponent</title>
<polygon fill="#ffffb3" stroke="#000000" points="1403.0884,-122 1236.9116,-122 1236.9116,-86 1403.0884,-86 1403.0884,-122"/>
<text text-anchor="middle" x="1320" y="-99.8" font-family="Times,serif" font-size="14.00" fill="#000000">FolderCreationComponent</text>
</g>
<!-- FolderCreationComponent&#45;&gt;ConfigModule -->
<g id="edge20" class="edge">
<title>FolderCreationComponent&#45;&gt;ConfigModule</title>
<path fill="none" stroke="#000000" d="M1247.4089,-122.0109C1247.4089,-144.4852 1247.4089,-180 1247.4089,-180 1247.4089,-180 1021.3886,-180 1021.3886,-180"/>
<polygon fill="#000000" stroke="#000000" points="1021.3886,-176.5001 1011.3886,-180 1021.3886,-183.5001 1021.3886,-176.5001"/>
</g>
<!-- NewConfigPageComponent -->
<g id="node21" class="node">
<title>NewConfigPageComponent</title>
<polygon fill="#ffffb3" stroke="#000000" points="1218.8599,-122 1045.1401,-122 1045.1401,-86 1218.8599,-86 1218.8599,-122"/>
<text text-anchor="middle" x="1132" y="-99.8" font-family="Times,serif" font-size="14.00" fill="#000000">NewConfigPageComponent</text>
</g>
<!-- NewConfigPageComponent&#45;&gt;ConfigModule -->
<g id="edge21" class="edge">
<title>NewConfigPageComponent&#45;&gt;ConfigModule</title>
<path fill="none" stroke="#000000" d="M1055.2665,-122.308C1055.2665,-142.1455 1055.2665,-171 1055.2665,-171 1055.2665,-171 1021.3643,-171 1021.3643,-171"/>
<polygon fill="#000000" stroke="#000000" points="1021.3643,-167.5001 1011.3643,-171 1021.3642,-174.5001 1021.3643,-167.5001"/>
</g>
<!-- NewRuleStepperComponent -->
<g id="node22" class="node">
<title>NewRuleStepperComponent</title>
<polygon fill="#ffffb3" stroke="#000000" points="1027.465,-122 850.535,-122 850.535,-86 1027.465,-86 1027.465,-122"/>
<text text-anchor="middle" x="939" y="-99.8" font-family="Times,serif" font-size="14.00" fill="#000000">NewRuleStepperComponent</text>
</g>
<!-- NewRuleStepperComponent&#45;&gt;ConfigModule -->
<g id="edge22" class="edge">
<title>NewRuleStepperComponent&#45;&gt;ConfigModule</title>
<path fill="none" stroke="#000000" d="M929.1875,-122.0109C929.1875,-122.0109 929.1875,-151.855 929.1875,-151.855"/>
<polygon fill="#000000" stroke="#000000" points="925.6876,-151.8549 929.1875,-161.855 932.6876,-151.855 925.6876,-151.8549"/>
</g>
<!-- PresetConfigComponent -->
<g id="node23" class="node">
<title>PresetConfigComponent</title>
<polygon fill="#ffffb3" stroke="#000000" points="832.4284,-122 677.5716,-122 677.5716,-86 832.4284,-86 832.4284,-122"/>
<text text-anchor="middle" x="755" y="-99.8" font-family="Times,serif" font-size="14.00" fill="#000000">PresetConfigComponent</text>
</g>
<!-- PresetConfigComponent&#45;&gt;ConfigModule -->
<g id="edge23" class="edge">
<title>PresetConfigComponent&#45;&gt;ConfigModule</title>
<path fill="none" stroke="#000000" d="M765.3901,-122.1686C765.3901,-141.0898 765.3901,-168 765.3901,-168 765.3901,-168 902.6408,-168 902.6408,-168"/>
<polygon fill="#000000" stroke="#000000" points="902.6408,-171.5001 912.6408,-168 902.6408,-164.5001 902.6408,-171.5001"/>
</g>
<!-- PresetConfigPageComponent -->
<g id="node24" class="node">
<title>PresetConfigPageComponent</title>
<polygon fill="#ffffb3" stroke="#000000" points="659.64,-122 478.36,-122 478.36,-86 659.64,-86 659.64,-122"/>
<text text-anchor="middle" x="569" y="-99.8" font-family="Times,serif" font-size="14.00" fill="#000000">PresetConfigPageComponent</text>
</g>
<!-- PresetConfigPageComponent&#45;&gt;ConfigModule -->
<g id="edge24" class="edge">
<title>PresetConfigPageComponent&#45;&gt;ConfigModule</title>
<path fill="none" stroke="#000000" d="M594.721,-122.1289C594.721,-142.5724 594.721,-173 594.721,-173 594.721,-173 902.4671,-173 902.4671,-173"/>
<polygon fill="#000000" stroke="#000000" points="902.4672,-176.5001 912.4671,-173 902.4671,-169.5001 902.4672,-176.5001"/>
</g>
<!-- UnNamedPipe -->
<g id="node25" class="node">
<title>UnNamedPipe</title>
<polygon fill="#ffffb3" stroke="#000000" points="460.4217,-122 361.5783,-122 361.5783,-86 460.4217,-86 460.4217,-122"/>
<text text-anchor="middle" x="411" y="-99.8" font-family="Times,serif" font-size="14.00" fill="#000000">UnNamedPipe</text>
</g>
<!-- UnNamedPipe&#45;&gt;ConfigModule -->
<g id="edge25" class="edge">
<title>UnNamedPipe&#45;&gt;ConfigModule</title>
<path fill="none" stroke="#000000" d="M417.3957,-122.2921C417.3957,-144.2057 417.3957,-178 417.3957,-178 417.3957,-178 902.7095,-178 902.7095,-178"/>
<polygon fill="#000000" stroke="#000000" points="902.7095,-181.5001 912.7095,-178 902.7094,-174.5001 902.7095,-181.5001"/>
</g>
<!-- ConfigRoutingModule -->
<g id="node26" class="node">
<title>ConfigRoutingModule</title>
<polygon fill="#8dd3c7" stroke="#000000" points="337.5561,-122 334.5561,-126 313.5561,-126 310.5561,-122 194.4439,-122 194.4439,-86 337.5561,-86 337.5561,-122"/>
<text text-anchor="middle" x="266" y="-99.8" font-family="Times,serif" font-size="14.00" fill="#000000">ConfigRoutingModule</text>
</g>
<!-- ConfigRoutingModule&#45;&gt;ConfigModule -->
<g id="edge26" class="edge">
<title>ConfigRoutingModule&#45;&gt;ConfigModule</title>
<path fill="none" stroke="#000000" d="M266,-122.3228C266,-145.6602 266,-183 266,-183 266,-183 902.5034,-183 902.5034,-183"/>
<polygon fill="#000000" stroke="#000000" points="902.5034,-186.5001 912.5034,-183 902.5033,-179.5001 902.5034,-186.5001"/>
</g>
</g>
</svg>
